STARTFONT 2.3
FONT -FontForge-STIX Two Math-Book-R-Normal--10-100-72-72-P-68-ISO10646-1
SIZE 10 72 72  4
FONTBOUNDINGBOX 41 44 -10 -17
COMMENT "Generated by fontforge, http://fontforge.sourceforge.net"
COMMENT "Copyright 2001-2021 The STIX Fonts Project Authors (https://github.com/stipub/stixfonts)"
STARTPROPERTIES 41
FOUNDRY "FontForge"
FAMILY_NAME "STIX Two Math"
WEIGHT_NAME "Book"
SLANT "R"
SETWIDTH_NAME "Normal"
ADD_STYLE_NAME ""
PIXEL_SIZE 10
POINT_SIZE 100
RESOLUTION_X 72
RESOLUTION_Y 72
SPACING "P"
AVERAGE_WIDTH 68
CHARSET_REGISTRY "ISO10646"
CHARSET_ENCODING "1"
FONTNAME_REGISTRY ""
CHARSET_COLLECTIONS "ASCII ISOLatin1Encoding ISO8859-2 ISO8859-5 ISO8859-7 ISO8859-9 ISO8859-4 ISO10646-1"
BITS_PER_PIXEL 4
FONT_NAME "STIXTwoMath-Regular"
FACE_NAME "STIX Two Math Regular"
COPYRIGHT "Copyright 2001-2021 The STIX Fonts Project Authors (https://github.com/stipub/stixfonts)"
FONT_VERSION "2.12 b168a"
FONT_ASCENT 8
FONT_DESCENT 2
UNDERLINE_POSITION -1
UNDERLINE_THICKNESS 1
X_HEIGHT 4
CAP_HEIGHT 6
RAW_ASCENT 762
RAW_DESCENT 238
NORM_SPACE 2
RELATIVE_WEIGHT 40
RELATIVE_SETWIDTH 50
SUPERSCRIPT_X 0
SUPERSCRIPT_Y 5
SUPERSCRIPT_SIZE 5
SUBSCRIPT_X 0
SUBSCRIPT_Y 2
SUBSCRIPT_SIZE 5
FIGURE_WIDTH 5
AVG_LOWERCASE_WIDTH 50
AVG_UPPERCASE_WIDTH 67
ENDPROPERTIES
CHARS 6611
STARTCHAR space
ENCODING 32
SWIDTH 235 0
DWIDTH 2 0
BBX 1 1 0 0
BITMAP
00
ENDCHAR
STARTCHAR exclam
ENCODING 33
SWIDTH 283 0
DWIDTH 3 0
BBX 2 7 0 0
BITMAP
1C
1D
0C
09
07
02
1D
ENDCHAR
STARTCHAR quotedbl
ENCODING 34
SWIDTH 334 0
DWIDTH 3 0
BBX 3 2 0 5
BITMAP
75C0
7180
ENDCHAR
STARTCHAR numbersign
ENCODING 35
SWIDTH 702 0
DWIDTH 7 0
BBX 7 7 0 0
BITMAP
00812600
00905400
17C7B830
00808000
38B7C720
04409000
07218000
ENDCHAR
STARTCHAR dollar
ENCODING 36
SWIDTH 495 0
DWIDTH 5 0
BBX 5 8 0 -1
BITMAP
28A920
947250
5C8000
05E900
007B70
707580
78A820
006000
ENDCHAR
STARTCHAR percent
ENCODING 37
SWIDTH 692 0
DWIDTH 7 0
BBX 7 7 0 0
BITMAP
18511700
64387100
83614000
26354510
00259050
00637150
05219500
ENDCHAR
STARTCHAR ampersand
ENCODING 38
SWIDTH 736 0
DWIDTH 7 0
BBX 7 7 0 0
BITMAP
02874000
05736000
01D52A50
18960900
851D6200
A506C010
4C977C70
ENDCHAR
STARTCHAR quotesingle
ENCODING 39
SWIDTH 187 0
DWIDTH 2 0
BBX 2 2 0 5
BITMAP
75
71
ENDCHAR
STARTCHAR parenleft
ENCODING 40
SWIDTH 357 0
DWIDTH 4 0
BBX 4 10 0 -2
BITMAP
0011
0270
0A00
4700
7500
8400
6600
2900
0820
0061
ENDCHAR
STARTCHAR parenright
ENCODING 41
SWIDTH 357 0
DWIDTH 4 0
BBX 4 10 0 -2
BITMAP
2000
2700
0460
00B0
00B0
00B1
00C0
01A0
0720
4300
ENDCHAR
STARTCHAR asterisk
ENCODING 42
SWIDTH 410 0
DWIDTH 4 0
BBX 4 4 0 3
BITMAP
2453
4894
6887
0350
ENDCHAR
STARTCHAR plus
ENCODING 43
SWIDTH 720 0
DWIDTH 7 0
BBX 7 7 0 -1
BITMAP
00070000
000B0000
000B0000
4BBEBB60
000B0000
000B0000
00040000
ENDCHAR
STARTCHAR comma
ENCODING 44
SWIDTH 245 0
DWIDTH 2 0
BBX 2 4 0 -2
BITMAP
01
5C
07
21
ENDCHAR
STARTCHAR hyphen
ENCODING 45
SWIDTH 315 0
DWIDTH 3 0
BBX 3 1 0 2
BITMAP
5A70
ENDCHAR
STARTCHAR period
ENCODING 46
SWIDTH 245 0
DWIDTH 2 0
BBX 2 2 0 0
BITMAP
01
4A
ENDCHAR
STARTCHAR slash
ENCODING 47
SWIDTH 386 0
DWIDTH 4 0
BBX 4 8 0 -1
BITMAP
0035
0081
0080
0360
0710
0800
3600
7100
ENDCHAR
STARTCHAR zero
ENCODING 48
SWIDTH 495 0
DWIDTH 5 0
BBX 5 7 0 0
BITMAP
096800
670850
940590
B405A0
A40590
670850
096800
ENDCHAR
STARTCHAR one
ENCODING 49
SWIDTH 495 0
DWIDTH 5 0
BBX 5 7 0 0
BITMAP
28D000
00D000
00D000
00D000
00D000
00D000
16F610
ENDCHAR
STARTCHAR two
ENCODING 50
SWIDTH 495 0
DWIDTH 5 0
BBX 5 7 0 0
BITMAP
19B900
400B30
000A30
001A00
008100
072040
6DCD60
ENDCHAR
STARTCHAR three
ENCODING 51
SWIDTH 495 0
DWIDTH 5 0
BBX 5 7 0 0
BITMAP
08B900
210D00
001900
02B800
000A50
000750
4B6600
ENDCHAR
STARTCHAR four
ENCODING 52
SWIDTH 495 0
DWIDTH 5 0
BBX 5 7 0 0
BITMAP
002C00
008C00
044C00
071C00
611C00
ABBE90
001C00
ENDCHAR
STARTCHAR five
ENCODING 53
SWIDTH 495 0
DWIDTH 5 0
BBX 5 7 0 0
BITMAP
07DD30
060000
0DD600
001B30
000560
000630
4B7600
ENDCHAR
STARTCHAR six
ENCODING 54
SWIDTH 495 0
DWIDTH 5 0
BBX 5 7 0 0
BITMAP
018710
0A2000
4B9800
780950
760580
580660
096810
ENDCHAR
STARTCHAR seven
ENCODING 55
SWIDTH 495 0
DWIDTH 5 0
BBX 5 7 0 0
BITMAP
4DDD80
400540
000900
002800
008300
00B000
047000
ENDCHAR
STARTCHAR eight
ENCODING 56
SWIDTH 495 0
DWIDTH 5 0
BBX 5 7 0 0
BITMAP
174700
560830
2D3900
07F600
393D40
740660
285810
ENDCHAR
STARTCHAR nine
ENCODING 57
SWIDTH 495 0
DWIDTH 5 0
BBX 5 7 0 0
BITMAP
186900
750940
940770
680870
199B40
002B00
158100
ENDCHAR
STARTCHAR colon
ENCODING 58
SWIDTH 245 0
DWIDTH 2 0
BBX 2 6 0 0
BITMAP
01
4A
00
00
01
4A
ENDCHAR
STARTCHAR semicolon
ENCODING 59
SWIDTH 245 0
DWIDTH 2 0
BBX 2 8 0 -2
BITMAP
01
4A
00
00
01
5C
07
21
ENDCHAR
STARTCHAR less
ENCODING 60
SWIDTH 720 0
DWIDTH 7 0
BBX 7 7 0 -1
BITMAP
00000130
00017A30
018A3000
1C900000
005A6000
00004A40
00000010
ENDCHAR
STARTCHAR equal
ENCODING 61
SWIDTH 720 0
DWIDTH 7 0
BBX 7 3 0 1
BITMAP
4AAAAA60
00000000
4AAAAA60
ENDCHAR
STARTCHAR greater
ENCODING 62
SWIDTH 720 0
DWIDTH 7 0
BBX 7 7 0 -1
BITMAP
22000000
19920000
00299200
00006D30
005A6000
2A600000
10000000
ENDCHAR
STARTCHAR question
ENCODING 63
SWIDTH 411 0
DWIDTH 4 0
BBX 4 7 0 0
BITMAP
4785
A31C
1039
0091
0160
0110
0670
ENDCHAR
STARTCHAR at
ENCODING 64
SWIDTH 905 0
DWIDTH 9 0
BBX 9 9 0 -2
BITMAP
0027775000
0470005800
1905563820
4638094460
6575084360
4776094630
1B2C77A800
0681001100
0038876000
ENDCHAR
STARTCHAR A
ENCODING 65
SWIDTH 718 0
DWIDTH 7 0
BBX 8 7 0 0
BITMAP
000C0000
004C5000
0084B000
0170D300
0776B900
08002E10
8A103EA1
ENDCHAR
STARTCHAR B
ENCODING 66
SWIDTH 618 0
DWIDTH 6 0
BBX 6 7 0 0
BITMAP
3D87A2
0A4087
0A4094
0A89A1
0A407A
0A404B
3D8593
ENDCHAR
STARTCHAR C
ENCODING 67
SWIDTH 670 0
DWIDTH 7 0
BBX 7 7 0 0
BITMAP
03979F10
1D100810
6A000200
79000000
6A000000
1E300310
03BA9600
ENDCHAR
STARTCHAR D
ENCODING 68
SWIDTH 730 0
DWIDTH 7 0
BBX 7 7 0 0
BITMAP
3D879500
0A400C50
0A4006A0
0A4004C0
0A4005A0
0A400A40
3D868500
ENDCHAR
STARTCHAR E
ENCODING 69
SWIDTH 626 0
DWIDTH 6 0
BBX 6 7 0 0
BITMAP
3D9789
0A4004
0A4060
0A97B0
0A4021
0A4007
3D978B
ENDCHAR
STARTCHAR F
ENCODING 70
SWIDTH 588 0
DWIDTH 6 0
BBX 6 7 0 0
BITMAP
3D978A
0A4004
0A4060
0A97B0
0A4020
0A4000
3D9100
ENDCHAR
STARTCHAR G
ENCODING 71
SWIDTH 720 0
DWIDTH 7 0
BBX 7 7 0 0
BITMAP
03979F10
1D100810
6A000100
79003A60
6A000B30
1D100B30
04A78910
ENDCHAR
STARTCHAR H
ENCODING 72
SWIDTH 777 0
DWIDTH 8 0
BBX 8 7 0 0
BITMAP
2CB21AC3
08600590
08600590
08966990
08600590
08600590
2CA21AC3
ENDCHAR
STARTCHAR I
ENCODING 73
SWIDTH 357 0
DWIDTH 4 0
BBX 4 7 0 0
BITMAP
3D91
0A40
0A40
0A40
0A40
0A40
3D91
ENDCHAR
STARTCHAR J
ENCODING 74
SWIDTH 396 0
DWIDTH 4 0
BBX 4 7 0 0
BITMAP
08E5
01D0
01C0
01C0
01C0
21C0
C860
ENDCHAR
STARTCHAR K
ENCODING 75
SWIDTH 702 0
DWIDTH 7 0
BBX 7 7 0 0
BITMAP
3D919B30
0A418000
0A480000
0AC50000
0A5C4000
0A42D400
3D919E60
ENDCHAR
STARTCHAR L
ENCODING 76
SWIDTH 585 0
DWIDTH 6 0
BBX 6 7 0 0
BITMAP
3D9100
0A4000
0A4000
0A4000
0A4000
0A4007
3DA7A7
ENDCHAR
STARTCHAR M
ENCODING 77
SWIDTH 895 0
DWIDTH 9 0
BBX 9 7 0 0
BITMAP
4E80009D20
09D001C900
07B5066900
074B084900
070D554900
0707D04900
4D31819D20
ENDCHAR
STARTCHAR N
ENCODING 78
SWIDTH 742 0
DWIDTH 7 0
BBX 8 7 0 0
BITMAP
4E501A91
0AE20440
077B0440
070A7440
0701D740
08003E40
4D300740
ENDCHAR
STARTCHAR O
ENCODING 79
SWIDTH 738 0
DWIDTH 7 0
BBX 7 7 0 0
BITMAP
03978700
1D100960
5A0004B0
790003D0
5A0004B0
1D100950
03977600
ENDCHAR
STARTCHAR P
ENCODING 80
SWIDTH 569 0
DWIDTH 6 0
BBX 6 7 0 0
BITMAP
3D87A1
0A4096
0A40B3
0A8740
0A4000
0A4000
3D9100
ENDCHAR
STARTCHAR Q
ENCODING 81
SWIDTH 737 0
DWIDTH 7 0
BBX 8 9 0 -2
BITMAP
03978700
1D100A60
6A0004B0
790003D0
6A0004B0
1D100950
04968700
0004E300
00003961
ENDCHAR
STARTCHAR R
ENCODING 82
SWIDTH 659 0
DWIDTH 7 0
BBX 7 7 0 0
BITMAP
3D86A100
0A409600
0A40B400
0A9C3000
0A488000
0A41D300
3D915D30
ENDCHAR
STARTCHAR S
ENCODING 83
SWIDTH 504 0
DWIDTH 5 0
BBX 5 7 0 0
BITMAP
197C50
760260
4D4000
05E910
101B80
8004A0
9B7920
ENDCHAR
STARTCHAR T
ENCODING 84
SWIDTH 603 0
DWIDTH 6 0
BBX 6 7 0 0
BITMAP
B8BB7B
507706
007700
007700
007700
007700
02BB20
ENDCHAR
STARTCHAR U
ENCODING 85
SWIDTH 752 0
DWIDTH 8 0
BBX 8 7 0 0
BITMAP
4E8019B2
0C100360
0C100360
0C100360
0C200350
09600620
02BA9600
ENDCHAR
STARTCHAR V
ENCODING 86
SWIDTH 680 0
DWIDTH 7 0
BBX 7 7 0 0
BITMAP
AF301B70
1E200900
08802600
02D07100
00C48000
006D3000
000B0000
ENDCHAR
STARTCHAR W
ENCODING 87
SWIDTH 944 0
DWIDTH 9 0
BBX 10 7 0 0
BITMAP
AE34E704D2
1E10960160
09608B0620
04C07D2800
00D6488700
007D03F200
0028009000
ENDCHAR
STARTCHAR X
ENCODING 88
SWIDTH 664 0
DWIDTH 7 0
BBX 7 7 0 0
BITMAP
5E906B30
06B08100
00B84000
004D1000
00888000
0721D300
7C11BD30
ENDCHAR
STARTCHAR Y
ENCODING 89
SWIDTH 647 0
DWIDTH 6 0
BBX 7 7 0 0
BITMAP
8F404C30
0A606200
02D17000
008C1000
003B0000
003B0000
018E4000
ENDCHAR
STARTCHAR Z
ENCODING 90
SWIDTH 594 0
DWIDTH 6 0
BBX 6 7 0 0
BITMAP
5B77E6
5105C0
001D20
009700
04C000
1D3006
8D77A7
ENDCHAR
STARTCHAR bracketleft
ENCODING 91
SWIDTH 349 0
DWIDTH 3 0
BBX 3 10 0 -2
BITMAP
1850
1A00
1A00
1A00
1A00
1A00
1A00
1A00
1A00
1C50
ENDCHAR
STARTCHAR backslash
ENCODING 92
SWIDTH 385 0
DWIDTH 4 0
BBX 4 8 0 -1
BITMAP
7100
3600
0800
0710
0350
0080
0081
0035
ENDCHAR
STARTCHAR bracketright
ENCODING 93
SWIDTH 349 0
DWIDTH 3 0
BBX 3 10 0 -2
BITMAP
2660
0390
0390
0390
0390
0390
0390
0390
0390
2790
ENDCHAR
STARTCHAR asciicircum
ENCODING 94
SWIDTH 480 0
DWIDTH 5 0
BBX 5 4 0 3
BITMAP
02C000
084500
180900
720540
ENDCHAR
STARTCHAR underscore
ENCODING 95
SWIDTH 512 0
DWIDTH 5 0
BBX 6 1 0 -2
BITMAP
888881
ENDCHAR
STARTCHAR grave
ENCODING 96
SWIDTH 222 0
DWIDTH 2 0
BBX 2 2 0 5
BITMAP
53
18
ENDCHAR
STARTCHAR a
ENCODING 97
SWIDTH 480 0
DWIDTH 5 0
BBX 5 5 0 0
BITMAP
277700
330C00
066D00
850C00
6C7C40
ENDCHAR
STARTCHAR b
ENCODING 98
SWIDTH 522 0
DWIDTH 5 0
BBX 5 7 0 0
BITMAP
790000
390000
3B9D40
3A04B0
3901D0
3903A0
2B6820
ENDCHAR
STARTCHAR c
ENCODING 99
SWIDTH 446 0
DWIDTH 4 0
BBX 5 5 0 0
BITMAP
176B00
730600
A20000
870210
1CB800
ENDCHAR
STARTCHAR d
ENCODING 100
SWIDTH 539 0
DWIDTH 5 0
BBX 6 7 0 0
BITMAP
000970
000670
086B70
650670
A30670
860670
2D99A1
ENDCHAR
STARTCHAR e
ENCODING 101
SWIDTH 464 0
DWIDTH 5 0
BBX 5 5 0 0
BITMAP
177900
886920
A30000
790220
1BC800
ENDCHAR
STARTCHAR f
ENCODING 102
SWIDTH 307 0
DWIDTH 3 0
BBX 4 7 0 0
BITMAP
0778
0C00
5E70
0C00
0C00
0D00
5E50
ENDCHAR
STARTCHAR g
ENCODING 103
SWIDTH 484 0
DWIDTH 5 0
BBX 5 7 0 -2
BITMAP
197E50
670C10
3A6500
340000
5EBA40
710180
7B8720
ENDCHAR
STARTCHAR h
ENCODING 104
SWIDTH 577 0
DWIDTH 6 0
BBX 6 7 0 0
BITMAP
4C0000
0C0000
0D7C60
0D02C0
0C00C0
0C00C0
4E35E3
ENDCHAR
STARTCHAR i
ENCODING 105
SWIDTH 285 0
DWIDTH 3 0
BBX 3 7 0 0
BITMAP
1D00
0100
4C00
0C00
0C00
0C00
4E30
ENDCHAR
STARTCHAR j
ENCODING 106
SWIDTH 263 0
DWIDTH 3 0
BBX 3 9 -1 -2
BITMAP
01C0
0010
04C0
00C0
00C0
00C0
00C0
10B0
B840
ENDCHAR
STARTCHAR k
ENCODING 107
SWIDTH 542 0
DWIDTH 5 0
BBX 6 7 0 0
BITMAP
4C0000
0C0000
0C1C70
0C5300
0DC100
0C4B00
4E3AB2
ENDCHAR
STARTCHAR l
ENCODING 108
SWIDTH 283 0
DWIDTH 3 0
BBX 3 7 0 0
BITMAP
4C00
0C00
0C00
0C00
0C00
0C00
4E30
ENDCHAR
STARTCHAR m
ENCODING 109
SWIDTH 852 0
DWIDTH 9 0
BBX 9 5 0 0
BITMAP
4C6A77C400
0D02C05800
0C01B04800
0C01B04800
4E36D28C10
ENDCHAR
STARTCHAR n
ENCODING 110
SWIDTH 576 0
DWIDTH 6 0
BBX 6 5 0 0
BITMAP
5C7B60
0D01C0
0C00C0
0C00C0
4E35E3
ENDCHAR
STARTCHAR o
ENCODING 111
SWIDTH 514 0
DWIDTH 5 0
BBX 5 5 0 0
BITMAP
196920
760490
9402C0
760390
196820
ENDCHAR
STARTCHAR p
ENCODING 112
SWIDTH 537 0
DWIDTH 5 0
BBX 5 7 0 -2
BITMAP
5C8C50
1D01D0
1C00D0
1C01B0
1E7830
1C0000
5E4000
ENDCHAR
STARTCHAR q
ENCODING 113
SWIDTH 521 0
DWIDTH 5 0
BBX 5 7 0 -2
BITMAP
087A60
750760
A30660
870660
2CAA60
000660
002AA0
ENDCHAR
STARTCHAR r
ENCODING 114
SWIDTH 380 0
DWIDTH 4 0
BBX 4 5 0 0
BITMAP
4C89
0E11
0C00
0C00
4E40
ENDCHAR
STARTCHAR s
ENCODING 115
SWIDTH 395 0
DWIDTH 4 0
BBX 4 5 0 0
BITMAP
4775
8603
1BC2
4069
8685
ENDCHAR
STARTCHAR t
ENCODING 116
SWIDTH 315 0
DWIDTH 3 0
BBX 3 7 0 0
BITMAP
0300
1A00
4D60
1B00
1B00
1B00
0C70
ENDCHAR
STARTCHAR u
ENCODING 117
SWIDTH 570 0
DWIDTH 6 0
BBX 6 5 0 0
BITMAP
6B07A0
1B02B0
1B02B0
1C02B0
0A97C2
ENDCHAR
STARTCHAR v
ENCODING 118
SWIDTH 481 0
DWIDTH 5 0
BBX 6 5 -1 0
BITMAP
1AA069
02B071
00C270
006A40
001C00
ENDCHAR
STARTCHAR w
ENCODING 119
SWIDTH 749 0
DWIDTH 7 0
BBX 9 5 -1 0
BITMAP
1AA2C70B40
02B0780700
00B27C2500
006A399000
001C049000
ENDCHAR
STARTCHAR x
ENCODING 120
SWIDTH 479 0
DWIDTH 5 0
BBX 5 5 0 0
BITMAP
7E1B40
0A6500
02E100
075900
861E60
ENDCHAR
STARTCHAR y
ENCODING 121
SWIDTH 483 0
DWIDTH 5 0
BBX 6 7 -1 -2
BITMAP
1AA068
02C071
00A470
003C30
000A00
002600
0B9000
ENDCHAR
STARTCHAR z
ENCODING 122
SWIDTH 458 0
DWIDTH 5 0
BBX 5 5 0 0
BITMAP
777E10
309600
04B000
1C2220
8B6B30
ENDCHAR
STARTCHAR braceleft
ENCODING 123
SWIDTH 327 0
DWIDTH 3 0
BBX 3 10 0 -2
BITMAP
0440
0B00
0B00
0B00
2800
6500
0A00
0B00
0B00
0840
ENDCHAR
STARTCHAR bar
ENCODING 124
SWIDTH 267 0
DWIDTH 3 0
BBX 1 9 1 -2
BITMAP
90
90
90
90
90
90
90
90
90
ENDCHAR
STARTCHAR braceright
ENCODING 125
SWIDTH 327 0
DWIDTH 3 0
BBX 3 10 0 -2
BITMAP
3500
0840
0740
0830
0550
0280
0820
0840
0740
3810
ENDCHAR
STARTCHAR asciitilde
ENCODING 126
SWIDTH 557 0
DWIDTH 6 0
BBX 6 3 0 1
BITMAP
000010
5EFFC1
100000
ENDCHAR
STARTCHAR uni00A0
ENCODING 160
SWIDTH 235 0
DWIDTH 2 0
BBX 1 1 0 0
BITMAP
00
ENDCHAR
STARTCHAR exclamdown
ENCODING 161
SWIDTH 282 0
DWIDTH 3 0
BBX 2 7 0 -2
BITMAP
1D
03
07
09
0C
1D
1C
ENDCHAR
STARTCHAR cent
ENCODING 162
SWIDTH 495 0
DWIDTH 5 0
BBX 5 7 0 0
BITMAP
007000
079C20
556310
856000
5B7130
08D900
006000
ENDCHAR
STARTCHAR sterling
ENCODING 163
SWIDTH 495 0
DWIDTH 5 0
BBX 5 7 0 0
BITMAP
017B50
073130
094000
3B9500
075000
4A5030
77BB30
ENDCHAR
STARTCHAR currency
ENCODING 164
SWIDTH 617 0
DWIDTH 6 0
BBX 6 7 0 -1
BITMAP
410004
1B99B3
0A0091
090063
0A10A0
399986
100002
ENDCHAR
STARTCHAR yen
ENCODING 165
SWIDTH 495 0
DWIDTH 5 0
BBX 5 7 0 0
BITMAP
881570
4C0520
0C3600
06A500
27F720
27E720
04F500
ENDCHAR
STARTCHAR brokenbar
ENCODING 166
SWIDTH 267 0
DWIDTH 3 0
BBX 1 7 1 0
BITMAP
90
90
90
00
90
90
90
ENDCHAR
STARTCHAR section
ENCODING 167
SWIDTH 491 0
DWIDTH 5 0
BBX 5 9 0 -2
BITMAP
065700
0B0800
08A000
068900
280A10
0B6710
01B600
261B00
175600
ENDCHAR
STARTCHAR dieresis
ENCODING 168
SWIDTH 392 0
DWIDTH 4 0
BBX 4 1 0 6
BITMAP
8457
ENDCHAR
STARTCHAR copyright
ENCODING 169
SWIDTH 781 0
DWIDTH 8 0
BBX 8 8 0 0
BITMAP
00455300
06100350
33567560
60B00133
60B10133
33398161
06100350
00455300
ENDCHAR
STARTCHAR ordfeminine
ENCODING 170
SWIDTH 410 0
DWIDTH 4 0
BBX 4 4 0 3
BITMAP
47A1
1394
6574
7A99
ENDCHAR
STARTCHAR guillemotleft
ENCODING 171
SWIDTH 517 0
DWIDTH 5 0
BBX 5 5 0 0
BITMAP
002020
081720
756700
191910
013040
ENDCHAR
STARTCHAR logicalnot
ENCODING 172
SWIDTH 720 0
DWIDTH 7 0
BBX 7 4 0 0
BITMAP
4AAAAB50
00000560
00000560
00000220
ENDCHAR
STARTCHAR uni00AD
ENCODING 173
SWIDTH 315 0
DWIDTH 3 0
BBX 3 1 0 2
BITMAP
5A70
ENDCHAR
STARTCHAR registered
ENCODING 174
SWIDTH 413 0
DWIDTH 4 0
BBX 4 4 0 3
BITMAP
0540
3772
4544
0331
ENDCHAR
STARTCHAR macron
ENCODING 175
SWIDTH 350 0
DWIDTH 4 0
BBX 4 1 0 6
BITMAP
6882
ENDCHAR
STARTCHAR degree
ENCODING 176
SWIDTH 409 0
DWIDTH 4 0
BBX 4 4 0 4
BITMAP
1771
6317
6317
1781
ENDCHAR
STARTCHAR plusminus
ENCODING 177
SWIDTH 720 0
DWIDTH 7 0
BBX 7 7 0 0
BITMAP
00020000
000A0000
000A0000
4AADAA60
000A0000
00070000
4AAAAA60
ENDCHAR
STARTCHAR twosuperior
ENCODING 178
SWIDTH 373 0
DWIDTH 4 0
BBX 4 5 0 3
BITMAP
49B1
1084
0090
0712
9CB6
ENDCHAR
STARTCHAR threesuperior
ENCODING 179
SWIDTH 374 0
DWIDTH 4 0
BBX 4 5 0 3
BITMAP
49B0
1090
07A1
0075
6771
ENDCHAR
STARTCHAR acute
ENCODING 180
SWIDTH 222 0
DWIDTH 2 0
BBX 2 2 0 5
BITMAP
16
63
ENDCHAR
STARTCHAR uni00B5
ENCODING 181
SWIDTH 556 0
DWIDTH 6 0
BBX 6 8 0 -3
BITMAP
490570
470650
450730
471B30
6BB4C4
740000
850000
100000
ENDCHAR
STARTCHAR paragraph
ENCODING 182
SWIDTH 605 0
DWIDTH 6 0
BBX 6 9 0 -2
BITMAP
19A9C2
666680
666680
198680
007680
006680
006680
0086A0
015252
ENDCHAR
STARTCHAR periodcentered
ENCODING 183
SWIDTH 282 0
DWIDTH 3 0
BBX 2 2 0 1
BITMAP
1D
02
ENDCHAR
STARTCHAR cedilla
ENCODING 184
SWIDTH 247 0
DWIDTH 2 0
BBX 3 3 0 -2
BITMAP
0100
2810
3710
ENDCHAR
STARTCHAR onesuperior
ENCODING 185
SWIDTH 343 0
DWIDTH 3 0
BBX 3 5 0 3
BITMAP
3C20
0920
0920
0920
3C70
ENDCHAR
STARTCHAR ordmasculine
ENCODING 186
SWIDTH 432 0
DWIDTH 4 0
BBX 4 4 0 3
BITMAP
2876
920C
920B
3866
ENDCHAR
STARTCHAR guillemotright
ENCODING 187
SWIDTH 517 0
DWIDTH 5 0
BBX 5 5 0 0
BITMAP
202100
181810
0483A0
091820
312200
ENDCHAR
STARTCHAR onequarter
ENCODING 188
SWIDTH 861 0
DWIDTH 9 0
BBX 9 8 0 0
BITMAP
0200002000
4E00044000
0B00070000
0B00610200
0B02607A00
2958055A00
00530A9D30
0060001600
ENDCHAR
STARTCHAR onehalf
ENCODING 189
SWIDTH 889 0
DWIDTH 9 0
BBX 9 8 0 0
BITMAP
0100001000
2D00034000
0B00070000
0B00628910
0B02630660
2957000920
0044006220
007006CB70
ENDCHAR
STARTCHAR threequarters
ENCODING 190
SWIDTH 861 0
DWIDTH 9 0
BBX 9 8 0 0
BITMAP
0000002000
2990044000
20A0070000
0790610000
1086605A00
6658045A00
00530A9D30
0060001600
ENDCHAR
STARTCHAR questiondown
ENCODING 191
SWIDTH 411 0
DWIDTH 4 0
BBX 4 7 0 -2
BITMAP
0580
0120
0430
0A00
7501
A31B
4966
ENDCHAR
STARTCHAR Agrave
ENCODING 192
SWIDTH 718 0
DWIDTH 7 0
BBX 8 9 0 0
BITMAP
00350000
00083000
000C0000
004C5000
0084B000
0170D300
0776B900
08002E10
8A103EA1
ENDCHAR
STARTCHAR Aacute
ENCODING 193
SWIDTH 718 0
DWIDTH 7 0
BBX 8 9 0 0
BITMAP
00044000
00291000
000C0000
004C5000
0084B000
0170D300
0776B900
08002E10
8A103EA1
ENDCHAR
STARTCHAR Acircumflex
ENCODING 194
SWIDTH 718 0
DWIDTH 7 0
BBX 8 9 0 0
BITMAP
00071000
00757000
000C0000
004C5000
0084B000
0170D300
0776B900
08002E10
8A103EA1
ENDCHAR
STARTCHAR Atilde
ENCODING 195
SWIDTH 718 0
DWIDTH 7 0
BBX 8 8 0 0
BITMAP
007A8000
000C0000
004C5000
0084B000
0170D300
0776B900
08002E10
8A103EA1
ENDCHAR
STARTCHAR Adieresis
ENCODING 196
SWIDTH 718 0
DWIDTH 7 0
BBX 8 8 0 0
BITMAP
01C0B200
001C1000
004C5000
0084B000
0170D300
0776B900
08002E10
8A103EA1
ENDCHAR
STARTCHAR Aring
ENCODING 197
SWIDTH 718 0
DWIDTH 7 0
BBX 8 10 0 0
BITMAP
00272000
00707000
00273000
000C0000
004C5000
0084B000
0170D300
0776B900
08002E10
8A103EA1
ENDCHAR
STARTCHAR AE
ENCODING 198
SWIDTH 894 0
DWIDTH 9 0
BBX 10 7 -1 0
BITMAP
0001AE77A4
00006D1013
00061D1020
001A7E7880
00710D1060
01700D1005
1A805F77A7
ENDCHAR
STARTCHAR Ccedilla
ENCODING 199
SWIDTH 670 0
DWIDTH 7 0
BBX 7 9 0 -2
BITMAP
03979F10
1D100810
6A000200
79000000
6A000000
1E300310
03BB9600
00073000
00163000
ENDCHAR
STARTCHAR Egrave
ENCODING 200
SWIDTH 626 0
DWIDTH 6 0
BBX 6 9 0 0
BITMAP
006200
002900
3D9789
0A4004
0A4060
0A97B0
0A4021
0A4007
3D978B
ENDCHAR
STARTCHAR Eacute
ENCODING 201
SWIDTH 626 0
DWIDTH 6 0
BBX 6 9 0 0
BITMAP
000720
006600
3D9789
0A4004
0A4060
0A97B0
0A4021
0A4007
3D978B
ENDCHAR
STARTCHAR Ecircumflex
ENCODING 202
SWIDTH 626 0
DWIDTH 6 0
BBX 6 9 0 0
BITMAP
003600
018640
3D9789
0A4004
0A4060
0A97B0
0A4021
0A4007
3D978B
ENDCHAR
STARTCHAR Edieresis
ENCODING 203
SWIDTH 626 0
DWIDTH 6 0
BBX 6 8 0 0
BITMAP
0582B0
3D9799
0A4004
0A4060
0A97B0
0A4021
0A4007
3D978B
ENDCHAR
STARTCHAR Igrave
ENCODING 204
SWIDTH 357 0
DWIDTH 4 0
BBX 4 9 0 0
BITMAP
2700
0660
3D91
0A40
0A40
0A40
0A40
0A40
3D91
ENDCHAR
STARTCHAR Iacute
ENCODING 205
SWIDTH 357 0
DWIDTH 4 0
BBX 4 9 0 0
BITMAP
0260
0920
3D91
0A40
0A40
0A40
0A40
0A40
3D91
ENDCHAR
STARTCHAR Icircumflex
ENCODING 206
SWIDTH 357 0
DWIDTH 4 0
BBX 4 9 0 0
BITMAP
0630
4681
3D91
0A40
0A40
0A40
0A40
0A40
3D91
ENDCHAR
STARTCHAR Idieresis
ENCODING 207
SWIDTH 357 0
DWIDTH 4 0
BBX 4 8 0 0
BITMAP
B285
4D91
0A40
0A40
0A40
0A40
0A40
3D91
ENDCHAR
STARTCHAR Eth
ENCODING 208
SWIDTH 737 0
DWIDTH 7 0
BBX 7 7 0 0
BITMAP
3D979500
09400C50
094006B0
4CA704D0
094005B0
09400A50
3D968600
ENDCHAR
STARTCHAR Ntilde
ENCODING 209
SWIDTH 742 0
DWIDTH 7 0
BBX 8 8 0 0
BITMAP
005A9200
4E501A91
0AE20440
077B0440
070A7440
0701D740
08003E40
4D300740
ENDCHAR
STARTCHAR Ograve
ENCODING 210
SWIDTH 738 0
DWIDTH 7 0
BBX 7 9 0 0
BITMAP
00260000
00074000
03978700
1D100960
5A0004B0
790003D0
5A0004B0
1D100950
03977600
ENDCHAR
STARTCHAR Oacute
ENCODING 211
SWIDTH 738 0
DWIDTH 7 0
BBX 7 9 0 0
BITMAP
00035000
00191000
03978700
1D100960
5A0004B0
790003D0
5A0004B0
1D100950
03977600
ENDCHAR
STARTCHAR Ocircumflex
ENCODING 212
SWIDTH 738 0
DWIDTH 7 0
BBX 7 9 0 0
BITMAP
00062000
00558000
03978700
1D100960
5A0004B0
790003D0
5A0004B0
1D100950
03977600
ENDCHAR
STARTCHAR Otilde
ENCODING 213
SWIDTH 738 0
DWIDTH 7 0
BBX 7 8 0 0
BITMAP
006A9100
03978700
1D100960
5A0004B0
790003D0
5A0004B0
1D100950
03977600
ENDCHAR
STARTCHAR Odieresis
ENCODING 214
SWIDTH 738 0
DWIDTH 7 0
BBX 7 8 0 0
BITMAP
00C19300
03A79700
1D100960
5A0004B0
790003D0
5A0004B0
1D100950
03977600
ENDCHAR
STARTCHAR multiply
ENCODING 215
SWIDTH 720 0
DWIDTH 7 0
BBX 7 7 0 -1
BITMAP
02000110
1A302B20
01A5B200
002F5000
01B3B300
1B201B20
01000100
ENDCHAR
STARTCHAR Oslash
ENCODING 216
SWIDTH 737 0
DWIDTH 7 0
BBX 7 7 0 0
BITMAP
03978A10
1D103C50
6A0165B0
790703D0
5A6204B0
1D500950
18968600
ENDCHAR
STARTCHAR Ugrave
ENCODING 217
SWIDTH 752 0
DWIDTH 8 0
BBX 8 9 0 0
BITMAP
00071000
00048000
4E8019B2
0C100360
0C100360
0C100360
0C200350
09600620
02BA9600
ENDCHAR
STARTCHAR Uacute
ENCODING 218
SWIDTH 752 0
DWIDTH 8 0
BBX 8 9 0 0
BITMAP
00017000
00084000
4E8019B2
0C100360
0C100360
0C100360
0C200350
09600620
02BA9600
ENDCHAR
STARTCHAR Ucircumflex
ENCODING 219
SWIDTH 752 0
DWIDTH 8 0
BBX 8 9 0 0
BITMAP
00044000
00277200
4E8019B2
0C100360
0C100360
0C100360
0C200350
09600620
02BA9600
ENDCHAR
STARTCHAR Udieresis
ENCODING 220
SWIDTH 752 0
DWIDTH 8 0
BBX 8 8 0 0
BITMAP
00855800
4E8119B2
0C100360
0C100360
0C100360
0C200350
09600620
02BA9600
ENDCHAR
STARTCHAR Yacute
ENCODING 221
SWIDTH 647 0
DWIDTH 6 0
BBX 7 9 0 0
BITMAP
00053000
00380000
8F404C30
0A606200
02D17000
008C1000
003B0000
003B0000
018E4000
ENDCHAR
STARTCHAR Thorn
ENCODING 222
SWIDTH 572 0
DWIDTH 6 0
BBX 6 7 0 0
BITMAP
3D9100
0A8750
0A40C3
0A4095
0A40C2
0A8830
3D9100
ENDCHAR
STARTCHAR germandbls
ENCODING 223
SWIDTH 563 0
DWIDTH 6 0
BBX 6 7 0 0
BITMAP
075750
0C0390
5D3910
0D06A0
0D00B3
0D20A3
5D7880
ENDCHAR
STARTCHAR agrave
ENCODING 224
SWIDTH 480 0
DWIDTH 5 0
BBX 5 7 0 0
BITMAP
052000
028000
277700
330C00
066D00
850C00
6C7C40
ENDCHAR
STARTCHAR aacute
ENCODING 225
SWIDTH 480 0
DWIDTH 5 0
BBX 5 7 0 0
BITMAP
005200
019000
277700
330C00
066D00
850C00
6C7C40
ENDCHAR
STARTCHAR acircumflex
ENCODING 226
SWIDTH 480 0
DWIDTH 5 0
BBX 5 7 0 0
BITMAP
016000
075500
277700
330C00
066D00
850C00
6C7C40
ENDCHAR
STARTCHAR atilde
ENCODING 227
SWIDTH 480 0
DWIDTH 5 0
BBX 5 6 0 0
BITMAP
189600
277700
330C00
066D00
850C00
6C7C40
ENDCHAR
STARTCHAR adieresis
ENCODING 228
SWIDTH 480 0
DWIDTH 5 0
BBX 5 7 0 0
BITMAP
391B00
000000
277700
330C00
066D00
850C00
6C7C40
ENDCHAR
STARTCHAR aring
ENCODING 229
SWIDTH 480 0
DWIDTH 5 0
BBX 5 8 0 0
BITMAP
047100
073400
047100
277700
330C00
066D00
850C00
6C7C40
ENDCHAR
STARTCHAR ae
ENCODING 230
SWIDTH 709 0
DWIDTH 7 0
BBX 7 5 0 0
BITMAP
38796930
116D6770
392C0000
951F2040
5B76DA20
ENDCHAR
STARTCHAR ccedilla
ENCODING 231
SWIDTH 446 0
DWIDTH 4 0
BBX 5 7 0 -2
BITMAP
177B00
730600
A20000
870210
2CB800
008200
027400
ENDCHAR
STARTCHAR egrave
ENCODING 232
SWIDTH 464 0
DWIDTH 5 0
BBX 5 7 0 0
BITMAP
043000
018000
177900
886920
A30000
790220
1BC800
ENDCHAR
STARTCHAR eacute
ENCODING 233
SWIDTH 464 0
DWIDTH 5 0
BBX 5 7 0 0
BITMAP
004300
009000
177900
886920
A30000
790220
1BC800
ENDCHAR
STARTCHAR ecircumflex
ENCODING 234
SWIDTH 464 0
DWIDTH 5 0
BBX 5 7 0 0
BITMAP
017000
074600
177900
886920
A30000
790220
1BC800
ENDCHAR
STARTCHAR edieresis
ENCODING 235
SWIDTH 464 0
DWIDTH 5 0
BBX 5 7 0 0
BITMAP
2A0C00
000000
177900
886920
A30000
790220
1BC800
ENDCHAR
STARTCHAR igrave
ENCODING 236
SWIDTH 285 0
DWIDTH 3 0
BBX 3 7 0 0
BITMAP
6200
2700
4C00
0C00
0C00
0C00
4E30
ENDCHAR
STARTCHAR iacute
ENCODING 237
SWIDTH 285 0
DWIDTH 3 0
BBX 3 7 0 0
BITMAP
0520
1800
4C00
0C00
0C00
0C00
4E30
ENDCHAR
STARTCHAR icircumflex
ENCODING 238
SWIDTH 285 0
DWIDTH 3 0
BBX 3 7 0 0
BITMAP
6B00
4130
4C00
0C00
0C00
0C00
4E30
ENDCHAR
STARTCHAR idieresis
ENCODING 239
SWIDTH 285 0
DWIDTH 3 0
BBX 4 7 -1 0
BITMAP
3B3A
0101
04C0
00C0
00C0
00C0
04E3
ENDCHAR
STARTCHAR eth
ENCODING 240
SWIDTH 532 0
DWIDTH 5 0
BBX 5 7 0 0
BITMAP
068840
004840
086990
7603B0
9402C0
760490
196910
ENDCHAR
STARTCHAR ntilde
ENCODING 241
SWIDTH 576 0
DWIDTH 6 0
BBX 6 6 0 0
BITMAP
039930
5C7B60
0D01C0
0C00C0
0C00C0
4E35E3
ENDCHAR
STARTCHAR ograve
ENCODING 242
SWIDTH 514 0
DWIDTH 5 0
BBX 5 7 0 0
BITMAP
034000
009000
196920
760490
9402C0
760390
196820
ENDCHAR
STARTCHAR oacute
ENCODING 243
SWIDTH 514 0
DWIDTH 5 0
BBX 5 7 0 0
BITMAP
003500
008100
196920
760490
9402C0
760390
196820
ENDCHAR
STARTCHAR ocircumflex
ENCODING 244
SWIDTH 514 0
DWIDTH 5 0
BBX 5 7 0 0
BITMAP
007100
054700
196920
760490
9402C0
760390
196820
ENDCHAR
STARTCHAR otilde
ENCODING 245
SWIDTH 514 0
DWIDTH 5 0
BBX 5 6 0 0
BITMAP
069810
196920
760490
9402C0
760390
196820
ENDCHAR
STARTCHAR odieresis
ENCODING 246
SWIDTH 514 0
DWIDTH 5 0
BBX 5 7 0 0
BITMAP
0C0A20
000000
196920
760490
9402C0
760390
196820
ENDCHAR
STARTCHAR divide
ENCODING 247
SWIDTH 720 0
DWIDTH 7 0
BBX 7 6 0 0
BITMAP
000C1000
00010000
00000000
4BBBBB60
00010000
000C1000
ENDCHAR
STARTCHAR oslash
ENCODING 248
SWIDTH 514 0
DWIDTH 5 0
BBX 5 5 0 0
BITMAP
086A40
762990
9562B0
7B1390
5A6920
ENDCHAR
STARTCHAR ugrave
ENCODING 249
SWIDTH 570 0
DWIDTH 6 0
BBX 6 7 0 0
BITMAP
025000
008100
6B07A0
1B02B0
1B02B0
1C02B0
0A97C2
ENDCHAR
STARTCHAR uacute
ENCODING 250
SWIDTH 570 0
DWIDTH 6 0
BBX 6 7 0 0
BITMAP
002600
007200
6B07A0
1B02B0
1B02B0
1C02B0
0A97C2
ENDCHAR
STARTCHAR ucircumflex
ENCODING 251
SWIDTH 570 0
DWIDTH 6 0
BBX 6 7 0 0
BITMAP
006200
045700
6B07A0
1B02B0
1B02B0
1C02B0
0A97C2
ENDCHAR
STARTCHAR udieresis
ENCODING 252
SWIDTH 570 0
DWIDTH 6 0
BBX 6 7 0 0
BITMAP
0B1840
000000
6B07A0
1B02B0
1B02B0
1C02B0
0A97C2
ENDCHAR
STARTCHAR yacute
ENCODING 253
SWIDTH 483 0
DWIDTH 5 0
BBX 6 9 -1 -2
BITMAP
000350
000810
1AA068
02C071
00A470
003C30
000A00
002600
0B9000
ENDCHAR
STARTCHAR thorn
ENCODING 254
SWIDTH 524 0
DWIDTH 5 0
BBX 5 9 0 -2
BITMAP
790000
3A0000
3B8D40
3B03B0
3A01D0
3A02A0
3D6820
3A0000
7C3000
ENDCHAR
STARTCHAR ydieresis
ENCODING 255
SWIDTH 483 0
DWIDTH 5 0
BBX 6 9 -1 -2
BITMAP
00C0A2
000000
1AA068
02C071
00A470
003C30
000A00
002600
0B9000
ENDCHAR
STARTCHAR Amacron
ENCODING 256
SWIDTH 718 0
DWIDTH 7 0
BBX 8 8 0 0
BITMAP
00888000
000C0000
004C5000
0084B000
0170D300
0776B900
08002E10
8A103EA1
ENDCHAR
STARTCHAR amacron
ENCODING 257
SWIDTH 480 0
DWIDTH 5 0
BBX 5 7 0 0
BITMAP
188600
000000
277700
330C00
066D00
850C00
6C7C40
ENDCHAR
STARTCHAR Abreve
ENCODING 258
SWIDTH 718 0
DWIDTH 7 0
BBX 8 9 0 0
BITMAP
00404000
006A7000
000C0000
004C5000
0084B000
0170D300
0776B900
08002E10
8A103EA1
ENDCHAR
STARTCHAR abreve
ENCODING 259
SWIDTH 480 0
DWIDTH 5 0
BBX 5 7 0 0
BITMAP
130400
0BE600
277700
330C00
066D00
850C00
6C7C40
ENDCHAR
STARTCHAR Aogonek
ENCODING 260
SWIDTH 719 0
DWIDTH 7 0
BBX 8 9 0 -2
BITMAP
000C0000
004C5000
0083C000
0170D300
0776A900
09001E10
8A104EA1
00046000
00059300
ENDCHAR
STARTCHAR aogonek
ENCODING 261
SWIDTH 480 0
DWIDTH 5 0
BBX 5 7 0 -2
BITMAP
277700
330C00
066D00
850C00
6C7C40
001600
003A40
ENDCHAR
STARTCHAR Cacute
ENCODING 262
SWIDTH 670 0
DWIDTH 7 0
BBX 7 9 0 0
BITMAP
00026000
00092000
03979F10
1D100810
6A000200
79000000
6A000000
1E300310
03BA9600
ENDCHAR
STARTCHAR cacute
ENCODING 263
SWIDTH 446 0
DWIDTH 4 0
BBX 5 7 0 0
BITMAP
004300
009000
176B00
730600
A20000
870210
1CB800
ENDCHAR
STARTCHAR Ccircumflex
ENCODING 264
SWIDTH 670 0
DWIDTH 7 0
BBX 7 9 0 0
BITMAP
00062000
00468100
03979F10
1D100810
6A000200
79000000
6A000000
1E300310
03BA9600
ENDCHAR
STARTCHAR ccircumflex
ENCODING 265
SWIDTH 446 0
DWIDTH 4 0
BBX 5 7 0 0
BITMAP
017000
074500
176B00
730600
A20000
870210
1CB800
ENDCHAR
STARTCHAR Cdotaccent
ENCODING 266
SWIDTH 670 0
DWIDTH 7 0
BBX 7 8 0 0
BITMAP
000A3000
03989F10
1D100810
6A000200
79000000
6A000000
1E300310
03BA9600
ENDCHAR
STARTCHAR cdotaccent
ENCODING 267
SWIDTH 446 0
DWIDTH 4 0
BBX 5 7 0 0
BITMAP
01B000
000000
176B00
730600
A20000
870210
1CB800
ENDCHAR
STARTCHAR Ccaron
ENCODING 268
SWIDTH 670 0
DWIDTH 7 0
BBX 7 9 0 0
BITMAP
00313100
001B7000
03979F10
1D100810
6A000200
79000000
6A000000
1E300310
03BA9600
ENDCHAR
STARTCHAR ccaron
ENCODING 269
SWIDTH 446 0
DWIDTH 4 0
BBX 5 7 0 0
BITMAP
040300
04B200
176B00
730600
A20000
870210
1CB800
ENDCHAR
STARTCHAR Dcaron
ENCODING 270
SWIDTH 730 0
DWIDTH 7 0
BBX 7 9 0 0
BITMAP
00404000
004C3000
3D879500
0A400C50
0A4006A0
0A4004C0
0A4005A0
0A400A40
3D868500
ENDCHAR
STARTCHAR dcaron
ENCODING 271
SWIDTH 626 0
DWIDTH 6 0
BBX 6 7 0 0
BITMAP
00097B
000678
086B70
650670
A30670
860670
2D99A1
ENDCHAR
STARTCHAR Dcroat
ENCODING 272
SWIDTH 733 0
DWIDTH 7 0
BBX 7 7 0 0
BITMAP
3D879500
0A400C50
0A4006A0
5C9705C0
0A4006A0
0A400B50
3D868500
ENDCHAR
STARTCHAR dcroat
ENCODING 273
SWIDTH 540 0
DWIDTH 5 0
BBX 6 7 0 0
BITMAP
000960
006AA1
086B70
650670
A30670
860670
2D99A1
ENDCHAR
STARTCHAR Emacron
ENCODING 274
SWIDTH 626 0
DWIDTH 6 0
BBX 6 8 0 0
BITMAP
028860
3D9789
0A4004
0A4060
0A97B0
0A4021
0A4007
3D978B
ENDCHAR
STARTCHAR emacron
ENCODING 275
SWIDTH 464 0
DWIDTH 5 0
BBX 5 7 0 0
BITMAP
088700
000000
177900
886920
A30000
790220
1BC800
ENDCHAR
STARTCHAR Ebreve
ENCODING 276
SWIDTH 626 0
DWIDTH 6 0
BBX 6 9 0 0
BITMAP
022040
009A30
3D9789
0A4004
0A4060
0A97B0
0A4021
0A4007
3D978B
ENDCHAR
STARTCHAR ebreve
ENCODING 277
SWIDTH 464 0
DWIDTH 5 0
BBX 5 7 0 0
BITMAP
040400
0AE700
177900
886920
A30000
790220
1BC800
ENDCHAR
STARTCHAR Edotaccent
ENCODING 278
SWIDTH 626 0
DWIDTH 6 0
BBX 6 8 0 0
BITMAP
004900
3D9889
0A4004
0A4060
0A97B0
0A4021
0A4007
3D978B
ENDCHAR
STARTCHAR edotaccent
ENCODING 279
SWIDTH 464 0
DWIDTH 5 0
BBX 5 7 0 0
BITMAP
01B000
000000
177900
886920
A30000
790220
1BC800
ENDCHAR
STARTCHAR Eogonek
ENCODING 280
SWIDTH 625 0
DWIDTH 6 0
BBX 6 9 0 -2
BITMAP
3D9789
0A4004
0A4060
0A97B0
0A4020
0A4006
3D978B
000070
0001B5
ENDCHAR
STARTCHAR eogonek
ENCODING 281
SWIDTH 464 0
DWIDTH 5 0
BBX 5 7 0 -2
BITMAP
177900
886920
A30000
790220
1BC700
016000
02B400
ENDCHAR
STARTCHAR Ecaron
ENCODING 282
SWIDTH 626 0
DWIDTH 6 0
BBX 6 9 0 0
BITMAP
013130
007B10
3D9789
0A4004
0A4060
0A97B0
0A4021
0A4007
3D978B
ENDCHAR
STARTCHAR ecaron
ENCODING 283
SWIDTH 464 0
DWIDTH 5 0
BBX 5 7 0 0
BITMAP
040300
04B200
177900
886920
A30000
790220
1BC800
ENDCHAR
STARTCHAR Gcircumflex
ENCODING 284
SWIDTH 720 0
DWIDTH 7 0
BBX 7 9 0 0
BITMAP
00062000
00468100
03979F10
1D100810
6A000100
79003A60
6A000B30
1D100B30
04A78910
ENDCHAR
STARTCHAR gcircumflex
ENCODING 285
SWIDTH 484 0
DWIDTH 5 0
BBX 5 9 0 -2
BITMAP
017000
074600
197E50
670C10
3A6500
340000
5EBA40
710180
7B8720
ENDCHAR
STARTCHAR Gbreve
ENCODING 286
SWIDTH 720 0
DWIDTH 7 0
BBX 7 9 0 0
BITMAP
00402200
004A9000
03979F10
1D100810
6A000100
79003A60
6A000B30
1D100B30
04A78910
ENDCHAR
STARTCHAR gbreve
ENCODING 287
SWIDTH 484 0
DWIDTH 5 0
BBX 5 9 0 -2
BITMAP
040400
0AE700
197E50
670C10
3A6500
340000
5EBA40
710180
7B8720
ENDCHAR
STARTCHAR Gdotaccent
ENCODING 288
SWIDTH 720 0
DWIDTH 7 0
BBX 7 8 0 0
BITMAP
000A3000
03989F10
1D100810
6A000100
79003A60
6A000B30
1D100B30
04A78910
ENDCHAR
STARTCHAR gdotaccent
ENCODING 289
SWIDTH 484 0
DWIDTH 5 0
BBX 5 9 0 -2
BITMAP
01B000
000000
197E50
670C10
3A6500
340000
5EBA40
710180
7B8720
ENDCHAR
STARTCHAR Gcommaaccent
ENCODING 290
SWIDTH 720 0
DWIDTH 7 0
BBX 7 11 0 -4
BITMAP
03979F10
1D100810
6A000100
79003A60
6A000B30
1D100B30
04A78910
00000000
000C2000
00071000
00010000
ENDCHAR
STARTCHAR gcommaaccent
ENCODING 291
SWIDTH 484 0
DWIDTH 5 0
BBX 5 10 0 -2
BITMAP
001000
017000
02D000
197E50
670C10
3A6500
340000
5EBA40
710180
7B8720
ENDCHAR
STARTCHAR Hcircumflex
ENCODING 292
SWIDTH 777 0
DWIDTH 8 0
BBX 8 9 0 0
BITMAP
00053000
00378100
3D912BB2
0A400770
0A400770
0A866A70
0A400770
0A400770
3D912BB2
ENDCHAR
STARTCHAR hcircumflex
ENCODING 293
SWIDTH 577 0
DWIDTH 6 0
BBX 6 9 0 0
BITMAP
006200
055800
4C0000
0C0000
0D7C60
0D02C0
0C00C0
0C00C0
4E35E3
ENDCHAR
STARTCHAR Hbar
ENCODING 294
SWIDTH 788 0
DWIDTH 8 0
BBX 8 7 0 0
BITMAP
3DA12BC2
0A500780
4C966AB3
09966A80
09400680
09500680
3C912BB2
ENDCHAR
STARTCHAR hbar
ENCODING 295
SWIDTH 579 0
DWIDTH 6 0
BBX 6 7 0 0
BITMAP
5C0000
5D6300
0D7B60
0D01C0
0C00C0
0C00C0
4E34E3
ENDCHAR
STARTCHAR Itilde
ENCODING 296
SWIDTH 357 0
DWIDTH 4 0
BBX 4 8 0 0
BITMAP
5A92
3D91
0A40
0A40
0A40
0A40
0A40
3D91
ENDCHAR
STARTCHAR itilde
ENCODING 297
SWIDTH 285 0
DWIDTH 3 0
BBX 4 7 -1 0
BITMAP
0954
1284
04C0
00C0
00C0
00C0
04E3
ENDCHAR
STARTCHAR Imacron
ENCODING 298
SWIDTH 357 0
DWIDTH 4 0
BBX 4 8 0 0
BITMAP
6882
3D91
0A40
0A40
0A40
0A40
0A40
3D91
ENDCHAR
STARTCHAR imacron
ENCODING 299
SWIDTH 285 0
DWIDTH 3 0
BBX 3 7 0 0
BITMAP
8850
0000
4C00
0C00
0C00
0C00
4E30
ENDCHAR
STARTCHAR Ibreve
ENCODING 300
SWIDTH 357 0
DWIDTH 4 0
BBX 4 9 0 0
BITMAP
4022
3A90
3D91
0A40
0A40
0A40
0A40
0A40
3D91
ENDCHAR
STARTCHAR ibreve
ENCODING 301
SWIDTH 285 0
DWIDTH 3 0
BBX 3 7 0 0
BITMAP
5050
7910
4C00
0C00
0C00
0C00
4E30
ENDCHAR
STARTCHAR Iogonek
ENCODING 302
SWIDTH 357 0
DWIDTH 4 0
BBX 4 9 0 -2
BITMAP
3D91
0A40
0A40
0A40
0A40
0A40
3D91
0700
1B50
ENDCHAR
STARTCHAR iogonek
ENCODING 303
SWIDTH 285 0
DWIDTH 3 0
BBX 3 9 0 -2
BITMAP
1D00
0100
4C00
0C00
0C00
0C00
4E30
3500
6930
ENDCHAR
STARTCHAR Idotaccent
ENCODING 304
SWIDTH 357 0
DWIDTH 4 0
BBX 4 8 0 0
BITMAP
0940
3E91
0A40
0A40
0A40
0A40
0A40
3D91
ENDCHAR
STARTCHAR dotlessi
ENCODING 305
SWIDTH 285 0
DWIDTH 3 0
BBX 3 5 0 0
BITMAP
4C00
0C00
0C00
0C00
4E30
ENDCHAR
STARTCHAR IJ
ENCODING 306
SWIDTH 753 0
DWIDTH 8 0
BBX 8 7 0 0
BITMAP
3D913CB2
0A400860
0A400860
0A400860
0A400860
0A411860
3D95A910
ENDCHAR
STARTCHAR ij
ENCODING 307
SWIDTH 548 0
DWIDTH 5 0
BBX 5 9 0 -2
BITMAP
1D03A0
010010
4C07A0
0C02A0
0C02A0
0C02A0
4E32A0
001390
01C830
ENDCHAR
STARTCHAR Jcircumflex
ENCODING 308
SWIDTH 396 0
DWIDTH 4 0
BBX 4 9 0 0
BITMAP
0170
0856
08E5
01D0
01C0
01C0
01C0
21C0
C860
ENDCHAR
STARTCHAR jcircumflex
ENCODING 309
SWIDTH 263 0
DWIDTH 3 0
BBX 4 9 -1 -2
BITMAP
0260
0754
04C0
00C0
00C0
00C0
00C0
10B0
B840
ENDCHAR
STARTCHAR Kcommaaccent
ENCODING 310
SWIDTH 702 0
DWIDTH 7 0
BBX 7 11 0 -4
BITMAP
3D919B30
0A418000
0A480000
0AC50000
0A5C4000
0A42D400
3D919E60
00000000
000D1000
00071000
00010000
ENDCHAR
STARTCHAR kcommaaccent
ENCODING 311
SWIDTH 542 0
DWIDTH 5 0
BBX 6 11 0 -4
BITMAP
4C0000
0C0000
0C1C70
0C5300
0DC100
0C4B00
4E3AB2
000000
00B400
005300
001000
ENDCHAR
STARTCHAR kgreenlandic
ENCODING 312
SWIDTH 542 0
DWIDTH 5 0
BBX 6 5 0 0
BITMAP
5C0B80
0C4500
0DC100
0C5B00
4E39B2
ENDCHAR
STARTCHAR Lacute
ENCODING 313
SWIDTH 585 0
DWIDTH 6 0
BBX 6 9 0 0
BITMAP
007200
066000
3D9100
0A4000
0A4000
0A4000
0A4000
0A4007
3DA7A7
ENDCHAR
STARTCHAR lacute
ENCODING 314
SWIDTH 283 0
DWIDTH 3 0
BBX 3 9 0 0
BITMAP
0440
2910
4C00
0C00
0C00
0C00
0C00
0C00
4E30
ENDCHAR
STARTCHAR Lcommaaccent
ENCODING 315
SWIDTH 585 0
DWIDTH 6 0
BBX 6 11 0 -4
BITMAP
3D9100
0A4000
0A4000
0A4000
0A4000
0A4007
3DA7A7
000000
009600
003500
001000
ENDCHAR
STARTCHAR lcommaaccent
ENCODING 316
SWIDTH 283 0
DWIDTH 3 0
BBX 3 10 0 -3
BITMAP
4C00
0C00
0C00
0C00
0C00
0C00
4E30
0000
2D00
0700
ENDCHAR
STARTCHAR Lcaron
ENCODING 317
SWIDTH 585 0
DWIDTH 6 0
BBX 6 7 0 0
BITMAP
3D91B1
0A4080
0A4000
0A4000
0A4000
0A4007
3DA7A7
ENDCHAR
STARTCHAR lcaron
ENCODING 318
SWIDTH 366 0
DWIDTH 4 0
BBX 4 7 0 0
BITMAP
4C66
0C61
0C00
0C00
0C00
0C00
4E30
ENDCHAR
STARTCHAR Ldot
ENCODING 319
SWIDTH 605 0
DWIDTH 6 0
BBX 6 7 0 0
BITMAP
3D9100
0A4000
0A4000
0A4094
0A4000
0A4007
3DA7A7
ENDCHAR
STARTCHAR ldot
ENCODING 320
SWIDTH 357 0
DWIDTH 4 0
BBX 4 7 0 0
BITMAP
4C00
0C00
0C00
0C39
0C00
0C00
4E30
ENDCHAR
STARTCHAR Lslash
ENCODING 321
SWIDTH 590 0
DWIDTH 6 0
BBX 6 7 0 0
BITMAP
3DA100
095000
097600
0B7000
4A4000
094007
3DA698
ENDCHAR
STARTCHAR lslash
ENCODING 322
SWIDTH 290 0
DWIDTH 3 0
BBX 3 7 0 0
BITMAP
4C00
0C00
0D50
4D00
2C00
0C00
4E30
ENDCHAR
STARTCHAR Nacute
ENCODING 323
SWIDTH 742 0
DWIDTH 7 0
BBX 8 9 0 0
BITMAP
00026000
00092000
4E501A91
0AE20440
077B0440
070A7440
0701D740
08003E40
4D300740
ENDCHAR
STARTCHAR nacute
ENCODING 324
SWIDTH 576 0
DWIDTH 6 0
BBX 6 7 0 0
BITMAP
000700
004500
5C7B60
0D01C0
0C00C0
0C00C0
4E35E3
ENDCHAR
STARTCHAR Ncommaaccent
ENCODING 325
SWIDTH 742 0
DWIDTH 7 0
BBX 8 11 0 -4
BITMAP
4E501A91
0AE20440
077B0440
070A7440
0701D740
08003E40
4D300740
00000000
000C2000
00071000
00010000
ENDCHAR
STARTCHAR ncommaaccent
ENCODING 326
SWIDTH 576 0
DWIDTH 6 0
BBX 6 9 0 -4
BITMAP
5C7B60
0D01C0
0C00C0
0C00C0
4E35E3
000000
00A500
004300
001000
ENDCHAR
STARTCHAR Ncaron
ENCODING 327
SWIDTH 742 0
DWIDTH 7 0
BBX 8 9 0 0
BITMAP
00313100
001B7000
4E501A91
0AE20440
077B0440
070A7440
0701D740
08003E40
4D300740
ENDCHAR
STARTCHAR ncaron
ENCODING 328
SWIDTH 576 0
DWIDTH 6 0
BBX 6 7 0 0
BITMAP
022220
008900
5C7B60
0D01C0
0C00C0
0C00C0
4E35E3
ENDCHAR
STARTCHAR napostrophe
ENCODING 329
SWIDTH 576 0
DWIDTH 6 0
BBX 8 7 -2 0
BITMAP
6A000000
08000000
215C7B60
000D01C0
000C00C0
000C00C0
004E35E3
ENDCHAR
STARTCHAR Eng
ENCODING 330
SWIDTH 742 0
DWIDTH 7 0
BBX 8 9 0 -2
BITMAP
4E501A91
0AE20440
077B0440
070B7440
0702E740
08005F40
4D300930
00010420
0006B700
ENDCHAR
STARTCHAR eng
ENCODING 331
SWIDTH 559 0
DWIDTH 6 0
BBX 5 7 0 -2
BITMAP
5C7B60
0D01C0
0C00C0
0C00C0
4E30C0
0011B0
00B840
ENDCHAR
STARTCHAR Omacron
ENCODING 332
SWIDTH 738 0
DWIDTH 7 0
BBX 7 8 0 0
BITMAP
00688100
03978700
1D100960
5A0004B0
790003D0
5A0004B0
1D100950
03977600
ENDCHAR
STARTCHAR omacron
ENCODING 333
SWIDTH 514 0
DWIDTH 5 0
BBX 5 7 0 0
BITMAP
078810
000000
196920
760490
9402C0
760390
196820
ENDCHAR
STARTCHAR Obreve
ENCODING 334
SWIDTH 738 0
DWIDTH 7 0
BBX 7 9 0 0
BITMAP
00403100
004A8000
03978700
1D100960
5A0004B0
790003D0
5A0004B0
1D100950
03977600
ENDCHAR
STARTCHAR obreve
ENCODING 335
SWIDTH 514 0
DWIDTH 5 0
BBX 5 7 0 0
BITMAP
040400
07EA00
196920
760490
9402C0
760390
196820
ENDCHAR
STARTCHAR Ohungarumlaut
ENCODING 336
SWIDTH 738 0
DWIDTH 7 0
BBX 7 9 0 0
BITMAP
00011100
000A8600
03A7A700
1D100960
5A0004B0
790003D0
5A0004B0
1D100950
03977600
ENDCHAR
STARTCHAR ohungarumlaut
ENCODING 337
SWIDTH 514 0
DWIDTH 5 0
BBX 5 7 0 0
BITMAP
00A850
026800
196920
760490
9402C0
760390
196820
ENDCHAR
STARTCHAR OE
ENCODING 338
SWIDTH 945 0
DWIDTH 9 0
BBX 10 7 0 0
BITMAP
0396CB67B0
1D10680040
6A00680510
79006B6C10
6A00680210
1D10680051
0396CB67D0
ENDCHAR
STARTCHAR oe
ENCODING 339
SWIDTH 807 0
DWIDTH 8 0
BBX 8 5 0 0
BITMAP
19697694
7605C677
9403B000
7604E204
19675CA2
ENDCHAR
STARTCHAR Racute
ENCODING 340
SWIDTH 659 0
DWIDTH 7 0
BBX 7 9 0 0
BITMAP
00071000
00750000
3D86A100
0A409600
0A40B400
0A9C3000
0A488000
0A41D300
3D915D30
ENDCHAR
STARTCHAR racute
ENCODING 341
SWIDTH 380 0
DWIDTH 4 0
BBX 4 7 0 0
BITMAP
0070
0550
4C89
0E11
0C00
0C00
4E40
ENDCHAR
STARTCHAR Rcommaaccent
ENCODING 342
SWIDTH 659 0
DWIDTH 7 0
BBX 7 10 0 -3
BITMAP
3D86A100
0A409600
0A40B400
0A9C3000
0A488000
0A41D300
3D915D30
00000000
003C0000
00170000
ENDCHAR
STARTCHAR rcommaaccent
ENCODING 343
SWIDTH 380 0
DWIDTH 4 0
BBX 4 9 0 -4
BITMAP
4C89
0E11
0C00
0C00
4E40
0000
0D20
0710
0100
ENDCHAR
STARTCHAR Rcaron
ENCODING 344
SWIDTH 659 0
DWIDTH 7 0
BBX 7 9 0 0
BITMAP
01313000
008A0000
3D86A100
0A409600
0A40B400
0A9C3000
0A488000
0A41D300
3D915D30
ENDCHAR
STARTCHAR rcaron
ENCODING 345
SWIDTH 380 0
DWIDTH 4 0
BBX 4 7 0 0
BITMAP
2221
0980
4C89
0E11
0C00
0C00
4E40
ENDCHAR
STARTCHAR Sacute
ENCODING 346
SWIDTH 504 0
DWIDTH 5 0
BBX 5 9 0 0
BITMAP
004400
029000
197C50
760260
4D4000
05E910
101B80
8004A0
9B7920
ENDCHAR
STARTCHAR sacute
ENCODING 347
SWIDTH 394 0
DWIDTH 4 0
BBX 4 7 0 0
BITMAP
0070
0450
4775
8603
1BC2
4069
8685
ENDCHAR
STARTCHAR Scircumflex
ENCODING 348
SWIDTH 504 0
DWIDTH 5 0
BBX 5 9 0 0
BITMAP
017000
075700
197C50
760260
4D4000
05E910
101B80
8004A0
9B7920
ENDCHAR
STARTCHAR scircumflex
ENCODING 349
SWIDTH 394 0
DWIDTH 4 0
BBX 4 7 0 0
BITMAP
0440
2762
4775
8603
1BC2
4069
8685
ENDCHAR
STARTCHAR uni015E
ENCODING 350
SWIDTH 504 0
DWIDTH 5 0
BBX 5 9 0 -2
BITMAP
197C50
760260
4D4000
05E910
101B80
8004A0
9B8920
008300
026300
ENDCHAR
STARTCHAR uni015F
ENCODING 351
SWIDTH 394 0
DWIDTH 4 0
BBX 4 7 0 -2
BITMAP
4775
8603
1BC2
4069
8885
0470
0560
ENDCHAR
STARTCHAR Scaron
ENCODING 352
SWIDTH 504 0
DWIDTH 5 0
BBX 5 9 0 0
BITMAP
040400
03C400
197C50
760260
4D4000
05E910
101B80
8004A0
9B7920
ENDCHAR
STARTCHAR scaron
ENCODING 353
SWIDTH 394 0
DWIDTH 4 0
BBX 4 7 0 0
BITMAP
2222
0990
4775
8603
1BC2
4069
8685
ENDCHAR
STARTCHAR uni0162
ENCODING 354
SWIDTH 603 0
DWIDTH 6 0
BBX 6 9 0 -2
BITMAP
B8BB7B
507706
007700
007700
007700
007700
02CB20
004700
004600
ENDCHAR
STARTCHAR uni0163
ENCODING 355
SWIDTH 315 0
DWIDTH 3 0
BBX 3 9 0 -2
BITMAP
0300
1A00
4D60
1B00
1B00
1B00
0D70
0560
0560
ENDCHAR
STARTCHAR Tcaron
ENCODING 356
SWIDTH 603 0
DWIDTH 6 0
BBX 6 9 0 0
BITMAP
022220
009A00
B8BB7B
507706
007700
007700
007700
007700
02BB20
ENDCHAR
STARTCHAR tcaron
ENCODING 357
SWIDTH 353 0
DWIDTH 4 0
BBX 4 7 0 0
BITMAP
0365
1A61
4D60
1B00
1B00
1B00
0C70
ENDCHAR
STARTCHAR Tbar
ENCODING 358
SWIDTH 603 0
DWIDTH 6 0
BBX 6 7 0 0
BITMAP
B8BB7B
607706
007700
05BB50
007700
007700
02BB20
ENDCHAR
STARTCHAR tbar
ENCODING 359
SWIDTH 328 0
DWIDTH 3 0
BBX 3 7 0 0
BITMAP
0300
1A00
4D60
4D60
1C00
1C00
0C80
ENDCHAR
STARTCHAR Utilde
ENCODING 360
SWIDTH 752 0
DWIDTH 8 0
BBX 8 8 0 0
BITMAP
00399400
4E8019B2
0C100360
0C100360
0C100360
0C200350
09600620
02BA9600
ENDCHAR
STARTCHAR utilde
ENCODING 361
SWIDTH 570 0
DWIDTH 6 0
BBX 6 6 0 0
BITMAP
059810
6B07A0
1B02B0
1B02B0
1C02B0
0A97C2
ENDCHAR
STARTCHAR Umacron
ENCODING 362
SWIDTH 752 0
DWIDTH 8 0
BBX 8 8 0 0
BITMAP
00488400
4E8019B2
0C100360
0C100360
0C100360
0C200350
09600620
02BA9600
ENDCHAR
STARTCHAR umacron
ENCODING 363
SWIDTH 570 0
DWIDTH 6 0
BBX 6 7 0 0
BITMAP
068820
000000
6B07A0
1B02B0
1B02B0
1C02B0
0A97C2
ENDCHAR
STARTCHAR Ubreve
ENCODING 364
SWIDTH 752 0
DWIDTH 8 0
BBX 8 9 0 0
BITMAP
00400400
002AA100
4E8019B2
0C100360
0C100360
0C100360
0C200350
09600620
02BA9600
ENDCHAR
STARTCHAR ubreve
ENCODING 365
SWIDTH 570 0
DWIDTH 6 0
BBX 6 7 0 0
BITMAP
041310
05EB00
6B07A0
1B02B0
1B02B0
1C02B0
0A97C2
ENDCHAR
STARTCHAR Uring
ENCODING 366
SWIDTH 752 0
DWIDTH 8 0
BBX 8 10 0 0
BITMAP
00066000
00077000
00066000
4E8019B2
0C100360
0C100360
0C100360
0C200350
09600620
02BA9600
ENDCHAR
STARTCHAR uring
ENCODING 367
SWIDTH 570 0
DWIDTH 6 0
BBX 6 8 0 0
BITMAP
017400
043700
017400
6B07A0
1B02B0
1B02B0
1C02B0
0A97C2
ENDCHAR
STARTCHAR Uhungarumlaut
ENCODING 368
SWIDTH 752 0
DWIDTH 8 0
BBX 8 9 0 0
BITMAP
00001100
00087A00
4E8229B2
0C100360
0C100360
0C100360
0C200350
09600620
02BA9600
ENDCHAR
STARTCHAR uhungarumlaut
ENCODING 369
SWIDTH 570 0
DWIDTH 6 0
BBX 6 7 0 0
BITMAP
009770
018810
6B07A0
1B02B0
1B02B0
1C02B0
0A97C2
ENDCHAR
STARTCHAR Uogonek
ENCODING 370
SWIDTH 753 0
DWIDTH 8 0
BBX 8 9 0 -2
BITMAP
4E8019B2
0C100360
0C100360
0C100360
0C200350
09600620
02BA9500
00052000
00078200
ENDCHAR
STARTCHAR uogonek
ENCODING 371
SWIDTH 570 0
DWIDTH 6 0
BBX 6 7 0 -2
BITMAP
5B07A0
1B02B0
1B02B0
1C02B0
0AA7C2
000800
000B60
ENDCHAR
STARTCHAR Wcircumflex
ENCODING 372
SWIDTH 944 0
DWIDTH 9 0
BBX 10 9 0 0
BITMAP
0000710000
0006580000
AE34E704D2
1E10960160
09608B0620
04C07D2800
00D6488700
007D03F200
0028009000
ENDCHAR
STARTCHAR wcircumflex
ENCODING 373
SWIDTH 749 0
DWIDTH 7 0
BBX 9 7 -1 0
BITMAP
0000620000
0004570000
1AA2C70B40
02B0780700
00B27C2500
006A399000
001C049000
ENDCHAR
STARTCHAR Ycircumflex
ENCODING 374
SWIDTH 647 0
DWIDTH 6 0
BBX 7 9 0 0
BITMAP
00170000
00856000
8F404C30
0A606200
02D17000
008C1000
003B0000
003B0000
018E4000
ENDCHAR
STARTCHAR ycircumflex
ENCODING 375
SWIDTH 483 0
DWIDTH 5 0
BBX 6 9 -1 -2
BITMAP
000710
005470
1AA068
02C071
00A470
003C30
000A00
002600
0B9000
ENDCHAR
STARTCHAR Ydieresis
ENCODING 376
SWIDTH 647 0
DWIDTH 6 0
BBX 7 8 0 0
BITMAP
02A0C000
8F405C30
0A606200
02D17000
008C1000
003B0000
003B0000
018E4000
ENDCHAR
STARTCHAR Zacute
ENCODING 377
SWIDTH 594 0
DWIDTH 6 0
BBX 6 9 0 0
BITMAP
000710
006500
5B77E6
5105C0
001D20
009700
04C000
1D3006
8D77A7
ENDCHAR
STARTCHAR zacute
ENCODING 378
SWIDTH 458 0
DWIDTH 5 0
BBX 5 7 0 0
BITMAP
004300
009000
777E10
309600
04B000
1C2220
8B6B30
ENDCHAR
STARTCHAR Zdotaccent
ENCODING 379
SWIDTH 594 0
DWIDTH 6 0
BBX 6 8 0 0
BITMAP
004800
5B88E6
5105C0
001D20
009700
04C000
1D3006
8D77A7
ENDCHAR
STARTCHAR zdotaccent
ENCODING 380
SWIDTH 458 0
DWIDTH 5 0
BBX 5 7 0 0
BITMAP
01B000
000000
777E10
309600
04B000
1C2220
8B6B30
ENDCHAR
STARTCHAR Zcaron
ENCODING 381
SWIDTH 594 0
DWIDTH 6 0
BBX 6 9 0 0
BITMAP
013130
008A10
5B77E6
5105C0
001D20
009700
04C000
1D3006
8D77A7
ENDCHAR
STARTCHAR zcaron
ENCODING 382
SWIDTH 458 0
DWIDTH 5 0
BBX 5 7 0 0
BITMAP
040300
04B200
777E10
309600
04B000
1C2220
8B6B30
ENDCHAR
STARTCHAR longs
ENCODING 383
SWIDTH 285 0
DWIDTH 3 0
BBX 4 7 0 0
BITMAP
0778
0C00
5D00
0C00
0C00
0D00
5E50
ENDCHAR
STARTCHAR uni0180
ENCODING 384
SWIDTH 522 0
DWIDTH 5 0
BBX 5 7 0 0
BITMAP
790000
7C6300
3B9D40
3A04B0
3901D0
3903A0
2B6820
ENDCHAR
STARTCHAR uni0188
ENCODING 392
SWIDTH 446 0
DWIDTH 4 0
BBX 6 7 0 0
BITMAP
000493
000600
176C00
730600
A20000
870210
1CB800
ENDCHAR
STARTCHAR uni0190
ENCODING 400
SWIDTH 518 0
DWIDTH 5 0
BBX 5 7 0 0
BITMAP
196B50
770370
3A0000
08B500
590000
880030
2BB930
ENDCHAR
STARTCHAR uni0192
ENCODING 402
SWIDTH 301 0
DWIDTH 3 0
BBX 5 9 -1 -2
BITMAP
007780
00C000
05D700
00C000
00C000
00C000
00C000
10B000
A75000
ENDCHAR
STARTCHAR uni0195
ENCODING 405
SWIDTH 798 0
DWIDTH 8 0
BBX 8 7 0 0
BITMAP
4C000000
0C000000
0D7C50A2
0D03A037
0C01B006
0C01C024
4E30A970
ENDCHAR
STARTCHAR uni0199
ENCODING 409
SWIDTH 538 0
DWIDTH 5 0
BBX 6 7 0 0
BITMAP
066B00
0B0000
1C1C60
1C6300
1DC100
1C4B00
5E3AA2
ENDCHAR
STARTCHAR uni019A
ENCODING 410
SWIDTH 287 0
DWIDTH 3 0
BBX 3 7 0 0
BITMAP
4C00
0C00
0C00
4D30
0C00
0C00
4E30
ENDCHAR
STARTCHAR uni019B
ENCODING 411
SWIDTH 495 0
DWIDTH 5 0
BBX 5 7 0 0
BITMAP
8B3400
06A000
009100
01C500
085700
1C0520
AA05A0
ENDCHAR
STARTCHAR uni019E
ENCODING 414
SWIDTH 559 0
DWIDTH 6 0
BBX 6 7 0 -2
BITMAP
5C7B60
0D01C0
0C00C0
0C00C0
4E30C0
0000C0
0000E3
ENDCHAR
STARTCHAR Ohorn
ENCODING 416
SWIDTH 737 0
DWIDTH 7 0
BBX 8 9 0 0
BITMAP
00000050
000000B1
0397AD30
1D100A70
6A0004C0
790003D0
6A0004B0
1D100950
03977600
ENDCHAR
STARTCHAR ohorn
ENCODING 417
SWIDTH 516 0
DWIDTH 5 0
BBX 5 7 0 0
BITMAP
000050
0000A0
196C40
760490
9402B0
760390
196820
ENDCHAR
STARTCHAR uni01A5
ENCODING 421
SWIDTH 522 0
DWIDTH 5 0
BBX 5 9 0 -2
BITMAP
067A00
190000
3B8D30
3A04B0
3901D0
3903A0
3D6820
390000
8C3000
ENDCHAR
STARTCHAR uni01AA
ENCODING 426
SWIDTH 298 0
DWIDTH 3 0
BBX 5 9 -1 -2
BITMAP
468000
61B100
15C200
00B200
00B200
00B200
00B200
00A200
0048B0
ENDCHAR
STARTCHAR uni01AB
ENCODING 427
SWIDTH 321 0
DWIDTH 3 0
BBX 4 9 0 -2
BITMAP
0300
1A00
4D60
1B00
1B00
1B00
0CA2
0051
0A60
ENDCHAR
STARTCHAR uni01AD
ENCODING 429
SWIDTH 315 0
DWIDTH 3 0
BBX 4 7 0 0
BITMAP
076B
1B00
4D60
1B00
1B00
1B00
0C70
ENDCHAR
STARTCHAR Uhorn
ENCODING 431
SWIDTH 762 0
DWIDTH 8 0
BBX 9 9 0 0
BITMAP
0000000500
0000000920
4E8019D600
0C10036000
0C10036000
0C10036000
0C20036000
0950073000
02BA970000
ENDCHAR
STARTCHAR uhorn
ENCODING 432
SWIDTH 574 0
DWIDTH 6 0
BBX 6 7 0 0
BITMAP
000005
000009
6B07B1
1B02B0
1B02B0
1C02B0
0A97C2
ENDCHAR
STARTCHAR uni01B5
ENCODING 437
SWIDTH 594 0
DWIDTH 6 0
BBX 6 7 0 0
BITMAP
5C77D7
5104C0
000C40
05AC50
03D100
0C4006
8D77A7
ENDCHAR
STARTCHAR uni01BA
ENCODING 442
SWIDTH 430 0
DWIDTH 4 0
BBX 4 7 0 -2
BITMAP
97B8
33A0
0A93
002C
0187
4622
5595
ENDCHAR
STARTCHAR uni01BB
ENCODING 443
SWIDTH 508 0
DWIDTH 5 0
BBX 5 7 0 0
BITMAP
19BA00
300A40
000A30
378B50
019000
081050
8ECD70
ENDCHAR
STARTCHAR uni01BE
ENCODING 446
SWIDTH 406 0
DWIDTH 4 0
BBX 4 7 0 0
BITMAP
0300
1B00
4E70
0682
0049
402A
8674
ENDCHAR
STARTCHAR uni01C0
ENCODING 448
SWIDTH 250 0
DWIDTH 3 0
BBX 2 7 0 0
BITMAP
2A
2A
2A
2A
2A
2A
2A
ENDCHAR
STARTCHAR uni01C1
ENCODING 449
SWIDTH 423 0
DWIDTH 4 0
BBX 4 7 0 0
BITMAP
2A66
2A66
2A66
2A66
2A66
2A66
2A66
ENDCHAR
STARTCHAR uni01C2
ENCODING 450
SWIDTH 422 0
DWIDTH 4 0
BBX 4 7 0 0
BITMAP
0480
0480
49B6
49B6
0480
0480
0480
ENDCHAR
STARTCHAR uni01C3
ENCODING 451
SWIDTH 245 0
DWIDTH 2 0
BBX 2 7 0 0
BITMAP
3A
3A
29
18
07
02
4A
ENDCHAR
STARTCHAR uni01DE
ENCODING 478
SWIDTH 718 0
DWIDTH 7 0
BBX 8 9 0 0
BITMAP
00888000
01C0B200
001C1000
004C5000
0084B000
0170D300
0776B900
08002E10
8A103EA1
ENDCHAR
STARTCHAR uni01DF
ENCODING 479
SWIDTH 480 0
DWIDTH 5 0
BBX 5 9 0 0
BITMAP
188600
000000
391B00
000000
277700
330C00
066D00
850C00
6C7C40
ENDCHAR
STARTCHAR uni01F0
ENCODING 496
SWIDTH 263 0
DWIDTH 3 0
BBX 4 9 -1 -2
BITMAP
0303
06A1
04C0
00C0
00C0
00C0
00C0
10B0
B840
ENDCHAR
STARTCHAR Aringacute
ENCODING 506
SWIDTH 718 0
DWIDTH 7 0
BBX 8 11 0 0
BITMAP
00044000
004F3000
00707000
00273000
000C0000
004C5000
0084B000
0170D300
0776B900
08002E10
8A103EA1
ENDCHAR
STARTCHAR aringacute
ENCODING 507
SWIDTH 480 0
DWIDTH 5 0
BBX 5 9 0 0
BITMAP
006200
08E100
073400
047100
277700
330C00
066D00
850C00
6C7C40
ENDCHAR
STARTCHAR AEacute
ENCODING 508
SWIDTH 894 0
DWIDTH 9 0
BBX 10 9 -1 0
BITMAP
0000003500
0000019100
0001AE77A4
00006D1013
00061D1020
001A7E7880
00710D1060
01700D1005
1A805F77A7
ENDCHAR
STARTCHAR aeacute
ENCODING 509
SWIDTH 709 0
DWIDTH 7 0
BBX 7 7 0 0
BITMAP
00062000
00280000
38796930
116D6770
392C0000
951F2040
5B76DA20
ENDCHAR
STARTCHAR Oslashacute
ENCODING 510
SWIDTH 737 0
DWIDTH 7 0
BBX 7 9 0 0
BITMAP
00035000
00191000
03978A10
1D103C50
6A0165B0
790703D0
5A6204B0
1D500950
18968600
ENDCHAR
STARTCHAR oslashacute
ENCODING 511
SWIDTH 514 0
DWIDTH 5 0
BBX 5 7 0 0
BITMAP
004300
009000
086A40
762990
9562B0
7B1390
5A6920
ENDCHAR
STARTCHAR uni0218
ENCODING 536
SWIDTH 504 0
DWIDTH 5 0
BBX 5 10 0 -3
BITMAP
197C50
760260
4D4000
05E910
101B80
8004A0
9B7920
000000
01D100
007000
ENDCHAR
STARTCHAR uni0219
ENCODING 537
SWIDTH 394 0
DWIDTH 4 0
BBX 4 9 0 -4
BITMAP
4775
8603
1BC2
4069
8685
0000
0870
0350
0100
ENDCHAR
STARTCHAR uni021A
ENCODING 538
SWIDTH 603 0
DWIDTH 6 0
BBX 6 11 0 -4
BITMAP
B8BB7B
507706
007700
007700
007700
007700
02BB20
000000
007800
002600
001000
ENDCHAR
STARTCHAR uni021B
ENCODING 539
SWIDTH 315 0
DWIDTH 3 0
BBX 3 11 0 -4
BITMAP
0300
1A00
4D60
1B00
1B00
1B00
0C70
0000
0960
0440
0100
ENDCHAR
STARTCHAR uni0221
ENCODING 545
SWIDTH 674 0
DWIDTH 7 0
BBX 7 9 0 -2
BITMAP
00097000
00067000
086B7000
65067000
A3067000
86067440
2DA7B650
00015000
00020000
ENDCHAR
STARTCHAR uni0228
ENCODING 552
SWIDTH 626 0
DWIDTH 6 0
BBX 6 9 0 -2
BITMAP
3D9789
0A4004
0A4060
0A97B0
0A4021
0A4007
3D988B
002810
003710
ENDCHAR
STARTCHAR uni0229
ENCODING 553
SWIDTH 464 0
DWIDTH 5 0
BBX 5 7 0 -2
BITMAP
177900
886920
A30000
790220
1BD800
008200
027200
ENDCHAR
STARTCHAR uni0234
ENCODING 564
SWIDTH 399 0
DWIDTH 4 0
BBX 4 9 0 -2
BITMAP
7900
3900
3900
3900
3900
3946
1B76
0600
1200
ENDCHAR
STARTCHAR uni0235
ENCODING 565
SWIDTH 702 0
DWIDTH 7 0
BBX 7 7 0 -2
BITMAP
4C6B5000
0D03A000
0C02B000
0C02B350
4E30B760
00006000
00002000
ENDCHAR
STARTCHAR uni0236
ENCODING 566
SWIDTH 406 0
DWIDTH 4 0
BBX 4 9 0 -2
BITMAP
0300
1A00
4D60
1B00
1B00
1B35
0B86
0600
0200
ENDCHAR
STARTCHAR uni0237
ENCODING 567
SWIDTH 263 0
DWIDTH 3 0
BBX 3 7 -1 -2
BITMAP
04C0
00C0
00C0
00C0
00C0
10B0
B840
ENDCHAR
STARTCHAR uni0250
ENCODING 592
SWIDTH 475 0
DWIDTH 5 0
BBX 5 5 0 0
BITMAP
8A8D20
1B0940
1C6500
1B0510
095900
ENDCHAR
STARTCHAR uni0251
ENCODING 593
SWIDTH 542 0
DWIDTH 5 0
BBX 5 5 0 0
BITMAP
086A60
650660
A30660
860660
2D99A0
ENDCHAR
STARTCHAR uni0252
ENCODING 594
SWIDTH 544 0
DWIDTH 5 0
BBX 6 5 0 0
BITMAP
4D8C60
0D01D0
0C00C1
0D00B0
0D7730
ENDCHAR
STARTCHAR uni0253
ENCODING 595
SWIDTH 518 0
DWIDTH 5 0
BBX 5 7 0 0
BITMAP
077A00
290000
3A9D30
4A04A0
4902C0
490490
2B6810
ENDCHAR
STARTCHAR uni0254
ENCODING 596
SWIDTH 454 0
DWIDTH 5 0
BBX 5 5 0 0
BITMAP
2AD600
301D00
000A20
420A00
5A5500
ENDCHAR
STARTCHAR uni0255
ENCODING 597
SWIDTH 447 0
DWIDTH 4 0
BBX 4 7 0 -2
BITMAP
176B
7307
A300
8656
1CA8
0600
0100
ENDCHAR
STARTCHAR uni0256
ENCODING 598
SWIDTH 528 0
DWIDTH 5 0
BBX 7 9 0 -2
BITMAP
00097000
00067000
086B7000
65067000
A3067000
86067000
2DA97000
00057000
00019A30
ENDCHAR
STARTCHAR uni0257
ENCODING 599
SWIDTH 542 0
DWIDTH 5 0
BBX 7 7 0 0
BITMAP
00018950
00056000
086B6000
65066000
A3066000
86066000
2D99A100
ENDCHAR
STARTCHAR uni0258
ENCODING 600
SWIDTH 466 0
DWIDTH 5 0
BBX 5 5 0 0
BITMAP
286700
686B30
000840
401D20
2AD700
ENDCHAR
STARTCHAR uni0259
ENCODING 601
SWIDTH 464 0
DWIDTH 5 0
BBX 5 5 0 0
BITMAP
3AD700
200C20
676B40
760A20
196700
ENDCHAR
STARTCHAR uni025A
ENCODING 602
SWIDTH 642 0
DWIDTH 6 0
BBX 7 5 0 0
BITMAP
3AD91100
100C6820
676B4000
76091000
19660000
ENDCHAR
STARTCHAR uni025B
ENCODING 603
SWIDTH 399 0
DWIDTH 4 0
BBX 4 5 0 0
BITMAP
3987
7502
1B60
8400
4B85
ENDCHAR
STARTCHAR uni025C
ENCODING 604
SWIDTH 398 0
DWIDTH 4 0
BBX 4 5 0 0
BITMAP
7893
2067
07C1
0058
58A4
ENDCHAR
STARTCHAR uni025D
ENCODING 605
SWIDTH 575 0
DWIDTH 6 0
BBX 6 5 0 0
BITMAP
779521
004485
07D400
005900
58A300
ENDCHAR
STARTCHAR uni025E
ENCODING 606
SWIDTH 500 0
DWIDTH 5 0
BBX 5 5 0 0
BITMAP
186830
760570
936B10
750480
086A50
ENDCHAR
STARTCHAR uni025F
ENCODING 607
SWIDTH 272 0
DWIDTH 3 0
BBX 4 7 -1 -2
BITMAP
05D0
00C0
05E4
00C0
00C0
10B0
B850
ENDCHAR
STARTCHAR uni0260
ENCODING 608
SWIDTH 541 0
DWIDTH 5 0
BBX 7 9 0 -2
BITMAP
00017870
00056000
087C6000
75076000
A3066000
87066000
2CAA6000
00075000
4A570000
ENDCHAR
STARTCHAR uni0261
ENCODING 609
SWIDTH 521 0
DWIDTH 5 0
BBX 5 7 0 -2
BITMAP
087A60
750760
A30660
870660
2CAA60
000740
4A5700
ENDCHAR
STARTCHAR uni0262
ENCODING 610
SWIDTH 535 0
DWIDTH 5 0
BBX 6 5 0 0
BITMAP
1868A0
760050
940581
7702A0
196760
ENDCHAR
STARTCHAR uni0263
ENCODING 611
SWIDTH 479 0
DWIDTH 5 0
BBX 6 7 -1 -2
BITMAP
1AA069
02C071
00B370
005C20
001E00
005850
005840
ENDCHAR
STARTCHAR uni0264
ENCODING 612
SWIDTH 466 0
DWIDTH 5 0
BBX 5 5 0 0
BITMAP
A79860
35A320
064900
062A00
078500
ENDCHAR
STARTCHAR uni0265
ENCODING 613
SWIDTH 553 0
DWIDTH 6 0
BBX 6 7 0 -2
BITMAP
6B05B0
1B01B0
1B01B0
1C02B0
0AA7B0
0001B0
0001D2
ENDCHAR
STARTCHAR uni0266
ENCODING 614
SWIDTH 577 0
DWIDTH 6 0
BBX 6 7 0 0
BITMAP
056B10
0B0000
0D7C60
0D02C0
0C00C0
0C00C0
4E35E3
ENDCHAR
STARTCHAR uni0267
ENCODING 615
SWIDTH 562 0
DWIDTH 6 0
BBX 5 9 0 -2
BITMAP
056B10
0B0000
0D7C60
0D02C0
0C00C0
0C00C0
4E30C0
0010B0
00B840
ENDCHAR
STARTCHAR uni0268
ENCODING 616
SWIDTH 295 0
DWIDTH 3 0
BBX 3 7 0 0
BITMAP
0D00
0100
4D00
0D00
3D30
0D00
3E30
ENDCHAR
STARTCHAR uni0269
ENCODING 617
SWIDTH 286 0
DWIDTH 3 0
BBX 3 5 0 0
BITMAP
6B00
1B00
1B00
1B00
0C70
ENDCHAR
STARTCHAR uni026A
ENCODING 618
SWIDTH 287 0
DWIDTH 3 0
BBX 3 5 0 0
BITMAP
4E30
0C00
0C00
0C00
4E30
ENDCHAR
STARTCHAR uni026B
ENCODING 619
SWIDTH 290 0
DWIDTH 3 0
BBX 3 7 0 0
BITMAP
3C00
0C00
6D30
3E60
0C00
0C00
4E30
ENDCHAR
STARTCHAR uni026C
ENCODING 620
SWIDTH 318 0
DWIDTH 3 0
BBX 4 7 0 0
BITMAP
2C20
0A20
8C20
AB71
3C30
0A20
2D70
ENDCHAR
STARTCHAR uni026D
ENCODING 621
SWIDTH 248 0
DWIDTH 2 0
BBX 4 9 0 -2
BITMAP
7900
3900
3900
3900
3900
3900
3900
2A01
08A6
ENDCHAR
STARTCHAR uni026E
ENCODING 622
SWIDTH 590 0
DWIDTH 6 0
BBX 6 9 0 -2
BITMAP
4C0000
0C0000
0E77C6
0C03C0
0C0C20
0C2881
4E3059
001049
02B581
ENDCHAR
STARTCHAR uni026F
ENCODING 623
SWIDTH 846 0
DWIDTH 8 0
BBX 9 5 0 0
BITMAP
6B08909700
1B04906700
1B04906700
1C04906700
0B86B78A10
ENDCHAR
STARTCHAR uni0270
ENCODING 624
SWIDTH 826 0
DWIDTH 8 0
BBX 9 7 0 -2
BITMAP
6B08909700
1B04906700
1B04906700
1C04906700
0B96C99700
0000005700
0000005A10
ENDCHAR
STARTCHAR uni0271
ENCODING 625
SWIDTH 835 0
DWIDTH 8 0
BBX 8 7 0 -2
BITMAP
5C7B78C4
0D02C058
0C01B048
0C01B048
4E36D248
00000147
00002C82
ENDCHAR
STARTCHAR uni0272
ENCODING 626
SWIDTH 574 0
DWIDTH 6 0
BBX 7 7 -1 -2
BITMAP
04C6B600
00D02B00
00C01C00
00C01C00
00C05E20
10B00000
B8400000
ENDCHAR
STARTCHAR uni0273
ENCODING 627
SWIDTH 563 0
DWIDTH 6 0
BBX 7 7 0 -2
BITMAP
5C7B6000
0D01C000
0C00C000
0C00C000
4E30C000
0000B010
00007980
ENDCHAR
STARTCHAR uni0274
ENCODING 628
SWIDTH 568 0
DWIDTH 6 0
BBX 6 5 0 0
BITMAP
6E12C3
1AB060
158860
150BA0
6A01A0
ENDCHAR
STARTCHAR uni0275
ENCODING 629
SWIDTH 514 0
DWIDTH 5 0
BBX 5 5 0 0
BITMAP
196920
760490
9867C0
760390
196920
ENDCHAR
STARTCHAR uni0276
ENCODING 630
SWIDTH 732 0
DWIDTH 7 0
BBX 7 5 0 0
BITMAP
197C9790
77084230
95088920
76084020
196C86A0
ENDCHAR
STARTCHAR uni0277
ENCODING 631
SWIDTH 672 0
DWIDTH 7 0
BBX 7 5 0 0
BITMAP
06768300
48020B10
942D0950
850A0A40
2A657900
ENDCHAR
STARTCHAR uni0278
ENCODING 632
SWIDTH 658 0
DWIDTH 7 0
BBX 7 9 0 -2
BITMAP
006A0000
002A0000
087C8500
772A0D10
942A0B30
772A0C10
197C7500
002A0000
006D2000
ENDCHAR
STARTCHAR uni0279
ENCODING 633
SWIDTH 380 0
DWIDTH 4 0
BBX 4 5 0 0
BITMAP
06E3
01C0
01C0
13C0
C6D2
ENDCHAR
STARTCHAR uni027A
ENCODING 634
SWIDTH 374 0
DWIDTH 4 0
BBX 4 7 0 0
BITMAP
05B0
01C0
01C0
01C0
01C0
12C0
C6D2
ENDCHAR
STARTCHAR uni027B
ENCODING 635
SWIDTH 375 0
DWIDTH 4 0
BBX 5 7 0 -2
BITMAP
06D300
01C000
01C000
13C000
C6C000
00B010
007980
ENDCHAR
STARTCHAR uni027C
ENCODING 636
SWIDTH 378 0
DWIDTH 4 0
BBX 4 7 0 -2
BITMAP
4C99
0E11
0C00
0C00
0C00
0C00
4E40
ENDCHAR
STARTCHAR uni027D
ENCODING 637
SWIDTH 373 0
DWIDTH 4 0
BBX 4 7 0 -2
BITMAP
5B98
1D00
1C00
1C00
1C00
0B01
0797
ENDCHAR
STARTCHAR uni027E
ENCODING 638
SWIDTH 371 0
DWIDTH 4 0
BBX 4 5 0 0
BITMAP
0687
0B00
1C00
1C00
5E40
ENDCHAR
STARTCHAR uni027F
ENCODING 639
SWIDTH 371 0
DWIDTH 4 0
BBX 4 5 0 0
BITMAP
B730
01A0
01B0
01C0
07D2
ENDCHAR
STARTCHAR uni0280
ENCODING 640
SWIDTH 494 0
DWIDTH 5 0
BBX 5 5 0 0
BITMAP
3E6A10
0C0A20
0DA600
0C3B00
4E2980
ENDCHAR
STARTCHAR uni0281
ENCODING 641
SWIDTH 494 0
DWIDTH 5 0
BBX 5 5 0 0
BITMAP
4E2980
0C3B00
0DA500
0C0A20
3E6A10
ENDCHAR
STARTCHAR uni0282
ENCODING 642
SWIDTH 395 0
DWIDTH 4 0
BBX 4 7 0 -2
BITMAP
4775
8603
1BC2
4069
8685
6000
4760
ENDCHAR
STARTCHAR uni0283
ENCODING 643
SWIDTH 253 0
DWIDTH 3 0
BBX 5 9 -1 -2
BITMAP
007870
01A000
02A000
02A000
02A000
02A000
02A000
029000
B74000
ENDCHAR
STARTCHAR uni0284
ENCODING 644
SWIDTH 286 0
DWIDTH 3 0
BBX 5 9 -1 -2
BITMAP
006670
00B000
00D000
00D000
00D000
00D000
04E300
00C000
865000
ENDCHAR
STARTCHAR uni0285
ENCODING 645
SWIDTH 361 0
DWIDTH 4 0
BBX 5 7 0 -2
BITMAP
A74000
01A000
01C000
01C000
01C000
00B010
007870
ENDCHAR
STARTCHAR uni0286
ENCODING 646
SWIDTH 253 0
DWIDTH 3 0
BBX 5 9 -1 -2
BITMAP
007970
01A010
02A000
02A000
02A000
02A000
02A000
58C100
785100
ENDCHAR
STARTCHAR uni0287
ENCODING 647
SWIDTH 315 0
DWIDTH 3 0
BBX 3 7 0 -2
BITMAP
6D10
0930
0940
0940
5B70
0930
0300
ENDCHAR
STARTCHAR uni0288
ENCODING 648
SWIDTH 309 0
DWIDTH 3 0
BBX 4 9 0 -2
BITMAP
0300
1A00
4D60
1C00
1C00
1C00
1C00
0C01
0798
ENDCHAR
STARTCHAR uni0289
ENCODING 649
SWIDTH 580 0
DWIDTH 6 0
BBX 6 5 0 0
BITMAP
6C07B0
1C01B0
4D56D2
0D01B0
0A96D2
ENDCHAR
STARTCHAR uni028A
ENCODING 650
SWIDTH 548 0
DWIDTH 5 0
BBX 5 5 0 0
BITMAP
2B1860
3801A0
8600D0
7600D0
186740
ENDCHAR
STARTCHAR uni028B
ENCODING 651
SWIDTH 530 0
DWIDTH 5 0
BBX 5 5 0 0
BITMAP
5B0670
1B00A0
1B0070
1C0060
099810
ENDCHAR
STARTCHAR uni028C
ENCODING 652
SWIDTH 495 0
DWIDTH 5 0
BBX 5 5 0 0
BITMAP
00C000
05B400
074A00
250D10
A50B90
ENDCHAR
STARTCHAR uni028D
ENCODING 653
SWIDTH 764 0
DWIDTH 8 0
BBX 8 5 0 0
BITMAP
01C04900
05B36D00
07595950
260E13B0
A51C72E5
ENDCHAR
STARTCHAR uni028E
ENCODING 654
SWIDTH 492 0
DWIDTH 5 0
BBX 5 7 0 0
BITMAP
001AA0
007100
00A000
05C100
076800
260D10
A51B90
ENDCHAR
STARTCHAR uni028F
ENCODING 655
SWIDTH 454 0
DWIDTH 5 0
BBX 6 5 -1 0
BITMAP
1B9084
01C160
006B10
001B00
005D20
ENDCHAR
STARTCHAR uni0290
ENCODING 656
SWIDTH 458 0
DWIDTH 5 0
BBX 6 7 0 -2
BITMAP
777E10
309600
04B000
1C2220
8B6B30
000420
000179
ENDCHAR
STARTCHAR uni0291
ENCODING 657
SWIDTH 458 0
DWIDTH 5 0
BBX 5 7 0 -2
BITMAP
777E10
309600
04B000
1C4630
8BA640
052000
030000
ENDCHAR
STARTCHAR uni0292
ENCODING 658
SWIDTH 443 0
DWIDTH 4 0
BBX 5 7 0 -2
BITMAP
888D10
30B400
078000
038800
000B30
300B20
886600
ENDCHAR
STARTCHAR uni0293
ENCODING 659
SWIDTH 443 0
DWIDTH 4 0
BBX 5 9 0 -4
BITMAP
878E10
30A500
059000
059500
000D20
470B20
47B800
004300
000300
ENDCHAR
STARTCHAR uni0294
ENCODING 660
SWIDTH 383 0
DWIDTH 4 0
BBX 4 7 0 0
BITMAP
5675
502B
0049
0481
0C00
0C00
4E40
ENDCHAR
STARTCHAR uni0295
ENCODING 661
SWIDTH 383 0
DWIDTH 4 0
BBX 4 7 0 0
BITMAP
5684
D024
C100
3830
00C0
00C0
05E3
ENDCHAR
STARTCHAR uni0296
ENCODING 662
SWIDTH 408 0
DWIDTH 4 0
BBX 4 7 0 0
BITMAP
3D00
0D00
0D00
0481
0049
502B
6674
ENDCHAR
STARTCHAR uni0297
ENCODING 663
SWIDTH 437 0
DWIDTH 4 0
BBX 5 7 0 -2
BITMAP
077B00
460610
930000
A20000
840000
5A0310
08B600
ENDCHAR
STARTCHAR uni0298
ENCODING 664
SWIDTH 736 0
DWIDTH 7 0
BBX 7 7 0 0
BITMAP
03757700
2B000670
860001D0
A40D30E0
860201D0
2B000760
03756600
ENDCHAR
STARTCHAR uni0299
ENCODING 665
SWIDTH 485 0
DWIDTH 5 0
BBX 5 5 0 0
BITMAP
4E6A10
0C0B30
0D7A10
0C0860
4D4930
ENDCHAR
STARTCHAR uni029A
ENCODING 666
SWIDTH 500 0
DWIDTH 5 0
BBX 5 5 0 0
BITMAP
396800
750670
1B6390
940570
5A6800
ENDCHAR
STARTCHAR uni029B
ENCODING 667
SWIDTH 536 0
DWIDTH 5 0
BBX 7 7 0 0
BITMAP
00005930
00006000
1867A000
76003000
95058100
7702A000
19676000
ENDCHAR
STARTCHAR uni029C
ENCODING 668
SWIDTH 599 0
DWIDTH 6 0
BBX 6 5 0 0
BITMAP
4E33E4
0C00C0
0D55D0
0C00C0
4E33E4
ENDCHAR
STARTCHAR uni029D
ENCODING 669
SWIDTH 263 0
DWIDTH 3 0
BBX 4 9 -1 -2
BITMAP
01C0
0010
05C0
00C0
00C0
00C0
00C0
36E3
6771
ENDCHAR
STARTCHAR uni029E
ENCODING 670
SWIDTH 542 0
DWIDTH 5 0
BBX 6 7 0 -2
BITMAP
7E2AA1
069660
009C60
007760
3B4660
000660
0006A1
ENDCHAR
STARTCHAR uni029F
ENCODING 671
SWIDTH 440 0
DWIDTH 4 0
BBX 5 5 0 0
BITMAP
5D2000
1B0000
1B0000
1B0120
5D4920
ENDCHAR
STARTCHAR uni02A0
ENCODING 672
SWIDTH 541 0
DWIDTH 5 0
BBX 7 9 0 -2
BITMAP
00018980
00056000
087C6000
75076000
A3066000
87066000
2CAA6000
00066000
002AA000
ENDCHAR
STARTCHAR uni02A1
ENCODING 673
SWIDTH 393 0
DWIDTH 4 0
BBX 4 7 0 0
BITMAP
5776
301C
0058
0950
4D60
0D00
4F40
ENDCHAR
STARTCHAR uni02A2
ENCODING 674
SWIDTH 393 0
DWIDTH 4 0
BBX 4 7 0 0
BITMAP
6685
D013
9300
0580
16D4
00D0
05E3
ENDCHAR
STARTCHAR uni02A3
ENCODING 675
SWIDTH 830 0
DWIDTH 8 0
BBX 8 7 0 0
BITMAP
00097000
00067000
087CA69C
650670C3
A3067880
86069C04
2DA9F97C
ENDCHAR
STARTCHAR uni02A4
ENCODING 676
SWIDTH 838 0
DWIDTH 8 0
BBX 9 9 0 -2
BITMAP
0009700000
0006700000
087CA79E00
650670B500
A30676A000
8606769500
2D99A10D10
0000100C10
0000966500
ENDCHAR
STARTCHAR uni02A5
ENCODING 677
SWIDTH 829 0
DWIDTH 8 0
BBX 9 9 0 -2
BITMAP
0009700000
0006700000
087CA69C00
650670C300
A306788000
86069C4600
2DA9F99710
0000060000
0000030000
ENDCHAR
STARTCHAR uni02A6
ENCODING 678
SWIDTH 614 0
DWIDTH 6 0
BBX 6 7 0 0
BITMAP
030000
1A0000
4D9A78
1B5903
1B08D3
1C003C
087675
ENDCHAR
STARTCHAR uni02A7
ENCODING 679
SWIDTH 513 0
DWIDTH 5 0
BBX 7 9 0 -2
BITMAP
00028B10
19084000
4D7B4000
1B084000
1B084000
1B084000
0C784000
00083000
04980000
ENDCHAR
STARTCHAR uni02A8
ENCODING 680
SWIDTH 687 0
DWIDTH 7 0
BBX 7 7 0 0
BITMAP
03000000
1A000000
4D656B40
1B190330
1B380000
1B2C4630
0C68A740
ENDCHAR
STARTCHAR uni02A9
ENCODING 681
SWIDTH 866 0
DWIDTH 9 0
BBX 8 9 0 -2
BITMAP
06790000
0C000000
5E77D6B7
0C00D00C
0C00C00C
0D00C00C
5E53E30C
0000010B
00000A85
ENDCHAR
STARTCHAR uni02AA
ENCODING 682
SWIDTH 595 0
DWIDTH 6 0
BBX 6 7 0 0
BITMAP
790000
390000
393776
397703
391AC2
3A0069
096684
ENDCHAR
STARTCHAR uni02AB
ENCODING 683
SWIDTH 580 0
DWIDTH 6 0
BBX 6 7 0 0
BITMAP
4C0000
0C0000
0E66E3
0C0590
0C1C10
0C9604
4EE6A5
ENDCHAR
STARTCHAR uni02AC
ENCODING 684
SWIDTH 599 0
DWIDTH 6 0
BBX 6 7 0 0
BITMAP
877828
0B4B51
076770
656526
384923
0B5A60
076670
ENDCHAR
STARTCHAR uni02AD
ENCODING 685
SWIDTH 479 0
DWIDTH 5 0
BBX 5 7 0 0
BITMAP
4CBD10
440710
440710
220310
4CBC10
440710
440710
ENDCHAR
STARTCHAR uni02AE
ENCODING 686
SWIDTH 595 0
DWIDTH 6 0
BBX 7 7 -1 -2
BITMAP
39702C20
00920A20
00930A20
00850B20
004C7C20
00000A20
00000A70
ENDCHAR
STARTCHAR uni02AF
ENCODING 687
SWIDTH 600 0
DWIDTH 6 0
BBX 8 7 -1 -2
BITMAP
39702C20
00920A20
00930A20
00850B20
004C7C20
00000931
0000038C
ENDCHAR
STARTCHAR uni02B0
ENCODING 688
SWIDTH 488 0
DWIDTH 5 0
BBX 5 6 0 3
BITMAP
680000
280000
2B9A00
290B00
280A10
6B2C50
ENDCHAR
STARTCHAR uni02B1
ENCODING 689
SWIDTH 488 0
DWIDTH 5 0
BBX 5 7 0 3
BITMAP
037300
181400
280000
2B9A00
290B00
280A10
6B2C50
ENDCHAR
STARTCHAR uni02B2
ENCODING 690
SWIDTH 222 0
DWIDTH 2 0
BBX 3 8 -1 1
BITMAP
0380
0000
0590
0290
0290
0290
0280
8830
ENDCHAR
STARTCHAR uni02B3
ENCODING 691
SWIDTH 325 0
DWIDTH 3 0
BBX 4 4 0 3
BITMAP
5AB1
2900
2800
6B10
ENDCHAR
STARTCHAR uni02B4
ENCODING 692
SWIDTH 325 0
DWIDTH 3 0
BBX 4 4 0 3
BITMAP
07B1
0280
0380
98B1
ENDCHAR
STARTCHAR uni02B5
ENCODING 693
SWIDTH 325 0
DWIDTH 3 0
BBX 4 6 0 1
BITMAP
07C1
0280
0380
9880
0182
0047
ENDCHAR
STARTCHAR uni02B6
ENCODING 694
SWIDTH 443 0
DWIDTH 4 0
BBX 5 4 0 3
BITMAP
5B5A20
2BB200
292900
5B8600
ENDCHAR
STARTCHAR uni02B7
ENCODING 695
SWIDTH 653 0
DWIDTH 7 0
BBX 7 4 0 3
BITMAP
A74C0A30
291D1600
0B667400
0581C000
ENDCHAR
STARTCHAR uni02B8
ENCODING 696
SWIDTH 427 0
DWIDTH 4 0
BBX 5 6 0 1
BITMAP
A81A10
2B1500
0A6100
049000
034000
980000
ENDCHAR
STARTCHAR uni02B9
ENCODING 697
SWIDTH 296 0
DWIDTH 3 0
BBX 3 3 0 4
BITMAP
0930
0B00
3500
ENDCHAR
STARTCHAR uni02BA
ENCODING 698
SWIDTH 456 0
DWIDTH 5 0
BBX 4 3 0 4
BITMAP
094B
0B56
3570
ENDCHAR
STARTCHAR uni02BB
ENCODING 699
SWIDTH 245 0
DWIDTH 2 0
BBX 2 3 0 5
BITMAP
03
34
4C
ENDCHAR
STARTCHAR uni02BC
ENCODING 700
SWIDTH 244 0
DWIDTH 2 0
BBX 2 3 0 4
BITMAP
5A
07
20
ENDCHAR
STARTCHAR uni02BD
ENCODING 701
SWIDTH 244 0
DWIDTH 2 0
BBX 2 3 0 4
BITMAP
4C
44
03
ENDCHAR
STARTCHAR uni02BE
ENCODING 702
SWIDTH 203 0
DWIDTH 2 0
BBX 2 3 0 5
BITMAP
65
09
65
ENDCHAR
STARTCHAR uni02BF
ENCODING 703
SWIDTH 203 0
DWIDTH 2 0
BBX 2 3 0 5
BITMAP
56
80
46
ENDCHAR
STARTCHAR uni02C0
ENCODING 704
SWIDTH 364 0
DWIDTH 4 0
BBX 4 4 0 4
BITMAP
2650
4183
00A2
0A20
ENDCHAR
STARTCHAR uni02C1
ENCODING 705
SWIDTH 364 0
DWIDTH 4 0
BBX 4 4 0 4
BITMAP
1560
9341
6600
0570
ENDCHAR
STARTCHAR uni02C2
ENCODING 706
SWIDTH 324 0
DWIDTH 3 0
BBX 3 4 0 4
BITMAP
0050
3830
3930
0050
ENDCHAR
STARTCHAR uni02C3
ENCODING 707
SWIDTH 324 0
DWIDTH 3 0
BBX 3 4 0 4
BITMAP
4100
1850
1850
4100
ENDCHAR
STARTCHAR uni02C4
ENCODING 708
SWIDTH 324 0
DWIDTH 3 0
BBX 4 3 0 5
BITMAP
0400
2A50
9081
ENDCHAR
STARTCHAR uni02C5
ENCODING 709
SWIDTH 324 0
DWIDTH 3 0
BBX 4 3 0 5
BITMAP
4041
6380
0B20
ENDCHAR
STARTCHAR circumflex
ENCODING 710
SWIDTH 342 0
DWIDTH 3 0
BBX 3 2 0 5
BITMAP
0620
4580
ENDCHAR
STARTCHAR caron
ENCODING 711
SWIDTH 342 0
DWIDTH 3 0
BBX 3 2 0 5
BITMAP
3030
1A60
ENDCHAR
STARTCHAR uni02C8
ENCODING 712
SWIDTH 284 0
DWIDTH 3 0
BBX 1 3 1 5
BITMAP
50
60
60
ENDCHAR
STARTCHAR uni02C9
ENCODING 713
SWIDTH 350 0
DWIDTH 4 0
BBX 4 1 0 6
BITMAP
6882
ENDCHAR
STARTCHAR uni02CA
ENCODING 714
SWIDTH 222 0
DWIDTH 2 0
BBX 2 2 0 5
BITMAP
16
63
ENDCHAR
STARTCHAR uni02CB
ENCODING 715
SWIDTH 222 0
DWIDTH 2 0
BBX 2 2 0 5
BITMAP
53
18
ENDCHAR
STARTCHAR uni02CC
ENCODING 716
SWIDTH 284 0
DWIDTH 3 0
BBX 1 3 1 -2
BITMAP
50
60
60
ENDCHAR
STARTCHAR uni02CD
ENCODING 717
SWIDTH 342 0
DWIDTH 3 0
BBX 4 1 0 -2
BITMAP
8993
ENDCHAR
STARTCHAR uni02CE
ENCODING 718
SWIDTH 222 0
DWIDTH 2 0
BBX 2 2 0 -2
BITMAP
53
18
ENDCHAR
STARTCHAR uni02CF
ENCODING 719
SWIDTH 223 0
DWIDTH 2 0
BBX 2 2 0 -2
BITMAP
16
63
ENDCHAR
STARTCHAR uni02D0
ENCODING 720
SWIDTH 341 0
DWIDTH 3 0
BBX 2 5 1 0
BITMAP
C5
A1
00
81
E5
ENDCHAR
STARTCHAR uni02D1
ENCODING 721
SWIDTH 341 0
DWIDTH 3 0
BBX 2 2 1 3
BITMAP
C5
A1
ENDCHAR
STARTCHAR uni02D2
ENCODING 722
SWIDTH 341 0
DWIDTH 3 0
BBX 3 3 0 1
BITMAP
2930
0090
2930
ENDCHAR
STARTCHAR uni02D3
ENCODING 723
SWIDTH 341 0
DWIDTH 3 0
BBX 3 3 0 1
BITMAP
0860
4600
0860
ENDCHAR
STARTCHAR uni02D4
ENCODING 724
SWIDTH 341 0
DWIDTH 3 0
BBX 3 3 0 1
BITMAP
0200
0600
3860
ENDCHAR
STARTCHAR uni02D5
ENCODING 725
SWIDTH 341 0
DWIDTH 3 0
BBX 3 3 0 1
BITMAP
3860
0600
0100
ENDCHAR
STARTCHAR uni02D6
ENCODING 726
SWIDTH 341 0
DWIDTH 3 0
BBX 3 2 0 2
BITMAP
2940
0600
ENDCHAR
STARTCHAR uni02D7
ENCODING 727
SWIDTH 341 0
DWIDTH 3 0
BBX 3 1 0 2
BITMAP
2640
ENDCHAR
STARTCHAR breve
ENCODING 728
SWIDTH 353 0
DWIDTH 4 0
BBX 4 2 0 5
BITMAP
4131
5EC0
ENDCHAR
STARTCHAR dotaccent
ENCODING 729
SWIDTH 194 0
DWIDTH 2 0
BBX 2 1 0 6
BITMAP
76
ENDCHAR
STARTCHAR ring
ENCODING 730
SWIDTH 265 0
DWIDTH 3 0
BBX 3 3 0 5
BITMAP
4710
7250
4710
ENDCHAR
STARTCHAR ogonek
ENCODING 731
SWIDTH 277 0
DWIDTH 3 0
BBX 3 3 0 -2
BITMAP
1400
9100
5820
ENDCHAR
STARTCHAR tilde
ENCODING 732
SWIDTH 381 0
DWIDTH 4 0
BBX 4 1 0 5
BITMAP
4992
ENDCHAR
STARTCHAR hungarumlaut
ENCODING 733
SWIDTH 350 0
DWIDTH 4 0
BBX 4 2 0 5
BITMAP
29A1
7560
ENDCHAR
STARTCHAR uni02DE
ENCODING 734
SWIDTH 205 0
DWIDTH 2 0
BBX 3 2 -1 2
BITMAP
2620
0660
ENDCHAR
STARTCHAR uni02DF
ENCODING 735
SWIDTH 302 0
DWIDTH 3 0
BBX 3 3 0 5
BITMAP
2020
3B40
5760
ENDCHAR
STARTCHAR uni02E0
ENCODING 736
SWIDTH 413 0
DWIDTH 4 0
BBX 5 6 0 1
BITMAP
A81A10
2A2400
0B6000
068000
05B000
059000
ENDCHAR
STARTCHAR uni02E1
ENCODING 737
SWIDTH 244 0
DWIDTH 2 0
BBX 3 6 0 3
BITMAP
6900
2900
2900
2900
2900
6B10
ENDCHAR
STARTCHAR uni02E2
ENCODING 738
SWIDTH 337 0
DWIDTH 3 0
BBX 3 4 0 3
BITMAP
6690
7930
35C0
8690
ENDCHAR
STARTCHAR uni02E3
ENCODING 739
SWIDTH 445 0
DWIDTH 4 0
BBX 5 4 0 3
BITMAP
5D3A00
078000
06A200
675C10
ENDCHAR
STARTCHAR uni02E4
ENCODING 740
SWIDTH 364 0
DWIDTH 4 0
BBX 4 6 0 3
BITMAP
2885
8313
6600
0680
00B0
04D3
ENDCHAR
STARTCHAR uni02E5
ENCODING 741
SWIDTH 423 0
DWIDTH 4 0
BBX 4 8 0 -1
BITMAP
4888
0008
0008
0008
0008
0008
0008
0002
ENDCHAR
STARTCHAR uni02E6
ENCODING 742
SWIDTH 414 0
DWIDTH 4 0
BBX 4 8 0 -1
BITMAP
0006
0008
5889
0008
0008
0008
0008
0002
ENDCHAR
STARTCHAR uni02E7
ENCODING 743
SWIDTH 414 0
DWIDTH 4 0
BBX 4 8 0 0
BITMAP
0002
0008
0008
0008
5889
0008
0008
0006
ENDCHAR
STARTCHAR uni02E8
ENCODING 744
SWIDTH 414 0
DWIDTH 4 0
BBX 4 8 0 0
BITMAP
0002
0008
0008
0008
0008
5889
0008
0006
ENDCHAR
STARTCHAR uni02E9
ENCODING 745
SWIDTH 414 0
DWIDTH 4 0
BBX 4 8 0 0
BITMAP
0002
0008
0008
0008
0008
0008
0008
5888
ENDCHAR
STARTCHAR uni02EC
ENCODING 748
SWIDTH 341 0
DWIDTH 3 0
BBX 3 3 0 -2
BITMAP
5150
4890
0A20
ENDCHAR
STARTCHAR uni02ED
ENCODING 749
SWIDTH 380 0
DWIDTH 4 0
BBX 4 2 0 5
BITMAP
5884
5884
ENDCHAR
STARTCHAR uni02F7
ENCODING 759
SWIDTH 381 0
DWIDTH 4 0
BBX 4 1 0 -2
BITMAP
6FE4
ENDCHAR
STARTCHAR uni0300
ENCODING 768
SWIDTH 0 0
DWIDTH 0 0
BBX 3 2 -4 5
BITMAP
2500
0810
ENDCHAR
STARTCHAR uni0301
ENCODING 769
SWIDTH 0 0
DWIDTH 0 0
BBX 2 2 -3 5
BITMAP
25
82
ENDCHAR
STARTCHAR uni0302
ENCODING 770
SWIDTH 0 0
DWIDTH 0 0
BBX 3 2 -4 5
BITMAP
0620
4570
ENDCHAR
STARTCHAR uni0303
ENCODING 771
SWIDTH 0 0
DWIDTH 0 0
BBX 4 1 -4 5
BITMAP
5981
ENDCHAR
STARTCHAR uni0304
ENCODING 772
SWIDTH 0 0
DWIDTH 0 0
BBX 4 1 -4 6
BITMAP
6881
ENDCHAR
STARTCHAR uni0305
ENCODING 773
SWIDTH 0 0
DWIDTH 0 0
BBX 4 1 -4 6
BITMAP
8888
ENDCHAR
STARTCHAR uni0306
ENCODING 774
SWIDTH 0 0
DWIDTH 0 0
BBX 4 2 -4 5
BITMAP
4031
6EB0
ENDCHAR
STARTCHAR uni0307
ENCODING 775
SWIDTH 0 0
DWIDTH 0 0
BBX 2 1 -3 6
BITMAP
A2
ENDCHAR
STARTCHAR uni0308
ENCODING 776
SWIDTH 0 0
DWIDTH 0 0
BBX 4 1 -4 6
BITMAP
B193
ENDCHAR
STARTCHAR uni0309
ENCODING 777
SWIDTH 0 0
DWIDTH 0 0
BBX 2 3 -3 5
BITMAP
64
19
51
ENDCHAR
STARTCHAR uni030A
ENCODING 778
SWIDTH 0 0
DWIDTH 0 0
BBX 3 3 -4 5
BITMAP
1740
4370
1740
ENDCHAR
STARTCHAR uni030B
ENCODING 779
SWIDTH 0 0
DWIDTH 0 0
BBX 4 2 -4 5
BITMAP
0976
1780
ENDCHAR
STARTCHAR uni030C
ENCODING 780
SWIDTH 0 0
DWIDTH 0 0
BBX 3 2 -4 5
BITMAP
3030
1A60
ENDCHAR
STARTCHAR uni030D
ENCODING 781
SWIDTH 0 0
DWIDTH 0 0
BBX 1 3 -3 5
BITMAP
10
80
80
ENDCHAR
STARTCHAR uni030E
ENCODING 782
SWIDTH 0 0
DWIDTH 0 0
BBX 3 3 -4 5
BITMAP
0010
4480
4480
ENDCHAR
STARTCHAR uni030F
ENCODING 783
SWIDTH 0 0
DWIDTH 0 0
BBX 4 2 -5 5
BITMAP
2AA2
0646
ENDCHAR
STARTCHAR uni0310
ENCODING 784
SWIDTH 0 0
DWIDTH 0 0
BBX 4 2 -4 5
BITMAP
3A51
6EB0
ENDCHAR
STARTCHAR uni0311
ENCODING 785
SWIDTH 0 0
DWIDTH 0 0
BBX 4 2 -4 5
BITMAP
4E90
7171
ENDCHAR
STARTCHAR uni0312
ENCODING 786
SWIDTH 0 0
DWIDTH 0 0
BBX 2 2 -3 5
BITMAP
71
C3
ENDCHAR
STARTCHAR uni0313
ENCODING 787
SWIDTH 0 0
DWIDTH 0 0
BBX 2 3 -3 5
BITMAP
B4
62
10
ENDCHAR
STARTCHAR uni0314
ENCODING 788
SWIDTH 0 0
DWIDTH 0 0
BBX 2 3 -3 5
BITMAP
C3
71
01
ENDCHAR
STARTCHAR uni0315
ENCODING 789
SWIDTH 0 0
DWIDTH 0 0
BBX 2 2 -3 5
BITMAP
56
62
ENDCHAR
STARTCHAR uni0316
ENCODING 790
SWIDTH 0 0
DWIDTH 0 0
BBX 3 2 -4 -2
BITMAP
2500
0910
ENDCHAR
STARTCHAR uni0317
ENCODING 791
SWIDTH 0 0
DWIDTH 0 0
BBX 2 2 -3 -2
BITMAP
16
63
ENDCHAR
STARTCHAR uni0318
ENCODING 792
SWIDTH 0 0
DWIDTH 0 0
BBX 2 2 -3 -3
BITMAP
66
06
ENDCHAR
STARTCHAR uni0319
ENCODING 793
SWIDTH 0 0
DWIDTH 0 0
BBX 2 2 -3 -3
BITMAP
A2
60
ENDCHAR
STARTCHAR uni031A
ENCODING 794
SWIDTH 0 0
DWIDTH 0 0
BBX 3 3 -4 4
BITMAP
3880
0080
0020
ENDCHAR
STARTCHAR uni031B
ENCODING 795
SWIDTH 0 0
DWIDTH 0 0
BBX 2 3 -2 4
BITMAP
03
0B
44
ENDCHAR
STARTCHAR uni031C
ENCODING 796
SWIDTH 0 0
DWIDTH 0 0
BBX 2 3 -3 -3
BITMAP
62
70
62
ENDCHAR
STARTCHAR uni031D
ENCODING 797
SWIDTH 0 0
DWIDTH 0 0
BBX 3 2 -4 -2
BITMAP
0500
2840
ENDCHAR
STARTCHAR uni031E
ENCODING 798
SWIDTH 0 0
DWIDTH 0 0
BBX 3 2 -4 -2
BITMAP
2840
0500
ENDCHAR
STARTCHAR uni031F
ENCODING 799
SWIDTH 0 0
DWIDTH 0 0
BBX 3 2 -4 -3
BITMAP
2940
0600
ENDCHAR
STARTCHAR uni0320
ENCODING 800
SWIDTH 0 0
DWIDTH 0 0
BBX 3 1 -4 -2
BITMAP
2640
ENDCHAR
STARTCHAR uni0321
ENCODING 801
SWIDTH 0 0
DWIDTH 0 0
BBX 4 4 -5 -3
BITMAP
0012
0057
1364
2960
ENDCHAR
STARTCHAR uni0322
ENCODING 802
SWIDTH 0 0
DWIDTH 0 0
BBX 4 4 -3 -3
BITMAP
1200
5700
2832
0593
ENDCHAR
STARTCHAR uni0323
ENCODING 803
SWIDTH 0 0
DWIDTH 0 0
BBX 2 1 -3 -2
BITMAP
A2
ENDCHAR
STARTCHAR uni0324
ENCODING 804
SWIDTH 0 0
DWIDTH 0 0
BBX 4 1 -4 -2
BITMAP
B193
ENDCHAR
STARTCHAR uni0325
ENCODING 805
SWIDTH 0 0
DWIDTH 0 0
BBX 3 3 -4 -3
BITMAP
1740
4370
1740
ENDCHAR
STARTCHAR uni0326
ENCODING 806
SWIDTH 0 0
DWIDTH 0 0
BBX 2 3 -3 -4
BITMAP
B4
62
10
ENDCHAR
STARTCHAR uni0327
ENCODING 807
SWIDTH 0 0
DWIDTH 0 0
BBX 2 3 -3 -2
BITMAP
10
65
65
ENDCHAR
STARTCHAR uni0328
ENCODING 808
SWIDTH 0 0
DWIDTH 0 0
BBX 3 3 -4 -2
BITMAP
0500
3700
1940
ENDCHAR
STARTCHAR uni0329
ENCODING 809
SWIDTH 0 0
DWIDTH 0 0
BBX 1 2 -3 -2
BITMAP
70
80
ENDCHAR
STARTCHAR uni032A
ENCODING 810
SWIDTH 0 0
DWIDTH 0 0
BBX 3 2 -4 -2
BITMAP
5670
4030
ENDCHAR
STARTCHAR uni032B
ENCODING 811
SWIDTH 0 0
DWIDTH 0 0
BBX 4 2 -4 -2
BITMAP
2211
5771
ENDCHAR
STARTCHAR uni032C
ENCODING 812
SWIDTH 0 0
DWIDTH 0 0
BBX 3 2 -4 -2
BITMAP
3030
1A60
ENDCHAR
STARTCHAR uni032D
ENCODING 813
SWIDTH 0 0
DWIDTH 0 0
BBX 3 2 -4 -2
BITMAP
0620
4570
ENDCHAR
STARTCHAR uni032E
ENCODING 814
SWIDTH 0 0
DWIDTH 0 0
BBX 4 2 -4 -2
BITMAP
4031
6EB0
ENDCHAR
STARTCHAR uni032F
ENCODING 815
SWIDTH 0 0
DWIDTH 0 0
BBX 4 2 -4 -2
BITMAP
5EA0
7161
ENDCHAR
STARTCHAR uni0330
ENCODING 816
SWIDTH 0 0
DWIDTH 0 0
BBX 4 1 -4 -2
BITMAP
AFD1
ENDCHAR
STARTCHAR uni0331
ENCODING 817
SWIDTH 0 0
DWIDTH 0 0
BBX 4 1 -4 -2
BITMAP
6881
ENDCHAR
STARTCHAR uni0332
ENCODING 818
SWIDTH 0 0
DWIDTH 0 0
BBX 6 1 -5 -2
BITMAP
788882
ENDCHAR
STARTCHAR uni0333
ENCODING 819
SWIDTH 0 0
DWIDTH 0 0
BBX 6 2 -5 -3
BITMAP
788882
788882
ENDCHAR
STARTCHAR uni0334
ENCODING 820
SWIDTH 0 0
DWIDTH 0 0
BBX 4 2 -4 2
BITMAP
8B34
55A0
ENDCHAR
STARTCHAR uni0335
ENCODING 821
SWIDTH 0 0
DWIDTH 0 0
BBX 4 1 -4 2
BITMAP
6772
ENDCHAR
STARTCHAR uni0336
ENCODING 822
SWIDTH 0 0
DWIDTH 0 0
BBX 6 1 -5 2
BITMAP
677772
ENDCHAR
STARTCHAR uni0337
ENCODING 823
SWIDTH 0 0
DWIDTH 0 0
BBX 3 3 -4 2
BITMAP
0060
2710
2000
ENDCHAR
STARTCHAR uni0338
ENCODING 824
SWIDTH 0 0
DWIDTH 0 0
BBX 5 9 -5 -2
BITMAP
000040
000270
000710
000800
006300
008000
045000
080000
260000
ENDCHAR
STARTCHAR uni0339
ENCODING 825
SWIDTH 0 0
DWIDTH 0 0
BBX 2 3 -3 -3
BITMAP
62
16
62
ENDCHAR
STARTCHAR uni033A
ENCODING 826
SWIDTH 0 0
DWIDTH 0 0
BBX 3 2 -4 -2
BITMAP
4030
5670
ENDCHAR
STARTCHAR uni033B
ENCODING 827
SWIDTH 0 0
DWIDTH 0 0
BBX 3 2 -4 -3
BITMAP
2750
2750
ENDCHAR
STARTCHAR uni033C
ENCODING 828
SWIDTH 0 0
DWIDTH 0 0
BBX 4 2 -4 -2
BITMAP
7781
0100
ENDCHAR
STARTCHAR uni033D
ENCODING 829
SWIDTH 0 0
DWIDTH 0 0
BBX 3 3 -4 5
BITMAP
1110
0A40
1340
ENDCHAR
STARTCHAR uni033E
ENCODING 830
SWIDTH 0 0
DWIDTH 0 0
BBX 2 4 -3 5
BITMAP
21
90
72
61
ENDCHAR
STARTCHAR uni033F
ENCODING 831
SWIDTH 0 0
DWIDTH 0 0
BBX 5 2 -5 5
BITMAP
288850
288850
ENDCHAR
STARTCHAR uni0346
ENCODING 838
SWIDTH 0 0
DWIDTH 0 0
BBX 4 2 -4 5
BITMAP
88A2
6042
ENDCHAR
STARTCHAR uni0347
ENCODING 839
SWIDTH 0 0
DWIDTH 0 0
BBX 4 2 -4 -2
BITMAP
8882
8882
ENDCHAR
STARTCHAR uni034C
ENCODING 844
SWIDTH 0 0
DWIDTH 0 0
BBX 4 3 -4 5
BITMAP
5813
3490
5981
ENDCHAR
STARTCHAR uni034D
ENCODING 845
SWIDTH 0 0
DWIDTH 0 0
BBX 5 3 -5 -3
BITMAP
030120
7B99C0
030120
ENDCHAR
STARTCHAR uni0359
ENCODING 857
SWIDTH 0 0
DWIDTH 0 0
BBX 4 3 -4 -4
BITMAP
7981
6881
0800
ENDCHAR
STARTCHAR uni035C
ENCODING 860
SWIDTH 0 0
DWIDTH 0 0
BBX 8 2 -4 -3
BITMAP
23100132
19EFFE91
ENDCHAR
STARTCHAR uni0360
ENCODING 864
SWIDTH 0 0
DWIDTH 0 0
BBX 6 2 -3 5
BITMAP
299203
302992
ENDCHAR
STARTCHAR uni0361
ENCODING 865
SWIDTH 0 0
DWIDTH 0 0
BBX 6 2 -3 5
BITMAP
0AEE90
551155
ENDCHAR
STARTCHAR uni0362
ENCODING 866
SWIDTH 0 0
DWIDTH 0 0
BBX 8 3 -4 -3
BITMAP
00000021
799999AA
00000021
ENDCHAR
STARTCHAR uni037E
ENCODING 894
SWIDTH 261 0
DWIDTH 3 0
BBX 2 7 0 -2
BITMAP
2A
00
00
00
2B
07
12
ENDCHAR
STARTCHAR tonos
ENCODING 900
SWIDTH 165 0
DWIDTH 2 0
BBX 2 2 0 5
BITMAP
83
80
ENDCHAR
STARTCHAR dieresistonos
ENCODING 901
SWIDTH 426 0
DWIDTH 4 0
BBX 4 2 0 5
BITMAP
0390
775A
ENDCHAR
STARTCHAR Alphatonos
ENCODING 902
SWIDTH 718 0
DWIDTH 7 0
BBX 8 7 0 0
BITMAP
560C0000
714C5000
0084B000
0170D300
0776B900
08002E10
8A103EA1
ENDCHAR
STARTCHAR anoteleia
ENCODING 903
SWIDTH 261 0
DWIDTH 3 0
BBX 2 1 0 4
BITMAP
2A
ENDCHAR
STARTCHAR Epsilontonos
ENCODING 904
SWIDTH 745 0
DWIDTH 7 0
BBX 9 7 -1 0
BITMAP
0B2BA77B00
1707700400
0007705100
0007A7C100
0007702100
0007700610
002BA78D00
ENDCHAR
STARTCHAR Etatonos
ENCODING 905
SWIDTH 896 0
DWIDTH 9 0
BBX 10 7 -1 0
BITMAP
0B2BB21AD3
1707700490
0007700490
0007A66890
0007700490
0007700490
002BB219D3
ENDCHAR
STARTCHAR Iotatonos
ENCODING 906
SWIDTH 478 0
DWIDTH 5 0
BBX 6 7 -1 0
BITMAP
0B2BB2
170770
000770
000770
000770
000770
002BB2
ENDCHAR
STARTCHAR Omicrontonos
ENCODING 908
SWIDTH 806 0
DWIDTH 8 0
BBX 9 7 -1 0
BITMAP
0B06869400
174B001D20
00A5000970
00C4000880
00A5000960
005B000C10
0006868300
ENDCHAR
STARTCHAR Upsilontonos
ENCODING 910
SWIDTH 787 0
DWIDTH 8 0
BBX 9 7 -1 0
BITMAP
384E901B60
4404C01700
0000B67100
00002D6000
00000C2000
00000C2000
00004E8100
ENDCHAR
STARTCHAR Omegatonos
ENCODING 911
SWIDTH 830 0
DWIDTH 8 0
BBX 9 7 -1 0
BITMAP
0B06DDC500
174E203E30
0098000A70
0097000970
005A000C20
0059305650
00CDC0EDA0
ENDCHAR
STARTCHAR iotadieresistonos
ENCODING 912
SWIDTH 259 0
DWIDTH 3 0
BBX 4 8 -1 0
BITMAP
01B0
676A
0000
0490
0570
0550
0540
02C4
ENDCHAR
STARTCHAR Alpha
ENCODING 913
SWIDTH 718 0
DWIDTH 7 0
BBX 8 7 0 0
BITMAP
000C0000
004C5000
0084B000
0170D300
0776B900
08002E10
8A103EA1
ENDCHAR
STARTCHAR Beta
ENCODING 914
SWIDTH 618 0
DWIDTH 6 0
BBX 6 7 0 0
BITMAP
3D87A2
0A4087
0A4094
0A89A1
0A407A
0A404B
3D8593
ENDCHAR
STARTCHAR Gamma
ENCODING 915
SWIDTH 569 0
DWIDTH 6 0
BBX 6 7 0 0
BITMAP
8FEDE7
0B4017
0A4001
0A4000
0A4000
0B4000
8FF400
ENDCHAR
STARTCHAR Delta
ENCODING 916
SWIDTH 667 0
DWIDTH 7 0
BBX 7 7 0 0
BITMAP
001B0000
007C2000
00769000
0531E100
0800A600
35005C00
9DCCCF30
ENDCHAR
STARTCHAR Epsilon
ENCODING 917
SWIDTH 626 0
DWIDTH 6 0
BBX 6 7 0 0
BITMAP
3D9789
0A4004
0A4060
0A97B0
0A4021
0A4007
3D978B
ENDCHAR
STARTCHAR Zeta
ENCODING 918
SWIDTH 594 0
DWIDTH 6 0
BBX 6 7 0 0
BITMAP
5B77E6
5105C0
001D20
009700
04C000
1D3006
8D77A7
ENDCHAR
STARTCHAR Eta
ENCODING 919
SWIDTH 777 0
DWIDTH 8 0
BBX 8 7 0 0
BITMAP
3D912BB2
0A400770
0A400770
0A866A70
0A400770
0A400770
3D912BB2
ENDCHAR
STARTCHAR Theta
ENCODING 920
SWIDTH 738 0
DWIDTH 7 0
BBX 7 7 0 0
BITMAP
03CDD600
1E501C50
6B0005B0
798DD4D0
6B4045B0
1E401C60
03CDD700
ENDCHAR
STARTCHAR Iota
ENCODING 921
SWIDTH 357 0
DWIDTH 4 0
BBX 4 7 0 0
BITMAP
3D91
0A40
0A40
0A40
0A40
0A40
3D91
ENDCHAR
STARTCHAR Kappa
ENCODING 922
SWIDTH 702 0
DWIDTH 7 0
BBX 7 7 0 0
BITMAP
3D919B30
0A418000
0A480000
0AC50000
0A5C4000
0A42D400
3D919E60
ENDCHAR
STARTCHAR Lambda
ENCODING 923
SWIDTH 710 0
DWIDTH 7 0
BBX 8 7 0 0
BITMAP
000C0000
005B5000
0073C000
0350C300
08006A00
28001F30
EF209FF1
ENDCHAR
STARTCHAR Mu
ENCODING 924
SWIDTH 895 0
DWIDTH 9 0
BBX 9 7 0 0
BITMAP
4E80009D20
09D001C900
07B5066900
074B084900
070D554900
0707D04900
4D31819D20
ENDCHAR
STARTCHAR Nu
ENCODING 925
SWIDTH 742 0
DWIDTH 7 0
BBX 8 7 0 0
BITMAP
4E501A91
0AE20440
077B0440
070A7440
0701D740
08003E40
4D300740
ENDCHAR
STARTCHAR Xi
ENCODING 926
SWIDTH 648 0
DWIDTH 6 0
BBX 6 7 0 0
BITMAP
5EDDDC
410005
051060
06EDD0
010010
500005
7EDDDE
ENDCHAR
STARTCHAR Omicron
ENCODING 927
SWIDTH 738 0
DWIDTH 7 0
BBX 7 7 0 0
BITMAP
03978700
1D100960
5A0004B0
790003D0
5A0004B0
1D100950
03977600
ENDCHAR
STARTCHAR Pi
ENCODING 928
SWIDTH 759 0
DWIDTH 8 0
BBX 8 7 0 0
BITMAP
9FEDDEF3
0B400A50
0A400A40
0A400A40
0A400A40
0B400B50
9FE28FE3
ENDCHAR
STARTCHAR Rho
ENCODING 929
SWIDTH 569 0
DWIDTH 6 0
BBX 6 7 0 0
BITMAP
3D87A1
0A4096
0A40B3
0A8740
0A4000
0A4000
3D9100
ENDCHAR
STARTCHAR Sigma
ENCODING 931
SWIDTH 604 0
DWIDTH 6 0
BBX 6 7 0 0
BITMAP
9FDDF6
1C3026
02D200
006700
018001
081008
8EDDE8
ENDCHAR
STARTCHAR Tau
ENCODING 932
SWIDTH 603 0
DWIDTH 6 0
BBX 6 7 0 0
BITMAP
B8BB7B
507706
007700
007700
007700
007700
02BB20
ENDCHAR
STARTCHAR Upsilon
ENCODING 933
SWIDTH 647 0
DWIDTH 6 0
BBX 7 7 0 0
BITMAP
8F404C30
0A606200
02D17000
008C1000
003B0000
003B0000
018E4000
ENDCHAR
STARTCHAR Phi
ENCODING 934
SWIDTH 718 0
DWIDTH 7 0
BBX 7 7 0 0
BITMAP
00CFE000
001E2000
295E5940
960D14B0
8B1D18A0
1ADFDA20
00CFE000
ENDCHAR
STARTCHAR Chi
ENCODING 935
SWIDTH 664 0
DWIDTH 7 0
BBX 7 7 0 0
BITMAP
5E906B30
06B08100
00B84000
004D1000
00888000
0721D300
7C11BD30
ENDCHAR
STARTCHAR Psi
ENCODING 936
SWIDTH 720 0
DWIDTH 7 0
BBX 8 7 0 0
BITMAP
D4CFE3D2
590D2680
590D1680
3D1D1B60
06CFD800
000D1000
00CFE100
ENDCHAR
STARTCHAR Omega
ENCODING 937
SWIDTH 777 0
DWIDTH 8 0
BBX 8 7 0 0
BITMAP
02AEE910
0C800A90
2F0003E0
2E0002E0
0C200590
53901A33
6DE47DE2
ENDCHAR
STARTCHAR Iotadieresis
ENCODING 938
SWIDTH 357 0
DWIDTH 4 0
BBX 4 8 0 0
BITMAP
B285
4D91
0A40
0A40
0A40
0A40
0A40
3D91
ENDCHAR
STARTCHAR Upsilondieresis
ENCODING 939
SWIDTH 647 0
DWIDTH 6 0
BBX 7 8 0 0
BITMAP
02A0C000
8F405C30
0A606200
02D17000
008C1000
003B0000
003B0000
018E4000
ENDCHAR
STARTCHAR alphatonos
ENCODING 940
SWIDTH 561 0
DWIDTH 6 0
BBX 6 7 0 0
BITMAP
007400
008000
0AB5D2
620880
700820
711A30
2C93C3
ENDCHAR
STARTCHAR epsilontonos
ENCODING 941
SWIDTH 381 0
DWIDTH 4 0
BBX 4 7 0 0
BITMAP
0091
0080
2BD7
6300
2860
8202
3DD4
ENDCHAR
STARTCHAR etatonos
ENCODING 942
SWIDTH 510 0
DWIDTH 5 0
BBX 5 10 0 -3
BITMAP
003800
005300
A97D10
1A5350
0B0170
0B0270
2B0360
000560
000850
000200
ENDCHAR
STARTCHAR iotatonos
ENCODING 943
SWIDTH 259 0
DWIDTH 3 0
BBX 3 7 0 0
BITMAP
0B00
0800
4900
5700
5500
5400
2C40
ENDCHAR
STARTCHAR upsilondieresistonos
ENCODING 944
SWIDTH 491 0
DWIDTH 5 0
BBX 5 8 0 0
BITMAP
01B000
676A00
000000
A90700
1A0550
270460
260930
0BD800
ENDCHAR
STARTCHAR alpha
ENCODING 945
SWIDTH 561 0
DWIDTH 6 0
BBX 6 5 0 0
BITMAP
0AB5D2
620880
700820
711A30
2C93C3
ENDCHAR
STARTCHAR beta
ENCODING 946
SWIDTH 530 0
DWIDTH 5 0
BBX 5 11 0 -3
BITMAP
01BD40
082180
080070
270530
469810
550080
5900A0
68BD60
760000
860000
100000
ENDCHAR
STARTCHAR gamma
ENCODING 947
SWIDTH 466 0
DWIDTH 5 0
BBX 5 7 0 -2
BITMAP
AA0A50
192C00
058500
03A000
037000
085000
093000
ENDCHAR
STARTCHAR delta
ENCODING 948
SWIDTH 479 0
DWIDTH 5 0
BBX 5 8 0 0
BITMAP
09E900
081710
02A100
09CC00
640840
600560
720930
2DD600
ENDCHAR
STARTCHAR epsilon
ENCODING 949
SWIDTH 381 0
DWIDTH 4 0
BBX 4 5 0 0
BITMAP
2BD7
6300
2860
8202
3DD4
ENDCHAR
STARTCHAR zeta
ENCODING 950
SWIDTH 386 0
DWIDTH 4 0
BBX 5 11 0 -3
BITMAP
022000
093B10
03C300
0A1000
630000
600000
730000
2DD600
002900
048500
022000
ENDCHAR
STARTCHAR eta
ENCODING 951
SWIDTH 510 0
DWIDTH 5 0
BBX 5 8 0 -3
BITMAP
A97D10
1A5350
0B0170
0B0270
2B0360
000560
000850
000200
ENDCHAR
STARTCHAR theta
ENCODING 952
SWIDTH 514 0
DWIDTH 5 0
BBX 5 8 0 0
BITMAP
06D900
1A0740
530180
710080
7DDD90
610060
270540
07E900
ENDCHAR
STARTCHAR iota
ENCODING 953
SWIDTH 259 0
DWIDTH 3 0
BBX 3 5 0 0
BITMAP
4900
5700
5500
5400
2C40
ENDCHAR
STARTCHAR kappa
ENCODING 954
SWIDTH 495 0
DWIDTH 5 0
BBX 5 5 0 0
BITMAP
AA0880
1A8710
0A9000
0C6210
0C1C80
ENDCHAR
STARTCHAR lambda
ENCODING 955
SWIDTH 506 0
DWIDTH 5 0
BBX 6 8 0 0
BITMAP
0B7000
119000
007100
00B300
048500
0B2700
3A0B01
A509B0
ENDCHAR
STARTCHAR mu
ENCODING 956
SWIDTH 552 0
DWIDTH 6 0
BBX 6 8 0 -3
BITMAP
490570
470650
450720
471B30
6BB4C3
830000
840000
100000
ENDCHAR
STARTCHAR nu
ENCODING 957
SWIDTH 453 0
DWIDTH 5 0
BBX 6 6 -1 -1
BITMAP
0B9092
11B094
0080C1
007570
007900
001000
ENDCHAR
STARTCHAR xi
ENCODING 958
SWIDTH 390 0
DWIDTH 4 0
BBX 4 10 0 -2
BITMAP
0500
198B
1A40
3600
09B5
6100
8510
19D9
0007
04B5
ENDCHAR
STARTCHAR omicron
ENCODING 959
SWIDTH 475 0
DWIDTH 5 0
BBX 5 5 0 0
BITMAP
0ADA00
640640
700260
830730
2CD800
ENDCHAR
STARTCHAR pi
ENCODING 960
SWIDTH 591 0
DWIDTH 6 0
BBX 6 5 0 0
BITMAP
5CEDE9
206240
044530
0A1740
2C04D4
ENDCHAR
STARTCHAR rho
ENCODING 961
SWIDTH 515 0
DWIDTH 5 0
BBX 5 8 0 -3
BITMAP
06DC30
190180
450070
590270
68DC10
660000
670000
100000
ENDCHAR
STARTCHAR uni03C2
ENCODING 962
SWIDTH 377 0
DWIDTH 4 0
BBX 4 7 0 -2
BITMAP
1AD7
6200
7000
5A30
05C7
0007
05B3
ENDCHAR
STARTCHAR sigma
ENCODING 963
SWIDTH 545 0
DWIDTH 5 0
BBX 6 5 0 0
BITMAP
0ADED5
650520
800270
830660
2CD900
ENDCHAR
STARTCHAR tau
ENCODING 964
SWIDTH 392 0
DWIDTH 4 0
BBX 4 5 0 0
BITMAP
8DEC
2340
0620
0830
05D3
ENDCHAR
STARTCHAR upsilon
ENCODING 965
SWIDTH 491 0
DWIDTH 5 0
BBX 5 5 0 0
BITMAP
A90700
1A0550
270460
260930
0BD800
ENDCHAR
STARTCHAR phi
ENCODING 966
SWIDTH 603 0
DWIDTH 6 0
BBX 6 8 0 -2
BITMAP
001000
1B6AD3
623718
705308
678595
07DB40
008300
008300
ENDCHAR
STARTCHAR chi
ENCODING 967
SWIDTH 462 0
DWIDTH 5 0
BBX 6 7 -1 -2
BITMAP
0B906A
1072C1
002C40
003A00
01B800
095630
4C01D6
ENDCHAR
STARTCHAR psi
ENCODING 968
SWIDTH 620 0
DWIDTH 6 0
BBX 6 11 0 -3
BITMAP
001600
002A00
001900
AA1843
1A280A
17270A
182777
08DE90
004700
005800
001000
ENDCHAR
STARTCHAR omega
ENCODING 969
SWIDTH 660 0
DWIDTH 7 0
BBX 7 6 0 0
BITMAP
00101000
1C402700
732B0910
702A0730
72280A10
2CA6D800
ENDCHAR
STARTCHAR iotadieresis
ENCODING 970
SWIDTH 259 0
DWIDTH 3 0
BBX 4 7 -1 0
BITMAP
3719
0000
0490
0570
0550
0540
02C4
ENDCHAR
STARTCHAR upsilondieresis
ENCODING 971
SWIDTH 491 0
DWIDTH 5 0
BBX 5 7 0 0
BITMAP
371900
000000
A90700
1A0550
270460
260930
0BD800
ENDCHAR
STARTCHAR omicrontonos
ENCODING 972
SWIDTH 475 0
DWIDTH 5 0
BBX 5 7 0 0
BITMAP
006500
008100
0ADA00
640640
700260
830730
2CD800
ENDCHAR
STARTCHAR upsilontonos
ENCODING 973
SWIDTH 491 0
DWIDTH 5 0
BBX 5 7 0 0
BITMAP
009200
008000
A90700
1A0550
270460
260930
0BD800
ENDCHAR
STARTCHAR omegatonos
ENCODING 974
SWIDTH 660 0
DWIDTH 7 0
BBX 7 7 0 0
BITMAP
000A0000
00181000
1C402700
732B0910
702A0730
72280A10
2CA6D800
ENDCHAR
STARTCHAR uni03D0
ENCODING 976
SWIDTH 438 0
DWIDTH 4 0
BBX 5 8 0 0
BITMAP
02CB00
091420
2B2510
55B800
7BD700
670600
3A0700
08D800
ENDCHAR
STARTCHAR uni03D1
ENCODING 977
SWIDTH 541 0
DWIDTH 5 0
BBX 6 8 0 0
BITMAP
04D900
080720
060160
052080
008DE1
7C0080
1A0470
05DB10
ENDCHAR
STARTCHAR uni03D2
ENCODING 978
SWIDTH 616 0
DWIDTH 6 0
BBX 7 7 0 0
BITMAP
7E80AD10
02D63B10
009A0000
00790000
00680000
00790000
06FF8000
ENDCHAR
STARTCHAR uni03D5
ENCODING 981
SWIDTH 575 0
DWIDTH 6 0
BBX 6 10 0 -2
BITMAP
002500
004800
006800
0BDCB0
736454
707325
768492
08EB40
00A100
00C100
ENDCHAR
STARTCHAR uni03D6
ENCODING 982
SWIDTH 821 0
DWIDTH 8 0
BBX 9 5 0 0
BITMAP
7DFDDDED20
2531608100
0702B07300
071280A200
02CA6D8000
ENDCHAR
STARTCHAR uni03D8
ENCODING 984
SWIDTH 627 0
DWIDTH 6 0
BBX 6 7 0 0
BITMAP
08DEB2
6C108A
97003D
77003B
1B4393
007A00
02AC30
ENDCHAR
STARTCHAR uni03D9
ENCODING 985
SWIDTH 475 0
DWIDTH 5 0
BBX 5 8 0 -3
BITMAP
0ADA00
640640
700160
810440
3CAA00
019000
02A000
023000
ENDCHAR
STARTCHAR uni03DA
ENCODING 986
SWIDTH 578 0
DWIDTH 6 0
BBX 6 7 0 0
BITMAP
07DEF4
5C1064
960001
970000
5D3000
06DE10
004E60
ENDCHAR
STARTCHAR uni03DB
ENCODING 987
SWIDTH 490 0
DWIDTH 5 0
BBX 5 7 0 -2
BITMAP
08DDC0
630000
700000
6A2000
06C500
000700
07A200
ENDCHAR
STARTCHAR uni03DC
ENCODING 988
SWIDTH 588 0
DWIDTH 6 0
BBX 6 7 0 0
BITMAP
3D978A
0A4004
0A4060
0A97B0
0A4020
0A4000
3D9100
ENDCHAR
STARTCHAR uni03DD
ENCODING 989
SWIDTH 386 0
DWIDTH 4 0
BBX 5 8 -1 -3
BITMAP
03EDA0
037000
027000
02BC10
035000
043000
080000
B70000
ENDCHAR
STARTCHAR uni03DE
ENCODING 990
SWIDTH 525 0
DWIDTH 5 0
BBX 5 7 0 0
BITMAP
0BF600
045000
160000
8DDDC0
000430
002700
02FE10
ENDCHAR
STARTCHAR uni03DF
ENCODING 991
SWIDTH 434 0
DWIDTH 4 0
BBX 6 7 -1 0
BITMAP
1C6000
118000
015120
05BD60
033430
000711
0006C1
ENDCHAR
STARTCHAR uni03E0
ENCODING 992
SWIDTH 697 0
DWIDTH 7 0
BBX 7 7 0 0
BITMAP
00880000
002E1000
006A8000
0185E200
07288900
18541F20
8290AFE0
ENDCHAR
STARTCHAR uni03E1
ENCODING 993
SWIDTH 458 0
DWIDTH 5 0
BBX 6 10 -1 -3
BITMAP
2D4000
03D500
001C10
038980
0540A0
004AB0
004262
000062
000060
000020
ENDCHAR
STARTCHAR uni03F0
ENCODING 1008
SWIDTH 504 0
DWIDTH 5 0
BBX 6 5 0 0
BITMAP
9905B0
181C10
06A600
0B7700
5B0AB1
ENDCHAR
STARTCHAR uni03F1
ENCODING 1009
SWIDTH 467 0
DWIDTH 5 0
BBX 5 7 0 -2
BITMAP
08DB00
350540
640640
6ADA00
2C4000
029300
089100
ENDCHAR
STARTCHAR uni03F4
ENCODING 1012
SWIDTH 737 0
DWIDTH 7 0
BBX 7 7 0 0
BITMAP
03CDD700
1D401C60
6A0005B0
7EDDDED0
6A0004B0
1E301B50
03CDD600
ENDCHAR
STARTCHAR uni03F5
ENCODING 1013
SWIDTH 380 0
DWIDTH 4 0
BBX 4 5 0 0
BITMAP
1AD6
6100
9DC0
7202
1CD5
ENDCHAR
STARTCHAR uni03F6
ENCODING 1014
SWIDTH 382 0
DWIDTH 4 0
BBX 4 5 0 0
BITMAP
8D90
0034
1DD6
1044
8DA0
ENDCHAR
STARTCHAR uni0400
ENCODING 1024
SWIDTH 626 0
DWIDTH 6 0
BBX 6 9 0 0
BITMAP
006200
002900
3D9789
0A4004
0A4060
0A97B0
0A4021
0A4007
3D978B
ENDCHAR
STARTCHAR uni0401
ENCODING 1025
SWIDTH 626 0
DWIDTH 6 0
BBX 6 8 0 0
BITMAP
0582B0
3D9799
0A4004
0A4060
0A97B0
0A4021
0A4007
3D978B
ENDCHAR
STARTCHAR uni0402
ENCODING 1026
SWIDTH 731 0
DWIDTH 7 0
BBX 7 7 0 0
BITMAP
A8BB7D00
60770600
00770000
007B7A40
007702D0
007700E0
02A7B560
ENDCHAR
STARTCHAR uni0403
ENCODING 1027
SWIDTH 548 0
DWIDTH 5 0
BBX 6 9 0 0
BITMAP
000710
007500
3D97C3
0A4034
0A4001
0A4000
0A4000
0A4000
3D9100
ENDCHAR
STARTCHAR uni0404
ENCODING 1028
SWIDTH 668 0
DWIDTH 7 0
BBX 7 7 0 0
BITMAP
03979F10
1D100910
69000200
7B775000
69000000
1D100310
04BAA500
ENDCHAR
STARTCHAR uni0405
ENCODING 1029
SWIDTH 504 0
DWIDTH 5 0
BBX 5 7 0 0
BITMAP
197C50
760260
4D4000
05E910
101B80
8004A0
9B7920
ENDCHAR
STARTCHAR uni0406
ENCODING 1030
SWIDTH 357 0
DWIDTH 4 0
BBX 4 7 0 0
BITMAP
3D91
0A40
0A40
0A40
0A40
0A40
3D91
ENDCHAR
STARTCHAR uni0407
ENCODING 1031
SWIDTH 357 0
DWIDTH 4 0
BBX 4 8 0 0
BITMAP
B285
4D91
0A40
0A40
0A40
0A40
0A40
3D91
ENDCHAR
STARTCHAR uni0408
ENCODING 1032
SWIDTH 396 0
DWIDTH 4 0
BBX 4 7 0 0
BITMAP
08E5
01D0
01C0
01C0
01C0
21C0
C860
ENDCHAR
STARTCHAR uni0409
ENCODING 1033
SWIDTH 924 0
DWIDTH 9 0
BBX 10 7 -1 0
BITMAP
003B6BB200
0007077000
0007077000
000707A782
001607705C
016207703D
1E802BA6A4
ENDCHAR
STARTCHAR uni040A
ENCODING 1034
SWIDTH 1013 0
DWIDTH 10 0
BBX 10 7 0 0
BITMAP
3D913CA100
0A40095000
0A40095000
0A977CA891
0A4009506A
0A4009504B
3D912C97A3
ENDCHAR
STARTCHAR uni040B
ENCODING 1035
SWIDTH 761 0
DWIDTH 8 0
BBX 8 7 0 0
BITMAP
A8BB7D00
60770600
00770000
007A7A20
007705A0
007704B0
02BB28D2
ENDCHAR
STARTCHAR uni040C
ENCODING 1036
SWIDTH 658 0
DWIDTH 7 0
BBX 7 9 0 0
BITMAP
00035000
00191000
3D913D50
0A407100
0A416000
0A8B2000
0A45A000
0A40C400
3D914C40
ENDCHAR
STARTCHAR uni040D
ENCODING 1037
SWIDTH 780 0
DWIDTH 8 0
BBX 8 9 0 0
BITMAP
00630000
00290000
3D912BB2
0A400B70
0A406870
0A453770
0A650770
0A900770
3D912BB2
ENDCHAR
STARTCHAR uni040E
ENCODING 1038
SWIDTH 625 0
DWIDTH 6 0
BBX 7 9 0 0
BITMAP
0390C000
00655000
8E305C30
0C304300
04A07000
00C55000
004D0000
01260000
1EA00000
ENDCHAR
STARTCHAR uni040F
ENCODING 1039
SWIDTH 759 0
DWIDTH 8 0
BBX 8 9 0 -2
BITMAP
3D913D91
0A400A40
0A400A40
0A400A40
0A400A40
0A400A40
3D977C91
00071000
00094000
ENDCHAR
STARTCHAR uni0410
ENCODING 1040
SWIDTH 718 0
DWIDTH 7 0
BBX 8 7 0 0
BITMAP
000C0000
004C5000
0084B000
0170D300
0776B900
08002E10
8A103EA1
ENDCHAR
STARTCHAR uni0411
ENCODING 1041
SWIDTH 617 0
DWIDTH 6 0
BBX 6 7 0 0
BITMAP
3D86B5
0A4015
0A4000
0A8771
0A4079
0A405A
3D86A2
ENDCHAR
STARTCHAR uni0412
ENCODING 1042
SWIDTH 618 0
DWIDTH 6 0
BBX 6 7 0 0
BITMAP
3D87A2
0A4087
0A4094
0A89A1
0A407A
0A404B
3D8593
ENDCHAR
STARTCHAR uni0413
ENCODING 1043
SWIDTH 548 0
DWIDTH 5 0
BBX 6 7 0 0
BITMAP
3D97C3
0A4034
0A4001
0A4000
0A4000
0A4000
3D9100
ENDCHAR
STARTCHAR uni0414
ENCODING 1044
SWIDTH 663 0
DWIDTH 7 0
BBX 7 9 0 -2
BITMAP
05B7C910
0070A400
0260A400
0440A400
0810A400
0800A400
A966C910
B1000830
60000330
ENDCHAR
STARTCHAR uni0415
ENCODING 1045
SWIDTH 626 0
DWIDTH 6 0
BBX 6 7 0 0
BITMAP
3D9789
0A4004
0A4060
0A97B0
0A4021
0A4007
3D978B
ENDCHAR
STARTCHAR uni0416
ENCODING 1046
SWIDTH 937 0
DWIDTH 9 0
BBX 10 7 0 0
BITMAP
AB04E706E1
1340B20710
0070B23300
0078D7B000
01C0B28600
0960B21D10
6D04E807A2
ENDCHAR
STARTCHAR uni0417
ENCODING 1047
SWIDTH 545 0
DWIDTH 5 0
BBX 6 7 0 0
BITMAP
596A40
5203C0
100660
019C30
0002E1
3001E1
29AB50
ENDCHAR
STARTCHAR uni0418
ENCODING 1048
SWIDTH 780 0
DWIDTH 8 0
BBX 8 7 0 0
BITMAP
3D912BB2
0A400B70
0A406870
0A453770
0A650770
0A900770
3D912BB2
ENDCHAR
STARTCHAR uni0419
ENCODING 1049
SWIDTH 780 0
DWIDTH 8 0
BBX 8 9 0 0
BITMAP
00925600
00355200
3D912BB2
0A400B70
0A406870
0A453770
0A650770
0A900770
3D912BB2
ENDCHAR
STARTCHAR uni041A
ENCODING 1050
SWIDTH 658 0
DWIDTH 7 0
BBX 7 7 0 0
BITMAP
3D913D50
0A407100
0A416000
0A8B2000
0A45A000
0A40C400
3D914C40
ENDCHAR
STARTCHAR uni041B
ENCODING 1051
SWIDTH 684 0
DWIDTH 7 0
BBX 8 7 -1 0
BITMAP
003B7AB2
00070680
00070680
00070680
00160680
01620680
1E802BB2
ENDCHAR
STARTCHAR uni041C
ENCODING 1052
SWIDTH 895 0
DWIDTH 9 0
BBX 9 7 0 0
BITMAP
4E80009D20
09D001C900
07B5066900
074B084900
070D554900
0707D04900
4D31819D20
ENDCHAR
STARTCHAR uni041D
ENCODING 1053
SWIDTH 777 0
DWIDTH 8 0
BBX 8 7 0 0
BITMAP
3D912BB2
0A400770
0A400770
0A866A70
0A400770
0A400770
3D912BB2
ENDCHAR
STARTCHAR uni041E
ENCODING 1054
SWIDTH 738 0
DWIDTH 7 0
BBX 7 7 0 0
BITMAP
03978700
1D100960
5A0004B0
790003D0
5A0004B0
1D100950
03977600
ENDCHAR
STARTCHAR uni041F
ENCODING 1055
SWIDTH 759 0
DWIDTH 8 0
BBX 8 7 0 0
BITMAP
9FEDDEF3
0B400A50
0A400A40
0A400A40
0A400A40
0B400B50
9FE28FE3
ENDCHAR
STARTCHAR uni0420
ENCODING 1056
SWIDTH 569 0
DWIDTH 6 0
BBX 6 7 0 0
BITMAP
3D87A1
0A4096
0A40B3
0A8740
0A4000
0A4000
3D9100
ENDCHAR
STARTCHAR uni0421
ENCODING 1057
SWIDTH 670 0
DWIDTH 7 0
BBX 7 7 0 0
BITMAP
03979F10
1D100810
6A000200
79000000
6A000000
1E300310
03BA9600
ENDCHAR
STARTCHAR uni0422
ENCODING 1058
SWIDTH 603 0
DWIDTH 6 0
BBX 6 7 0 0
BITMAP
B8BB7B
507706
007700
007700
007700
007700
02BB20
ENDCHAR
STARTCHAR uni0423
ENCODING 1059
SWIDTH 625 0
DWIDTH 6 0
BBX 7 7 0 0
BITMAP
8E305C30
0C304300
04A07000
00C55000
004D0000
01260000
1EA00000
ENDCHAR
STARTCHAR uni0424
ENCODING 1060
SWIDTH 725 0
DWIDTH 7 0
BBX 7 7 0 0
BITMAP
004E6000
087D7A20
680C15B0
950C11D0
690C1490
077D6810
004E6000
ENDCHAR
STARTCHAR uni0425
ENCODING 1061
SWIDTH 664 0
DWIDTH 7 0
BBX 7 7 0 0
BITMAP
5E906B30
06B08100
00B84000
004D1000
00888000
0721D300
7C11BD30
ENDCHAR
STARTCHAR uni0426
ENCODING 1062
SWIDTH 756 0
DWIDTH 8 0
BBX 8 9 0 -2
BITMAP
3D913D91
0A400B30
0A400B30
0A400B30
0A400B30
0A400B30
3D866C91
00000092
00000041
ENDCHAR
STARTCHAR uni0427
ENCODING 1063
SWIDTH 650 0
DWIDTH 7 0
BBX 7 7 0 0
BITMAP
7E33E810
2C00B300
2D00B300
0797D300
0000B300
0000B300
0004E810
ENDCHAR
STARTCHAR uni0428
ENCODING 1064
SWIDTH 1053 0
DWIDTH 11 0
BBX 11 7 0 0
BITMAP
3D918D33D910
0A303B00A300
0A303B00A300
0A303B00A300
0A303B00A300
0A303B00A300
3D978D77C810
ENDCHAR
STARTCHAR uni0429
ENCODING 1065
SWIDTH 1044 0
DWIDTH 10 0
BBX 10 9 0 -2
BITMAP
3D919D34E7
0A304A00C1
0A304A00C1
0A304A00C1
0A304A00C1
0A304A00C1
3D879C77D8
000000000B
0000000006
ENDCHAR
STARTCHAR uni042A
ENCODING 1066
SWIDTH 723 0
DWIDTH 7 0
BBX 7 7 0 0
BITMAP
B7AC2000
60680000
00680000
006B7920
006804C0
006803D0
01BB6A40
ENDCHAR
STARTCHAR uni042B
ENCODING 1067
SWIDTH 887 0
DWIDTH 9 0
BBX 9 7 0 0
BITMAP
3D9102AC30
0A40006800
0A40006800
0A88706800
0A40966800
0A40876800
3D9793AC30
ENDCHAR
STARTCHAR uni042C
ENCODING 1068
SWIDTH 606 0
DWIDTH 6 0
BBX 6 7 0 0
BITMAP
4D9100
0A4000
0A4000
0A8781
0A4079
0A405A
3D97A2
ENDCHAR
STARTCHAR uni042D
ENCODING 1069
SWIDTH 667 0
DWIDTH 7 0
BBX 7 7 0 0
BITMAP
6E88A200
63005B00
20000F10
01777E20
00000E10
31005900
08AA9100
ENDCHAR
STARTCHAR uni042E
ENCODING 1070
SWIDTH 1042 0
DWIDTH 10 0
BBX 10 7 0 0
BITMAP
4EA1196780
0A40B30087
0A42D0003C
0A88C0002D
0A42D0003C
0A40C20076
3D81285670
ENDCHAR
STARTCHAR uni042F
ENCODING 1071
SWIDTH 654 0
DWIDTH 7 0
BBX 6 7 0 0
BITMAP
0596D8
0E10B3
0C40B3
02C8D3
03C0B3
0A50B3
7D04D8
ENDCHAR
STARTCHAR uni0430
ENCODING 1072
SWIDTH 480 0
DWIDTH 5 0
BBX 5 5 0 0
BITMAP
277700
330C00
066D00
850C00
6C7C40
ENDCHAR
STARTCHAR uni0431
ENCODING 1073
SWIDTH 520 0
DWIDTH 5 0
BBX 5 8 0 0
BITMAP
000030
03AC30
2A2000
776930
8703B0
8601C0
5803A0
086920
ENDCHAR
STARTCHAR uni0432
ENCODING 1074
SWIDTH 505 0
DWIDTH 5 0
BBX 5 5 0 0
BITMAP
4E6930
0D0670
0E6B10
0D0590
4E6950
ENDCHAR
STARTCHAR uni0433
ENCODING 1075
SWIDTH 429 0
DWIDTH 4 0
BBX 5 5 0 0
BITMAP
4E6C10
0D0410
0D0000
0D0000
4E3000
ENDCHAR
STARTCHAR uni0434
ENCODING 1076
SWIDTH 530 0
DWIDTH 5 0
BBX 5 7 0 -2
BITMAP
197C80
060940
060940
070940
985B80
A000A0
500050
ENDCHAR
STARTCHAR uni0435
ENCODING 1077
SWIDTH 464 0
DWIDTH 5 0
BBX 5 5 0 0
BITMAP
177900
886920
A30000
790220
1BC800
ENDCHAR
STARTCHAR uni0436
ENCODING 1078
SWIDTH 754 0
DWIDTH 8 0
BBX 8 5 0 0
BITMAP
A81C62C4
05193600
02BB8900
0A393A30
7A1C62C3
ENDCHAR
STARTCHAR uni0437
ENCODING 1079
SWIDTH 435 0
DWIDTH 4 0
BBX 4 5 0 0
BITMAP
7686
402A
04B4
001D
4797
ENDCHAR
STARTCHAR uni0438
ENCODING 1080
SWIDTH 609 0
DWIDTH 6 0
BBX 6 5 0 0
BITMAP
4E22D5
0D04E1
0D34C1
0E50C1
4E32D5
ENDCHAR
STARTCHAR uni0439
ENCODING 1081
SWIDTH 609 0
DWIDTH 6 0
BBX 6 7 0 0
BITMAP
084390
025530
4E22D5
0D04E1
0D34C1
0E50C1
4E32D5
ENDCHAR
STARTCHAR uni043A
ENCODING 1082
SWIDTH 521 0
DWIDTH 5 0
BBX 6 5 0 0
BITMAP
4E35C0
0D0600
0D9500
0D1C00
4E3791
ENDCHAR
STARTCHAR uni043B
ENCODING 1083
SWIDTH 553 0
DWIDTH 6 0
BBX 6 5 0 0
BITMAP
05A9B1
025580
043580
070580
D609B1
ENDCHAR
STARTCHAR uni043C
ENCODING 1084
SWIDTH 697 0
DWIDTH 7 0
BBX 7 5 0 0
BITMAP
5F203F30
1B807D00
16D26D00
167B1D00
59283E30
ENDCHAR
STARTCHAR uni043D
ENCODING 1085
SWIDTH 605 0
DWIDTH 6 0
BBX 6 5 0 0
BITMAP
4E32E5
0D00C0
0D66D0
0D00C0
4E32E4
ENDCHAR
STARTCHAR uni043E
ENCODING 1086
SWIDTH 514 0
DWIDTH 5 0
BBX 5 5 0 0
BITMAP
196920
760490
9402C0
760390
196820
ENDCHAR
STARTCHAR uni043F
ENCODING 1087
SWIDTH 591 0
DWIDTH 6 0
BBX 6 5 0 0
BITMAP
4E66E3
0D00D0
0D00D0
0D00D0
4E33E3
ENDCHAR
STARTCHAR uni0440
ENCODING 1088
SWIDTH 537 0
DWIDTH 5 0
BBX 5 7 0 -2
BITMAP
5C8C50
1D01D0
1C00D0
1C01B0
1E7830
1C0000
5E4000
ENDCHAR
STARTCHAR uni0441
ENCODING 1089
SWIDTH 446 0
DWIDTH 4 0
BBX 5 5 0 0
BITMAP
176B00
730600
A20000
870210
1CB800
ENDCHAR
STARTCHAR uni0442
ENCODING 1090
SWIDTH 456 0
DWIDTH 5 0
BBX 5 5 0 0
BITMAP
B7C870
42B040
02B000
02B000
07D200
ENDCHAR
STARTCHAR uni0443
ENCODING 1091
SWIDTH 483 0
DWIDTH 5 0
BBX 6 7 -1 -2
BITMAP
1AA068
02C071
00A470
003C30
000A00
002600
0B9000
ENDCHAR
STARTCHAR uni0444
ENCODING 1092
SWIDTH 710 0
DWIDTH 7 0
BBX 7 10 0 -2
BITMAP
00260000
000C0000
000C0000
1A6E6920
760C0490
940C03A0
760C0480
1A6E6920
000C0000
003E4000
ENDCHAR
STARTCHAR uni0445
ENCODING 1093
SWIDTH 479 0
DWIDTH 5 0
BBX 5 5 0 0
BITMAP
7E1B40
0A6500
02E100
075900
861E60
ENDCHAR
STARTCHAR uni0446
ENCODING 1094
SWIDTH 590 0
DWIDTH 6 0
BBX 6 7 0 -2
BITMAP
4E34E3
0D00C0
0D00C0
0D00C0
2E66D1
000029
000006
ENDCHAR
STARTCHAR uni0447
ENCODING 1095
SWIDTH 535 0
DWIDTH 5 0
BBX 5 5 0 0
BITMAP
8A1B90
580850
196A50
000850
001B90
ENDCHAR
STARTCHAR uni0448
ENCODING 1096
SWIDTH 812 0
DWIDTH 8 0
BBX 8 5 0 0
BITMAP
4E29A2D6
0C0570B1
0C0570B1
0C0570B1
4E59A5D5
ENDCHAR
STARTCHAR uni0449
ENCODING 1097
SWIDTH 814 0
DWIDTH 8 0
BBX 8 7 0 -2
BITMAP
4E29A2D5
0C0570B1
0C0570B1
0C0570B1
2E6AB6D3
0000001B
00000006
ENDCHAR
STARTCHAR uni044A
ENCODING 1098
SWIDTH 568 0
DWIDTH 6 0
BBX 6 5 0 0
BITMAP
B7D200
52B000
02C671
02B096
06C6A2
ENDCHAR
STARTCHAR uni044B
ENCODING 1099
SWIDTH 728 0
DWIDTH 7 0
BBX 7 5 0 0
BITMAP
4E301B80
0D000840
0E681840
0D077840
4E6A4B80
ENDCHAR
STARTCHAR uni044C
ENCODING 1100
SWIDTH 489 0
DWIDTH 5 0
BBX 5 5 0 0
BITMAP
4E3000
0D0000
0D6820
0D0690
4E5940
ENDCHAR
STARTCHAR uni044D
ENCODING 1101
SWIDTH 467 0
DWIDTH 5 0
BBX 5 5 0 0
BITMAP
765700
400A20
047C40
000B20
379700
ENDCHAR
STARTCHAR uni044E
ENCODING 1102
SWIDTH 774 0
DWIDTH 8 0
BBX 8 5 0 0
BITMAP
5E438780
0C0B10A4
0D5E0086
0C0B1093
4E337560
ENDCHAR
STARTCHAR uni044F
ENCODING 1103
SWIDTH 518 0
DWIDTH 5 0
BBX 5 5 0 0
BITMAP
295C60
590A20
08AC20
0B3A20
7B2C60
ENDCHAR
STARTCHAR uni0450
ENCODING 1104
SWIDTH 464 0
DWIDTH 5 0
BBX 5 7 0 0
BITMAP
043000
018000
177900
886920
A30000
790220
1BC800
ENDCHAR
STARTCHAR uni0451
ENCODING 1105
SWIDTH 464 0
DWIDTH 5 0
BBX 5 7 0 0
BITMAP
2A0C00
000000
177900
886920
A30000
790220
1BC800
ENDCHAR
STARTCHAR uni0452
ENCODING 1106
SWIDTH 563 0
DWIDTH 6 0
BBX 5 10 0 -2
BITMAP
360000
1D0000
5E7300
0D7B60
0D01C0
0D00D0
0D00C0
4E30B0
001190
02C720
ENDCHAR
STARTCHAR uni0453
ENCODING 1107
SWIDTH 429 0
DWIDTH 4 0
BBX 5 7 0 0
BITMAP
006100
027000
4E6C10
0D0410
0D0000
0D0000
4E3000
ENDCHAR
STARTCHAR uni0454
ENCODING 1108
SWIDTH 460 0
DWIDTH 5 0
BBX 5 5 0 0
BITMAP
186B10
760510
997200
760010
1A9810
ENDCHAR
STARTCHAR uni0455
ENCODING 1109
SWIDTH 394 0
DWIDTH 4 0
BBX 4 5 0 0
BITMAP
4775
8603
1BC2
4069
8685
ENDCHAR
STARTCHAR uni0456
ENCODING 1110
SWIDTH 285 0
DWIDTH 3 0
BBX 3 7 0 0
BITMAP
1D00
0100
4C00
0C00
0C00
0C00
4E30
ENDCHAR
STARTCHAR uni0457
ENCODING 1111
SWIDTH 285 0
DWIDTH 3 0
BBX 4 7 -1 0
BITMAP
3B3A
0101
04C0
00C0
00C0
00C0
04E3
ENDCHAR
STARTCHAR uni0458
ENCODING 1112
SWIDTH 263 0
DWIDTH 3 0
BBX 3 9 -1 -2
BITMAP
01C0
0010
04C0
00C0
00C0
00C0
00C0
10B0
B840
ENDCHAR
STARTCHAR uni0459
ENCODING 1113
SWIDTH 742 0
DWIDTH 7 0
BBX 8 5 0 0
BITMAP
04999000
02567000
0436A760
070670D1
D60AA690
ENDCHAR
STARTCHAR uni045A
ENCODING 1114
SWIDTH 790 0
DWIDTH 8 0
BBX 8 5 0 0
BITMAP
4E33E400
0C00D000
0D55E682
0C00D04A
4E33E694
ENDCHAR
STARTCHAR uni045B
ENCODING 1115
SWIDTH 579 0
DWIDTH 6 0
BBX 6 7 0 0
BITMAP
5C0000
5D6300
0D7B60
0D01C0
0C00C0
0C00C0
4E34E3
ENDCHAR
STARTCHAR uni045C
ENCODING 1116
SWIDTH 521 0
DWIDTH 5 0
BBX 6 7 0 0
BITMAP
003400
008100
4E35C0
0D0600
0D9500
0D1C00
4E3791
ENDCHAR
STARTCHAR uni045D
ENCODING 1117
SWIDTH 609 0
DWIDTH 6 0
BBX 6 7 0 0
BITMAP
016000
007300
4E22D5
0D04E1
0D34C1
0E50C1
4E32D5
ENDCHAR
STARTCHAR uni045E
ENCODING 1118
SWIDTH 483 0
DWIDTH 5 0
BBX 6 10 -1 -2
BITMAP
005051
00C0A3
004450
1AA068
02C071
00A460
003B40
000B00
001600
0B9100
ENDCHAR
STARTCHAR uni045F
ENCODING 1119
SWIDTH 587 0
DWIDTH 6 0
BBX 6 7 0 -2
BITMAP
4E34E3
0D00C0
0D00C0
0D00C0
4E66E3
005300
007500
ENDCHAR
STARTCHAR uni0462
ENCODING 1122
SWIDTH 727 0
DWIDTH 7 0
BBX 7 8 0 0
BITMAP
03982000
87BA6930
70850350
20850020
00897810
008506B0
009504C0
02C97A30
ENDCHAR
STARTCHAR uni0463
ENCODING 1123
SWIDTH 561 0
DWIDTH 6 0
BBX 6 8 0 0
BITMAP
024000
099000
039000
B8B870
439040
03B670
039095
07B6A1
ENDCHAR
STARTCHAR uni046A
ENCODING 1130
SWIDTH 881 0
DWIDTH 9 0
BBX 10 7 -1 0
BITMAP
004F888C00
0008805400
0000C57000
00059E8300
003C1D1D10
00B41D0780
18C05E31E6
ENDCHAR
STARTCHAR uni046B
ENCODING 1131
SWIDTH 667 0
DWIDTH 7 0
BBX 8 5 -1 0
BITMAP
00BA6A40
001C2700
0029D700
00C3B680
1894D2D5
ENDCHAR
STARTCHAR uni0472
ENCODING 1138
SWIDTH 737 0
DWIDTH 7 0
BBX 7 7 0 0
BITMAP
03868700
1C100960
690004B0
7DBBBCD0
6A0003B0
1C100850
03967600
ENDCHAR
STARTCHAR uni0473
ENCODING 1139
SWIDTH 514 0
DWIDTH 5 0
BBX 5 5 0 0
BITMAP
186920
750390
9A9AC0
760390
196810
ENDCHAR
STARTCHAR uni0474
ENCODING 1140
SWIDTH 705 0
DWIDTH 7 0
BBX 8 7 0 0
BITMAP
AF3007E3
1E201910
08805400
02E19000
00C78000
006E3000
000B0000
ENDCHAR
STARTCHAR uni0475
ENCODING 1141
SWIDTH 520 0
DWIDTH 5 0
BBX 7 5 -1 0
BITMAP
1BA02C50
02B07000
00C27000
006A3000
001C0000
ENDCHAR
STARTCHAR uni0490
ENCODING 1168
SWIDTH 525 0
DWIDTH 5 0
BBX 6 9 0 0
BITMAP
000011
000072
3D9771
0A4000
0A4000
0A4000
0A4000
0A4000
3D9100
ENDCHAR
STARTCHAR uni0491
ENCODING 1169
SWIDTH 404 0
DWIDTH 4 0
BBX 4 7 0 0
BITMAP
0003
0009
4E65
0D00
0D00
0D00
4E30
ENDCHAR
STARTCHAR uni1D00
ENCODING 7424
SWIDTH 511 0
DWIDTH 5 0
BBX 7 5 -1 0
BITMAP
000D1000
005A6000
0083C000
0284D300
1A30AB10
ENDCHAR
STARTCHAR uni1D07
ENCODING 7431
SWIDTH 495 0
DWIDTH 5 0
BBX 5 5 0 0
BITMAP
3D5750
0C0410
0D6900
0C0020
4E5770
ENDCHAR
STARTCHAR uni1D1C
ENCODING 7452
SWIDTH 584 0
DWIDTH 6 0
BBX 6 5 0 0
BITMAP
6D21B4
1B0070
1B0070
1C0060
089750
ENDCHAR
STARTCHAR uni1D81
ENCODING 7553
SWIDTH 539 0
DWIDTH 5 0
BBX 6 9 0 -2
BITMAP
000970
000670
086B70
650670
A30670
860670
2D99B1
000052
000970
ENDCHAR
STARTCHAR uni1D84
ENCODING 7556
SWIDTH 542 0
DWIDTH 5 0
BBX 6 9 0 -2
BITMAP
4C0000
0C0000
0C1C70
0C5300
0DC100
0C4B00
4E3AB2
000016
000872
ENDCHAR
STARTCHAR uni1D85
ENCODING 7557
SWIDTH 283 0
DWIDTH 3 0
BBX 3 9 0 -2
BITMAP
4C00
0C00
0C00
0C00
0C00
0C00
4E30
0060
5740
ENDCHAR
STARTCHAR uni1D8A
ENCODING 7562
SWIDTH 395 0
DWIDTH 4 0
BBX 4 7 0 -2
BITMAP
4775
8603
1BB2
4069
8687
0016
0872
ENDCHAR
STARTCHAR uni1D8D
ENCODING 7565
SWIDTH 479 0
DWIDTH 5 0
BBX 5 7 0 -2
BITMAP
7E1B40
0A6500
02E100
075900
861E60
000060
002950
ENDCHAR
STARTCHAR uni1D8E
ENCODING 7566
SWIDTH 458 0
DWIDTH 5 0
BBX 5 7 0 -2
BITMAP
777E10
309600
04B000
1C2220
8B6B30
000520
00A600
ENDCHAR
STARTCHAR uni1D98
ENCODING 7576
SWIDTH 368 0
DWIDTH 4 0
BBX 5 9 0 -2
BITMAP
006790
00C000
00C000
00C000
00C000
00C000
C77000
700000
592000
ENDCHAR
STARTCHAR uni1D9B
ENCODING 7579
SWIDTH 462 0
DWIDTH 5 0
BBX 5 4 0 3
BITMAP
8A9A00
470930
470820
4A6600
ENDCHAR
STARTCHAR uni1DA3
ENCODING 7587
SWIDTH 488 0
DWIDTH 5 0
BBX 5 6 0 1
BITMAP
7B2D40
380B00
390B00
0B8C00
000B00
000A40
ENDCHAR
STARTCHAR uni1E00
ENCODING 7680
SWIDTH 718 0
DWIDTH 7 0
BBX 8 10 0 -3
BITMAP
000C0000
004C5000
0084B000
0170D300
0776B900
08002E10
8A103EA1
00371000
00725000
00371000
ENDCHAR
STARTCHAR uni1E01
ENCODING 7681
SWIDTH 480 0
DWIDTH 5 0
BBX 5 8 0 -3
BITMAP
277700
330C00
066D00
850C00
6C7C40
047100
073400
047100
ENDCHAR
STARTCHAR uni1E02
ENCODING 7682
SWIDTH 618 0
DWIDTH 6 0
BBX 6 8 0 0
BITMAP
007600
3D97A2
0A4087
0A4094
0A89A1
0A407A
0A404B
3D8593
ENDCHAR
STARTCHAR uni1E03
ENCODING 7683
SWIDTH 522 0
DWIDTH 5 0
BBX 5 8 0 0
BITMAP
00C000
791000
390000
3B9D40
3A04B0
3901D0
3903A0
2B6820
ENDCHAR
STARTCHAR uni1E04
ENCODING 7684
SWIDTH 618 0
DWIDTH 6 0
BBX 6 9 0 -2
BITMAP
3D87A2
0A4087
0A4094
0A89A1
0A407A
0A404B
3D8593
000000
007500
ENDCHAR
STARTCHAR uni1E05
ENCODING 7685
SWIDTH 522 0
DWIDTH 5 0
BBX 5 9 0 -2
BITMAP
790000
390000
3B9D40
3A04B0
3901D0
3903A0
2B6820
000000
00C000
ENDCHAR
STARTCHAR uni1E06
ENCODING 7686
SWIDTH 618 0
DWIDTH 6 0
BBX 6 9 0 -2
BITMAP
3D87A2
0A4087
0A4094
0A89A1
0A407A
0A404B
3D8593
000000
048830
ENDCHAR
STARTCHAR uni1E07
ENCODING 7687
SWIDTH 522 0
DWIDTH 5 0
BBX 5 9 0 -2
BITMAP
790000
390000
3B9D40
3A04B0
3901D0
3903A0
2B6820
000000
088800
ENDCHAR
STARTCHAR uni1E08
ENCODING 7688
SWIDTH 670 0
DWIDTH 7 0
BBX 7 11 0 -2
BITMAP
00026000
00092000
03979F10
1D100810
6A000200
79000000
6A000000
1E300310
03BB9600
00073000
00163000
ENDCHAR
STARTCHAR uni1E09
ENCODING 7689
SWIDTH 446 0
DWIDTH 4 0
BBX 5 9 0 -2
BITMAP
004300
009000
177B00
730600
A20000
870210
2CB800
008200
027400
ENDCHAR
STARTCHAR uni1E0A
ENCODING 7690
SWIDTH 730 0
DWIDTH 7 0
BBX 7 8 0 0
BITMAP
001C0000
3D889500
0A400C50
0A4006A0
0A4004C0
0A4005A0
0A400A40
3D868500
ENDCHAR
STARTCHAR uni1E0B
ENCODING 7691
SWIDTH 539 0
DWIDTH 5 0
BBX 6 8 0 0
BITMAP
00B200
001970
000670
086B70
650670
A30670
860670
2D99A1
ENDCHAR
STARTCHAR uni1E0C
ENCODING 7692
SWIDTH 730 0
DWIDTH 7 0
BBX 7 9 0 -2
BITMAP
3D879500
0A400C50
0A4006A0
0A4004C0
0A4005A0
0A400A40
3D868500
00000000
00390000
ENDCHAR
STARTCHAR uni1E0D
ENCODING 7693
SWIDTH 539 0
DWIDTH 5 0
BBX 6 9 0 -2
BITMAP
000970
000670
086B70
650670
A30670
860670
2D99A1
000000
00A200
ENDCHAR
STARTCHAR uni1E0E
ENCODING 7694
SWIDTH 730 0
DWIDTH 7 0
BBX 7 9 0 -2
BITMAP
3D879500
0A400C50
0A4006A0
0A4004C0
0A4005A0
0A400A40
3D868500
00000000
02886000
ENDCHAR
STARTCHAR uni1E0F
ENCODING 7695
SWIDTH 539 0
DWIDTH 5 0
BBX 6 9 0 -2
BITMAP
000970
000670
086B70
650670
A30670
860670
2D99A1
000000
068810
ENDCHAR
STARTCHAR uni1E10
ENCODING 7696
SWIDTH 730 0
DWIDTH 7 0
BBX 7 11 0 -4
BITMAP
3D879500
0A400C50
0A4006A0
0A4004C0
0A4005A0
0A400A40
3D868500
00000000
004B0000
00170000
00100000
ENDCHAR
STARTCHAR uni1E11
ENCODING 7697
SWIDTH 539 0
DWIDTH 5 0
BBX 6 11 0 -4
BITMAP
000970
000670
086B70
650670
A30670
860670
2D99A1
000000
00C300
006200
001000
ENDCHAR
STARTCHAR uni1E12
ENCODING 7698
SWIDTH 730 0
DWIDTH 7 0
BBX 7 9 0 -2
BITMAP
3D879500
0A400C50
0A4006A0
0A4004C0
0A4005A0
0A400A40
3D868500
00250000
00854000
ENDCHAR
STARTCHAR uni1E13
ENCODING 7699
SWIDTH 539 0
DWIDTH 5 0
BBX 6 9 0 -2
BITMAP
000970
000670
086B70
650670
A30670
860670
2D99A1
006100
055700
ENDCHAR
STARTCHAR uni1E14
ENCODING 7700
SWIDTH 626 0
DWIDTH 6 0
BBX 6 10 0 0
BITMAP
006200
002900
028860
3D9789
0A4004
0A4060
0A97B0
0A4021
0A4007
3D978B
ENDCHAR
STARTCHAR uni1E15
ENCODING 7701
SWIDTH 464 0
DWIDTH 5 0
BBX 5 8 0 0
BITMAP
043000
0AF700
000000
177900
886920
A30000
790220
1BC800
ENDCHAR
STARTCHAR uni1E16
ENCODING 7702
SWIDTH 626 0
DWIDTH 6 0
BBX 6 10 0 0
BITMAP
000720
006600
028860
3D9789
0A4004
0A4060
0A97B0
0A4021
0A4007
3D978B
ENDCHAR
STARTCHAR uni1E17
ENCODING 7703
SWIDTH 464 0
DWIDTH 5 0
BBX 5 8 0 0
BITMAP
004300
09F800
000000
177900
886920
A30000
790220
1BC800
ENDCHAR
STARTCHAR uni1E18
ENCODING 7704
SWIDTH 626 0
DWIDTH 6 0
BBX 6 9 0 -2
BITMAP
3D9789
0A4004
0A4060
0A97B0
0A4021
0A4007
3D978B
002500
008530
ENDCHAR
STARTCHAR uni1E19
ENCODING 7705
SWIDTH 464 0
DWIDTH 5 0
BBX 5 7 0 -2
BITMAP
177900
886920
A30000
790220
1BC800
017000
074600
ENDCHAR
STARTCHAR uni1E1A
ENCODING 7706
SWIDTH 626 0
DWIDTH 6 0
BBX 6 9 0 -2
BITMAP
3D9789
0A4004
0A4060
0A97B0
0A4021
0A4007
3D978B
000000
03EF70
ENDCHAR
STARTCHAR uni1E1B
ENCODING 7707
SWIDTH 464 0
DWIDTH 5 0
BBX 5 7 0 -2
BITMAP
177900
886920
A30000
790220
1BC800
000000
1DFA00
ENDCHAR
STARTCHAR uni1E1C
ENCODING 7708
SWIDTH 626 0
DWIDTH 6 0
BBX 6 11 0 -2
BITMAP
022040
009A30
3D9789
0A4004
0A4060
0A97B0
0A4021
0A4007
3D988B
002810
003710
ENDCHAR
STARTCHAR uni1E1D
ENCODING 7709
SWIDTH 464 0
DWIDTH 5 0
BBX 5 9 0 -2
BITMAP
040400
0AE700
177900
886920
A30000
790220
1BD800
008200
027200
ENDCHAR
STARTCHAR uni1E1E
ENCODING 7710
SWIDTH 588 0
DWIDTH 6 0
BBX 6 8 0 0
BITMAP
003A00
3D988A
0A4004
0A4060
0A97B0
0A4020
0A4000
3D9100
ENDCHAR
STARTCHAR uni1E1F
ENCODING 7711
SWIDTH 307 0
DWIDTH 3 0
BBX 4 8 0 0
BITMAP
0D00
0878
0C00
5E70
0C00
0C00
0D00
5E50
ENDCHAR
STARTCHAR uni1E20
ENCODING 7712
SWIDTH 720 0
DWIDTH 7 0
BBX 7 8 0 0
BITMAP
00688200
03979F10
1D100810
6A000100
79003A60
6A000B30
1D100B30
04A78910
ENDCHAR
STARTCHAR uni1E21
ENCODING 7713
SWIDTH 484 0
DWIDTH 5 0
BBX 5 9 0 -2
BITMAP
088700
000000
197E50
670C10
3A6500
340000
5EBA40
710180
7B8720
ENDCHAR
STARTCHAR uni1E22
ENCODING 7714
SWIDTH 777 0
DWIDTH 8 0
BBX 8 8 0 0
BITMAP
00085000
3D922BB2
0A400770
0A400770
0A866A70
0A400770
0A400770
3D912BB2
ENDCHAR
STARTCHAR uni1E23
ENCODING 7715
SWIDTH 577 0
DWIDTH 6 0
BBX 6 8 0 0
BITMAP
007600
4C1000
0C0000
0D7C60
0D02C0
0C00C0
0C00C0
4E35E3
ENDCHAR
STARTCHAR uni1E24
ENCODING 7716
SWIDTH 777 0
DWIDTH 8 0
BBX 8 9 0 -2
BITMAP
3D912BB2
0A400770
0A400770
0A866A70
0A400770
0A400770
3D912BB2
00000000
00085000
ENDCHAR
STARTCHAR uni1E25
ENCODING 7717
SWIDTH 577 0
DWIDTH 6 0
BBX 6 9 0 -2
BITMAP
4C0000
0C0000
0D7C60
0D02C0
0C00C0
0C00C0
4E35E3
000000
007500
ENDCHAR
STARTCHAR uni1E26
ENCODING 7718
SWIDTH 777 0
DWIDTH 8 0
BBX 8 8 0 0
BITMAP
00936600
3DA13CB2
0A400770
0A400770
0A866A70
0A400770
0A400770
3D912BB2
ENDCHAR
STARTCHAR uni1E27
ENCODING 7719
SWIDTH 577 0
DWIDTH 6 0
BBX 6 8 0 0
BITMAP
094670
4D0000
0C0000
0D7C60
0D02C0
0C00C0
0C00C0
4E35E3
ENDCHAR
STARTCHAR uni1E28
ENCODING 7720
SWIDTH 777 0
DWIDTH 8 0
BBX 8 9 0 -2
BITMAP
3D912BB2
0A400770
0A400770
0A866A70
0A400770
0A400770
3E912BB2
06500000
05500000
ENDCHAR
STARTCHAR uni1E29
ENCODING 7721
SWIDTH 577 0
DWIDTH 6 0
BBX 6 9 0 -2
BITMAP
4C0000
0C0000
0D7C60
0D02C0
0C00C0
0C00C0
4F35E3
082000
272000
ENDCHAR
STARTCHAR uni1E2A
ENCODING 7722
SWIDTH 777 0
DWIDTH 8 0
BBX 8 9 0 -2
BITMAP
3D912BB2
0A400770
0A400770
0A866A70
0A400770
0A400770
3D912BB2
00312200
003ED100
ENDCHAR
STARTCHAR uni1E2B
ENCODING 7723
SWIDTH 577 0
DWIDTH 6 0
BBX 6 9 0 -2
BITMAP
4C0000
0C0000
0D7C60
0D02C0
0C00C0
0C00C0
4E35E3
031120
03ED10
ENDCHAR
STARTCHAR uni1E2C
ENCODING 7724
SWIDTH 357 0
DWIDTH 4 0
BBX 4 9 0 -2
BITMAP
3D91
0A40
0A40
0A40
0A40
0A40
3D91
0000
9FE2
ENDCHAR
STARTCHAR uni1E2D
ENCODING 7725
SWIDTH 285 0
DWIDTH 3 0
BBX 4 9 -1 -2
BITMAP
01D0
0010
04C0
00C0
00C0
00C0
04E3
0000
1DFB
ENDCHAR
STARTCHAR uni1E2E
ENCODING 7726
SWIDTH 357 0
DWIDTH 4 0
BBX 4 10 0 0
BITMAP
0260
0920
B285
4D91
0A40
0A40
0A40
0A40
0A40
3D91
ENDCHAR
STARTCHAR uni1E2F
ENCODING 7727
SWIDTH 285 0
DWIDTH 3 0
BBX 4 9 -1 0
BITMAP
0052
0180
3B3A
0101
04C0
00C0
00C0
00C0
04E3
ENDCHAR
STARTCHAR uni1E30
ENCODING 7728
SWIDTH 702 0
DWIDTH 7 0
BBX 7 9 0 0
BITMAP
00044000
00291000
3D919B30
0A418000
0A480000
0AC50000
0A5C4000
0A42D400
3D919E60
ENDCHAR
STARTCHAR uni1E31
ENCODING 7729
SWIDTH 542 0
DWIDTH 5 0
BBX 6 9 0 0
BITMAP
003600
019200
4C0000
0C0000
0C1C70
0C5300
0DC100
0C4B00
4E3AB2
ENDCHAR
STARTCHAR uni1E32
ENCODING 7730
SWIDTH 702 0
DWIDTH 7 0
BBX 7 9 0 -2
BITMAP
3D919B30
0A418000
0A480000
0AC50000
0A5C4000
0A42D400
3D919E60
00000000
000C0000
ENDCHAR
STARTCHAR uni1E33
ENCODING 7731
SWIDTH 542 0
DWIDTH 5 0
BBX 6 9 0 -2
BITMAP
4C0000
0C0000
0C1C70
0C5300
0DC100
0C4B00
4E3AB2
000000
00A200
ENDCHAR
STARTCHAR uni1E34
ENCODING 7732
SWIDTH 702 0
DWIDTH 7 0
BBX 7 9 0 -2
BITMAP
3D919B30
0A418000
0A480000
0AC50000
0A5C4000
0A42D400
3D919E60
00000000
00888000
ENDCHAR
STARTCHAR uni1E35
ENCODING 7733
SWIDTH 542 0
DWIDTH 5 0
BBX 6 9 0 -2
BITMAP
4C0000
0C0000
0C1C70
0C5300
0DC100
0C4B00
4E3AB2
000000
068820
ENDCHAR
STARTCHAR uni1E36
ENCODING 7734
SWIDTH 585 0
DWIDTH 6 0
BBX 6 9 0 -2
BITMAP
3D9100
0A4000
0A4000
0A4000
0A4000
0A4007
3DA7A7
000000
008500
ENDCHAR
STARTCHAR uni1E37
ENCODING 7735
SWIDTH 283 0
DWIDTH 3 0
BBX 3 9 0 -2
BITMAP
4C00
0C00
0C00
0C00
0C00
0C00
4E30
0000
1B00
ENDCHAR
STARTCHAR uni1E38
ENCODING 7736
SWIDTH 585 0
DWIDTH 6 0
BBX 6 10 0 -2
BITMAP
588200
3D9100
0A4000
0A4000
0A4000
0A4000
0A4007
3DA7A7
000000
008500
ENDCHAR
STARTCHAR uni1E39
ENCODING 7737
SWIDTH 283 0
DWIDTH 3 0
BBX 3 10 0 -2
BITMAP
8870
4C00
0C00
0C00
0C00
0C00
0C00
4E30
0000
1B00
ENDCHAR
STARTCHAR uni1E3A
ENCODING 7738
SWIDTH 585 0
DWIDTH 6 0
BBX 6 9 0 -2
BITMAP
3D9100
0A4000
0A4000
0A4000
0A4000
0A4007
3DA7A7
000000
058830
ENDCHAR
STARTCHAR uni1E3B
ENCODING 7739
SWIDTH 283 0
DWIDTH 3 0
BBX 3 9 0 -2
BITMAP
4C00
0C00
0C00
0C00
0C00
0C00
4E30
0000
8870
ENDCHAR
STARTCHAR uni1E3C
ENCODING 7740
SWIDTH 585 0
DWIDTH 6 0
BBX 6 9 0 -2
BITMAP
3D9100
0A4000
0A4000
0A4000
0A4000
0A4007
3DA7A7
005300
036710
ENDCHAR
STARTCHAR uni1E3D
ENCODING 7741
SWIDTH 283 0
DWIDTH 3 0
BBX 3 9 0 -2
BITMAP
4C00
0C00
0C00
0C00
0C00
0C00
4E30
1700
7450
ENDCHAR
STARTCHAR uni1E3E
ENCODING 7742
SWIDTH 895 0
DWIDTH 9 0
BBX 9 9 0 0
BITMAP
0000530000
0004700000
4E80009D20
09D001C900
07B5066900
074B084900
070D554900
0707D04900
4D31819D20
ENDCHAR
STARTCHAR uni1E3F
ENCODING 7743
SWIDTH 852 0
DWIDTH 9 0
BBX 9 7 0 0
BITMAP
0000520000
0001900000
4C6A77C400
0D02C05800
0C01B04800
0C01B04800
4E36D28C10
ENDCHAR
STARTCHAR uni1E40
ENCODING 7744
SWIDTH 895 0
DWIDTH 9 0
BBX 9 8 0 0
BITMAP
0002B00000
4E80109D20
09D001C900
07B5066900
074B084900
070D554900
0707D04900
4D31819D20
ENDCHAR
STARTCHAR uni1E41
ENCODING 7745
SWIDTH 852 0
DWIDTH 9 0
BBX 9 7 0 0
BITMAP
0002A00000
0000000000
4C6A77C400
0D02C05800
0C01B04800
0C01B04800
4E36D28C10
ENDCHAR
STARTCHAR uni1E42
ENCODING 7746
SWIDTH 895 0
DWIDTH 9 0
BBX 9 9 0 -2
BITMAP
4E80009D20
09D001C900
07B5066900
074B084900
070D554900
0707D04900
4D31819D20
0000000000
0003900000
ENDCHAR
STARTCHAR uni1E43
ENCODING 7747
SWIDTH 852 0
DWIDTH 9 0
BBX 9 7 0 -2
BITMAP
4C6A77C400
0D02C05800
0C01B04800
0C01B04800
4E36D28C10
0000000000
0002A00000
ENDCHAR
STARTCHAR uni1E44
ENCODING 7748
SWIDTH 742 0
DWIDTH 7 0
BBX 8 8 0 0
BITMAP
000A3000
4E511A91
0AE20440
077B0440
070A7440
0701D740
08003E40
4D300740
ENDCHAR
STARTCHAR uni1E45
ENCODING 7749
SWIDTH 576 0
DWIDTH 6 0
BBX 6 7 0 0
BITMAP
006600
000000
5C7B60
0D01C0
0C00C0
0C00C0
4E35E3
ENDCHAR
STARTCHAR uni1E46
ENCODING 7750
SWIDTH 742 0
DWIDTH 7 0
BBX 8 9 0 -2
BITMAP
4E501A91
0AE20440
077B0440
070A7440
0701D740
08003E40
4D300740
00000000
000C1000
ENDCHAR
STARTCHAR uni1E47
ENCODING 7751
SWIDTH 576 0
DWIDTH 6 0
BBX 6 7 0 -2
BITMAP
5C7B60
0D01C0
0C00C0
0C00C0
4E35E3
000000
008500
ENDCHAR
STARTCHAR uni1E48
ENCODING 7752
SWIDTH 742 0
DWIDTH 7 0
BBX 8 9 0 -2
BITMAP
4E501A91
0AE20440
077B0440
070A7440
0701D740
08003E40
4D300740
00000000
00788000
ENDCHAR
STARTCHAR uni1E49
ENCODING 7753
SWIDTH 576 0
DWIDTH 6 0
BBX 6 7 0 -2
BITMAP
5C7B60
0D01C0
0C00C0
0C00C0
4E35E3
000000
058830
ENDCHAR
STARTCHAR uni1E4A
ENCODING 7754
SWIDTH 742 0
DWIDTH 7 0
BBX 8 9 0 -2
BITMAP
4E501A91
0AE20440
077B0440
070A7440
0701D740
08003E40
4D300740
00071000
00647000
ENDCHAR
STARTCHAR uni1E4B
ENCODING 7755
SWIDTH 576 0
DWIDTH 6 0
BBX 6 7 0 -2
BITMAP
5C7B60
0D01C0
0C00C0
0C00C0
4E35E3
005300
036710
ENDCHAR
STARTCHAR uni1E4C
ENCODING 7756
SWIDTH 738 0
DWIDTH 7 0
BBX 7 10 0 0
BITMAP
00035000
00191000
006A9100
03978700
1D100960
5A0004B0
790003D0
5A0004B0
1D100950
03977600
ENDCHAR
STARTCHAR uni1E4D
ENCODING 7757
SWIDTH 514 0
DWIDTH 5 0
BBX 5 9 0 0
BITMAP
003500
008100
000000
069810
196920
760490
9402C0
760390
196820
ENDCHAR
STARTCHAR uni1E4E
ENCODING 7758
SWIDTH 738 0
DWIDTH 7 0
BBX 7 9 0 0
BITMAP
00C19300
006AA100
03978700
1D100960
5A0004B0
790003D0
5A0004B0
1D100950
03977600
ENDCHAR
STARTCHAR uni1E4F
ENCODING 7759
SWIDTH 514 0
DWIDTH 5 0
BBX 5 8 0 0
BITMAP
0C0A20
000000
069810
196920
760490
9402C0
760390
196820
ENDCHAR
STARTCHAR uni1E50
ENCODING 7760
SWIDTH 738 0
DWIDTH 7 0
BBX 7 10 0 0
BITMAP
00260000
00074000
00688100
03978700
1D100960
5A0004B0
790003D0
5A0004B0
1D100950
03977600
ENDCHAR
STARTCHAR uni1E51
ENCODING 7761
SWIDTH 514 0
DWIDTH 5 0
BBX 5 8 0 0
BITMAP
034000
07F910
000000
196920
760490
9402C0
760390
196820
ENDCHAR
STARTCHAR uni1E52
ENCODING 7762
SWIDTH 738 0
DWIDTH 7 0
BBX 7 10 0 0
BITMAP
00035000
00191000
00688100
03978700
1D100960
5A0004B0
790003D0
5A0004B0
1D100950
03977600
ENDCHAR
STARTCHAR uni1E53
ENCODING 7763
SWIDTH 514 0
DWIDTH 5 0
BBX 5 8 0 0
BITMAP
003500
07FA10
000000
196920
760490
9402C0
760390
196820
ENDCHAR
STARTCHAR uni1E54
ENCODING 7764
SWIDTH 569 0
DWIDTH 6 0
BBX 6 9 0 0
BITMAP
001700
008300
3D87A1
0A4096
0A40B3
0A8740
0A4000
0A4000
3D9100
ENDCHAR
STARTCHAR uni1E55
ENCODING 7765
SWIDTH 537 0
DWIDTH 5 0
BBX 5 9 0 -2
BITMAP
002500
008200
5C8C50
1D01D0
1C00D0
1C01B0
1E7830
1C0000
5E4000
ENDCHAR
STARTCHAR uni1E56
ENCODING 7766
SWIDTH 569 0
DWIDTH 6 0
BBX 6 8 0 0
BITMAP
008500
3D98A1
0A4096
0A40B3
0A8740
0A4000
0A4000
3D9100
ENDCHAR
STARTCHAR uni1E57
ENCODING 7767
SWIDTH 537 0
DWIDTH 5 0
BBX 5 9 0 -2
BITMAP
00A200
000000
5C8C50
1D01D0
1C00D0
1C01B0
1E7830
1C0000
5E4000
ENDCHAR
STARTCHAR uni1E58
ENCODING 7768
SWIDTH 659 0
DWIDTH 7 0
BBX 7 8 0 0
BITMAP
00580000
3D97A100
0A409600
0A40B400
0A9C3000
0A488000
0A41D300
3D915D30
ENDCHAR
STARTCHAR uni1E59
ENCODING 7769
SWIDTH 380 0
DWIDTH 4 0
BBX 4 7 0 0
BITMAP
0750
0000
4C89
0E11
0C00
0C00
4E40
ENDCHAR
STARTCHAR uni1E5A
ENCODING 7770
SWIDTH 659 0
DWIDTH 7 0
BBX 7 9 0 -2
BITMAP
3D86A100
0A409600
0A40B400
0A9C3000
0A488000
0A41D300
3D915D30
00000000
002A0000
ENDCHAR
STARTCHAR uni1E5B
ENCODING 7771
SWIDTH 380 0
DWIDTH 4 0
BBX 4 7 0 -2
BITMAP
4C89
0E11
0C00
0C00
4E40
0000
0C00
ENDCHAR
STARTCHAR uni1E5C
ENCODING 7772
SWIDTH 659 0
DWIDTH 7 0
BBX 7 10 0 -2
BITMAP
03885000
3D86A100
0A409600
0A40B400
0A9C3000
0A488000
0A41D300
3D915D30
00000000
002A0000
ENDCHAR
STARTCHAR uni1E5D
ENCODING 7773
SWIDTH 380 0
DWIDTH 4 0
BBX 4 9 0 -2
BITMAP
4883
0000
4C89
0E11
0C00
0C00
4E40
0000
0C00
ENDCHAR
STARTCHAR uni1E5E
ENCODING 7774
SWIDTH 659 0
DWIDTH 7 0
BBX 7 9 0 -2
BITMAP
3D86A100
0A409600
0A40B400
0A9C3000
0A488000
0A41D300
3D915D30
00000000
01887000
ENDCHAR
STARTCHAR uni1E5F
ENCODING 7775
SWIDTH 380 0
DWIDTH 4 0
BBX 4 7 0 -2
BITMAP
4C89
0E11
0C00
0C00
4E40
0000
8880
ENDCHAR
STARTCHAR uni1E60
ENCODING 7776
SWIDTH 504 0
DWIDTH 5 0
BBX 5 8 0 0
BITMAP
00C000
198C50
760260
4D4000
05E910
101B80
8004A0
9B7920
ENDCHAR
STARTCHAR uni1E61
ENCODING 7777
SWIDTH 394 0
DWIDTH 4 0
BBX 4 7 0 0
BITMAP
0660
0000
4775
8603
1BC2
4069
8685
ENDCHAR
STARTCHAR uni1E62
ENCODING 7778
SWIDTH 504 0
DWIDTH 5 0
BBX 5 9 0 -2
BITMAP
197C50
760260
4D4000
05E910
101B80
8004A0
9B7920
000000
01C000
ENDCHAR
STARTCHAR uni1E63
ENCODING 7779
SWIDTH 394 0
DWIDTH 4 0
BBX 4 7 0 -2
BITMAP
4775
8603
1BC2
4069
8685
0000
0750
ENDCHAR
STARTCHAR uni1E64
ENCODING 7780
SWIDTH 504 0
DWIDTH 5 0
BBX 5 9 0 0
BITMAP
011710
08A400
197C50
760260
4D4000
05E910
101B80
8004A0
9B7920
ENDCHAR
STARTCHAR uni1E65
ENCODING 7781
SWIDTH 394 0
DWIDTH 4 0
BBX 4 8 0 0
BITMAP
1700
0261
0270
4775
8603
1BC2
4069
8685
ENDCHAR
STARTCHAR uni1E66
ENCODING 7782
SWIDTH 504 0
DWIDTH 5 0
BBX 5 10 0 0
BITMAP
004000
047400
03C400
197C50
760260
4D4000
05E910
101B80
8004A0
9B7920
ENDCHAR
STARTCHAR uni1E67
ENCODING 7783
SWIDTH 394 0
DWIDTH 4 0
BBX 4 8 0 0
BITMAP
0440
2332
0990
4775
8603
1BC2
4069
8685
ENDCHAR
STARTCHAR uni1E68
ENCODING 7784
SWIDTH 504 0
DWIDTH 5 0
BBX 5 10 0 -2
BITMAP
00C000
198C50
760260
4D4000
05E910
101B80
8004A0
9B7920
000000
01C000
ENDCHAR
STARTCHAR uni1E69
ENCODING 7785
SWIDTH 394 0
DWIDTH 4 0
BBX 4 9 0 -2
BITMAP
0660
0000
4775
8603
1BC2
4069
8685
0000
0750
ENDCHAR
STARTCHAR uni1E6A
ENCODING 7786
SWIDTH 603 0
DWIDTH 6 0
BBX 6 8 0 0
BITMAP
006700
B8BB7B
507706
007700
007700
007700
007700
02BB20
ENDCHAR
STARTCHAR uni1E6B
ENCODING 7787
SWIDTH 315 0
DWIDTH 3 0
BBX 3 8 0 0
BITMAP
0B10
0300
1A00
4D60
1B00
1B00
1B00
0C70
ENDCHAR
STARTCHAR uni1E6C
ENCODING 7788
SWIDTH 603 0
DWIDTH 6 0
BBX 6 9 0 -2
BITMAP
B8BB7B
507706
007700
007700
007700
007700
02BB20
000000
006600
ENDCHAR
STARTCHAR uni1E6D
ENCODING 7789
SWIDTH 315 0
DWIDTH 3 0
BBX 3 9 0 -2
BITMAP
0300
1A00
4D60
1B00
1B00
1B00
0C70
0000
0840
ENDCHAR
STARTCHAR uni1E6E
ENCODING 7790
SWIDTH 603 0
DWIDTH 6 0
BBX 6 9 0 -2
BITMAP
B8BB7B
507706
007700
007700
007700
007700
02BB20
000000
048840
ENDCHAR
STARTCHAR uni1E6F
ENCODING 7791
SWIDTH 315 0
DWIDTH 3 0
BBX 4 9 0 -2
BITMAP
0300
1A00
4D60
1B00
1B00
1B00
0C70
0000
5883
ENDCHAR
STARTCHAR uni1E70
ENCODING 7792
SWIDTH 603 0
DWIDTH 6 0
BBX 6 9 0 -2
BITMAP
B8BB7B
507706
007700
007700
007700
007700
02BB20
004400
027720
ENDCHAR
STARTCHAR uni1E71
ENCODING 7793
SWIDTH 315 0
DWIDTH 3 0
BBX 4 9 0 -2
BITMAP
0300
1A00
4D60
1B00
1B00
1B00
0C70
0530
3671
ENDCHAR
STARTCHAR uni1E72
ENCODING 7794
SWIDTH 752 0
DWIDTH 8 0
BBX 8 9 0 -2
BITMAP
4E8019B2
0C100360
0C100360
0C100360
0C200350
09600620
02BA9600
00000000
00A28400
ENDCHAR
STARTCHAR uni1E73
ENCODING 7795
SWIDTH 570 0
DWIDTH 6 0
BBX 6 7 0 -2
BITMAP
6B07A0
1B02B0
1B02B0
1C02B0
0A97C2
000000
0B1840
ENDCHAR
STARTCHAR uni1E74
ENCODING 7796
SWIDTH 752 0
DWIDTH 8 0
BBX 8 9 0 -2
BITMAP
4E8019B2
0C100360
0C100360
0C100360
0C200350
09600620
02BA9600
00000000
009FE200
ENDCHAR
STARTCHAR uni1E75
ENCODING 7797
SWIDTH 570 0
DWIDTH 6 0
BBX 6 7 0 -2
BITMAP
6B07A0
1B02B0
1B02B0
1C02B0
0A97C2
000000
09FE20
ENDCHAR
STARTCHAR uni1E76
ENCODING 7798
SWIDTH 752 0
DWIDTH 8 0
BBX 8 9 0 -2
BITMAP
4E8019B2
0C100360
0C100360
0C100360
0C200350
09600620
02BA9600
00052000
00468000
ENDCHAR
STARTCHAR uni1E77
ENCODING 7799
SWIDTH 570 0
DWIDTH 6 0
BBX 6 7 0 -2
BITMAP
6B07A0
1B02B0
1B02B0
1C02B0
0A97C2
006200
045800
ENDCHAR
STARTCHAR uni1E78
ENCODING 7800
SWIDTH 752 0
DWIDTH 8 0
BBX 8 10 0 0
BITMAP
00017000
00084000
00399400
4E8019B2
0C100360
0C100360
0C100360
0C200350
09600620
02BA9600
ENDCHAR
STARTCHAR uni1E79
ENCODING 7801
SWIDTH 570 0
DWIDTH 6 0
BBX 6 9 0 0
BITMAP
002600
007200
000000
059810
6B07A0
1B02B0
1B02B0
1C02B0
0A97C2
ENDCHAR
STARTCHAR uni1E7A
ENCODING 7802
SWIDTH 752 0
DWIDTH 8 0
BBX 8 9 0 0
BITMAP
00855800
00488400
4E8019B2
0C100360
0C100360
0C100360
0C200350
09600620
02BA9600
ENDCHAR
STARTCHAR uni1E7B
ENCODING 7803
SWIDTH 570 0
DWIDTH 6 0
BBX 6 8 0 0
BITMAP
0B1840
068820
000000
6B07A0
1B02B0
1B02B0
1C02B0
0A97C2
ENDCHAR
STARTCHAR uni1E7C
ENCODING 7804
SWIDTH 680 0
DWIDTH 7 0
BBX 7 8 0 0
BITMAP
008A8000
AF301B70
1E200900
08802600
02D07100
00C48000
006D3000
000B0000
ENDCHAR
STARTCHAR uni1E7D
ENCODING 7805
SWIDTH 481 0
DWIDTH 5 0
BBX 6 6 -1 0
BITMAP
007980
1AA069
02B071
00C270
006A40
001C00
ENDCHAR
STARTCHAR uni1E7E
ENCODING 7806
SWIDTH 680 0
DWIDTH 7 0
BBX 7 9 0 -2
BITMAP
AF301B70
1E200900
08802600
02D07100
00C48000
006D3000
000B0000
00000000
001C0000
ENDCHAR
STARTCHAR uni1E7F
ENCODING 7807
SWIDTH 481 0
DWIDTH 5 0
BBX 6 7 -1 -2
BITMAP
1AA069
02B071
00C270
006A40
001C00
000000
001B00
ENDCHAR
STARTCHAR Wgrave
ENCODING 7808
SWIDTH 944 0
DWIDTH 9 0
BBX 10 9 0 0
BITMAP
0003500000
0000830000
AE34E704D2
1E10960160
09608B0620
04C07D2800
00D6488700
007D03F200
0028009000
ENDCHAR
STARTCHAR wgrave
ENCODING 7809
SWIDTH 749 0
DWIDTH 7 0
BBX 9 7 -1 0
BITMAP
0002500000
0000810000
1AA2C70B40
02B0780700
00B27C2500
006A399000
001C049000
ENDCHAR
STARTCHAR Wacute
ENCODING 7810
SWIDTH 944 0
DWIDTH 9 0
BBX 10 9 0 0
BITMAP
0000450000
0001910000
AE34E704D2
1E10960160
09608B0620
04C07D2800
00D6488700
007D03F200
0028009000
ENDCHAR
STARTCHAR wacute
ENCODING 7811
SWIDTH 749 0
DWIDTH 7 0
BBX 9 7 -1 0
BITMAP
0000260000
0000720000
1AA2C70B40
02B0780700
00B27C2500
006A399000
001C049000
ENDCHAR
STARTCHAR Wdieresis
ENCODING 7812
SWIDTH 944 0
DWIDTH 9 0
BBX 10 8 0 0
BITMAP
000C0A2000
AE35E804D2
1E10960160
09608B0620
04C07D2800
00D6488700
007D03F200
0028009000
ENDCHAR
STARTCHAR wdieresis
ENCODING 7813
SWIDTH 749 0
DWIDTH 7 0
BBX 9 7 -1 0
BITMAP
000B184000
0000000000
1AA2C70B40
02B0780700
00B27C2500
006A399000
001C049000
ENDCHAR
STARTCHAR uni1E86
ENCODING 7814
SWIDTH 944 0
DWIDTH 9 0
BBX 10 8 0 0
BITMAP
0000C10000
AE34F704D2
1E10960160
09608B0620
04C07D2800
00D6488700
007D03F200
0028009000
ENDCHAR
STARTCHAR uni1E87
ENCODING 7815
SWIDTH 749 0
DWIDTH 7 0
BBX 9 7 -1 0
BITMAP
0000A30000
0000000000
1AA2C70B40
02B0780700
00B27C2500
006A399000
001C049000
ENDCHAR
STARTCHAR uni1E88
ENCODING 7816
SWIDTH 944 0
DWIDTH 9 0
BBX 10 9 0 -2
BITMAP
AE34E704D2
1E10960160
09608B0620
04C07D2800
00D6488700
007D03F200
0028009000
0000000000
0000930000
ENDCHAR
STARTCHAR uni1E89
ENCODING 7817
SWIDTH 749 0
DWIDTH 7 0
BBX 9 7 -1 -2
BITMAP
1AA2C70B40
02B0780700
00B27C2500
006A399000
001C049000
0000000000
0000A30000
ENDCHAR
STARTCHAR uni1E8A
ENCODING 7818
SWIDTH 664 0
DWIDTH 7 0
BBX 7 8 0 0
BITMAP
001C0000
5E916B30
06B08100
00B84000
004D1000
00888000
0721D300
7C11BD30
ENDCHAR
STARTCHAR uni1E8B
ENCODING 7819
SWIDTH 479 0
DWIDTH 5 0
BBX 5 7 0 0
BITMAP
01C000
000000
7E1B40
0A6500
02E100
075900
861E60
ENDCHAR
STARTCHAR uni1E8C
ENCODING 7820
SWIDTH 664 0
DWIDTH 7 0
BBX 7 8 0 0
BITMAP
02B0C000
5E907B30
06B08100
00B84000
004D1000
00888000
0721D300
7C11BD30
ENDCHAR
STARTCHAR uni1E8D
ENCODING 7821
SWIDTH 479 0
DWIDTH 5 0
BBX 5 7 0 0
BITMAP
2B0C00
000000
7E1B40
0A6500
02E100
075900
861E60
ENDCHAR
STARTCHAR uni1E8E
ENCODING 7822
SWIDTH 647 0
DWIDTH 6 0
BBX 7 8 0 0
BITMAP
001C0000
8F414C30
0A606200
02D17000
008C1000
003B0000
003B0000
018E4000
ENDCHAR
STARTCHAR uni1E8F
ENCODING 7823
SWIDTH 483 0
DWIDTH 5 0
BBX 6 9 -1 -2
BITMAP
000C10
000000
1AA068
02C071
00A470
003C30
000A00
002600
0B9000
ENDCHAR
STARTCHAR uni1E90
ENCODING 7824
SWIDTH 594 0
DWIDTH 6 0
BBX 6 9 0 0
BITMAP
003500
018630
5B77E6
5105C0
001D20
009700
04C000
1D3006
8D77A7
ENDCHAR
STARTCHAR uni1E91
ENCODING 7825
SWIDTH 458 0
DWIDTH 5 0
BBX 5 7 0 0
BITMAP
017000
074500
777E10
309600
04B000
1C2220
8B6B30
ENDCHAR
STARTCHAR uni1E92
ENCODING 7826
SWIDTH 594 0
DWIDTH 6 0
BBX 6 9 0 -2
BITMAP
5B77E6
5105C0
001D20
009700
04C000
1D3006
8D77A7
000000
008400
ENDCHAR
STARTCHAR uni1E93
ENCODING 7827
SWIDTH 458 0
DWIDTH 5 0
BBX 5 7 0 -2
BITMAP
777E10
309600
04B000
1C2220
8B6B30
000000
02A000
ENDCHAR
STARTCHAR uni1E94
ENCODING 7828
SWIDTH 594 0
DWIDTH 6 0
BBX 6 9 0 -2
BITMAP
5B77E6
5105C0
001D20
009700
04C000
1D3006
8D77A7
000000
058830
ENDCHAR
STARTCHAR uni1E95
ENCODING 7829
SWIDTH 458 0
DWIDTH 5 0
BBX 5 7 0 -2
BITMAP
777E10
309600
04B000
1C2220
8B6B30
000000
188600
ENDCHAR
STARTCHAR uni1E96
ENCODING 7830
SWIDTH 577 0
DWIDTH 6 0
BBX 6 9 0 -2
BITMAP
4C0000
0C0000
0D7C60
0D02C0
0C00C0
0C00C0
4E35E3
000000
048830
ENDCHAR
STARTCHAR uni1E97
ENCODING 7831
SWIDTH 315 0
DWIDTH 3 0
BBX 4 8 0 0
BITMAP
C0A2
0300
1A00
4D60
1B00
1B00
1B00
0C70
ENDCHAR
STARTCHAR uni1E98
ENCODING 7832
SWIDTH 749 0
DWIDTH 7 0
BBX 9 8 -1 0
BITMAP
0001740000
0004370000
0001740000
1AA2C70B40
02B0780700
00B27C2500
006A399000
001C049000
ENDCHAR
STARTCHAR uni1E99
ENCODING 7833
SWIDTH 483 0
DWIDTH 5 0
BBX 6 10 -1 -2
BITMAP
002730
006170
002730
1AA068
02C071
00A470
003C30
000A00
002600
0B9000
ENDCHAR
STARTCHAR uni1E9A
ENCODING 7834
SWIDTH 480 0
DWIDTH 5 0
BBX 5 8 0 0
BITMAP
026000
007000
026000
277700
330C00
066D00
850C00
6C7C40
ENDCHAR
STARTCHAR uni1E9B
ENCODING 7835
SWIDTH 285 0
DWIDTH 3 0
BBX 4 8 0 0
BITMAP
0D00
0878
0C00
5D00
0C00
0C00
0D00
5E50
ENDCHAR
STARTCHAR uni1E9C
ENCODING 7836
SWIDTH 300 0
DWIDTH 3 0
BBX 4 7 0 0
BITMAP
0679
0C00
4D40
1D20
5D00
0D00
4F60
ENDCHAR
STARTCHAR uni1E9D
ENCODING 7837
SWIDTH 285 0
DWIDTH 3 0
BBX 4 7 0 0
BITMAP
0679
5D50
5D00
0C00
0C00
0D00
5E50
ENDCHAR
STARTCHAR uni1E9E
ENCODING 7838
SWIDTH 684 0
DWIDTH 7 0
BBX 7 7 0 0
BITMAP
01978C00
09608700
0C22D000
0C149800
0C100B50
0C210950
4E5A4810
ENDCHAR
STARTCHAR uni1E9F
ENCODING 7839
SWIDTH 517 0
DWIDTH 5 0
BBX 5 8 0 0
BITMAP
046810
0C0430
08B100
04AC10
490890
9503C0
8603A0
196820
ENDCHAR
STARTCHAR uni1EA0
ENCODING 7840
SWIDTH 718 0
DWIDTH 7 0
BBX 8 9 0 -2
BITMAP
000C0000
004C5000
0084B000
0170D300
0776B900
08002E10
8A103EA1
00000000
001B0000
ENDCHAR
STARTCHAR uni1EA1
ENCODING 7841
SWIDTH 480 0
DWIDTH 5 0
BBX 5 7 0 -2
BITMAP
277700
330C00
066D00
850C00
6C7C40
000000
02A000
ENDCHAR
STARTCHAR uni1EA2
ENCODING 7842
SWIDTH 718 0
DWIDTH 7 0
BBX 8 10 0 0
BITMAP
00163000
00127000
00051000
000C0000
004C5000
0084B000
0170D300
0776B900
08002E10
8A103EA1
ENDCHAR
STARTCHAR uni1EA3
ENCODING 7843
SWIDTH 480 0
DWIDTH 5 0
BBX 5 8 0 0
BITMAP
037100
015400
006000
277700
330C00
066D00
850C00
6C7C40
ENDCHAR
STARTCHAR uni1EA4
ENCODING 7844
SWIDTH 718 0
DWIDTH 7 0
BBX 8 9 0 0
BITMAP
00071A20
0078A200
000C0000
004C5000
0084B000
0170D300
0776B900
08002E10
8A103EA1
ENDCHAR
STARTCHAR uni1EA5
ENCODING 7845
SWIDTH 480 0
DWIDTH 5 0
BBX 5 8 0 0
BITMAP
000570
05B500
030300
277700
330C00
066D00
850C00
6C7C40
ENDCHAR
STARTCHAR uni1EA6
ENCODING 7846
SWIDTH 718 0
DWIDTH 7 0
BBX 8 9 0 0
BITMAP
00059400
00667200
000C0000
004C5000
0084B000
0170D300
0776B900
08002E10
8A103EA1
ENDCHAR
STARTCHAR uni1EA7
ENCODING 7847
SWIDTH 480 0
DWIDTH 5 0
BBX 5 8 0 0
BITMAP
003900
06A500
030300
277700
330C00
066D00
850C00
6C7C40
ENDCHAR
STARTCHAR uni1EA8
ENCODING 7848
SWIDTH 718 0
DWIDTH 7 0
BBX 8 11 0 0
BITMAP
00006400
00002900
003B8200
00404000
000C0000
004C5000
0084B000
0170D300
0776B900
08002E10
8A103EA1
ENDCHAR
STARTCHAR uni1EA9
ENCODING 7849
SWIDTH 480 0
DWIDTH 5 0
BBX 5 9 0 0
BITMAP
001630
001370
05B500
030300
277700
330C00
066D00
850C00
6C7C40
ENDCHAR
STARTCHAR uni1EAA
ENCODING 7850
SWIDTH 718 0
DWIDTH 7 0
BBX 8 10 0 0
BITMAP
00672100
00265000
00676000
000C0000
004C5000
0084B000
0170D300
0776B900
08002E10
8A103EA1
ENDCHAR
STARTCHAR uni1EAB
ENCODING 7851
SWIDTH 480 0
DWIDTH 5 0
BBX 5 8 0 0
BITMAP
18A600
05C100
072500
277700
330C00
066D00
850C00
6C7C40
ENDCHAR
STARTCHAR uni1EAC
ENCODING 7852
SWIDTH 718 0
DWIDTH 7 0
BBX 8 11 0 -2
BITMAP
00071000
00757000
000C0000
004C5000
0084B000
0170D300
0776B900
08002E10
8A103EA1
00000000
001B0000
ENDCHAR
STARTCHAR uni1EAD
ENCODING 7853
SWIDTH 480 0
DWIDTH 5 0
BBX 5 9 0 -2
BITMAP
016000
075500
277700
330C00
066D00
850C00
6C7C40
000000
02A000
ENDCHAR
STARTCHAR uni1EAE
ENCODING 7854
SWIDTH 718 0
DWIDTH 7 0
BBX 8 10 0 0
BITMAP
00012000
00476000
006A6000
000C0000
004C5000
0084B000
0170D300
0776B900
08002E10
8A103EA1
ENDCHAR
STARTCHAR uni1EAF
ENCODING 7855
SWIDTH 480 0
DWIDTH 5 0
BBX 5 8 0 0
BITMAP
009200
154600
08A300
277700
330C00
066D00
850C00
6C7C40
ENDCHAR
STARTCHAR uni1EB0
ENCODING 7856
SWIDTH 718 0
DWIDTH 7 0
BBX 8 10 0 0
BITMAP
00210000
00674000
006A6000
000C0000
004C5000
0084B000
0170D300
0776B900
08002E10
8A103EA1
ENDCHAR
STARTCHAR uni1EB1
ENCODING 7857
SWIDTH 480 0
DWIDTH 5 0
BBX 5 8 0 0
BITMAP
074000
155600
08A300
277700
330C00
066D00
850C00
6C7C40
ENDCHAR
STARTCHAR uni1EB2
ENCODING 7858
SWIDTH 718 0
DWIDTH 7 0
BBX 8 10 0 0
BITMAP
00163000
00557000
005A6000
000C0000
004C5000
0084B000
0170D300
0776B900
08002E10
8A103EA1
ENDCHAR
STARTCHAR uni1EB3
ENCODING 7859
SWIDTH 480 0
DWIDTH 5 0
BBX 5 9 0 0
BITMAP
046100
017200
154600
08A300
277700
330C00
066D00
850C00
6C7C40
ENDCHAR
STARTCHAR uni1EB4
ENCODING 7860
SWIDTH 718 0
DWIDTH 7 0
BBX 8 10 0 0
BITMAP
007A8000
00605000
005A6000
000C0000
004C5000
0084B000
0170D300
0776B900
08002E10
8A103EA1
ENDCHAR
STARTCHAR uni1EB5
ENCODING 7861
SWIDTH 480 0
DWIDTH 5 0
BBX 5 9 0 0
BITMAP
095300
127500
150600
08A300
277700
330C00
066D00
850C00
6C7C40
ENDCHAR
STARTCHAR uni1EB6
ENCODING 7862
SWIDTH 718 0
DWIDTH 7 0
BBX 8 11 0 -2
BITMAP
00404000
006A7000
000C0000
004C5000
0084B000
0170D300
0776B900
08002E10
8A103EA1
00000000
001B0000
ENDCHAR
STARTCHAR uni1EB7
ENCODING 7863
SWIDTH 480 0
DWIDTH 5 0
BBX 5 9 0 -2
BITMAP
130400
0BE600
277700
330C00
066D00
850C00
6C7C40
000000
02A000
ENDCHAR
STARTCHAR uni1EB8
ENCODING 7864
SWIDTH 626 0
DWIDTH 6 0
BBX 6 9 0 -2
BITMAP
3D9789
0A4004
0A4060
0A97B0
0A4021
0A4007
3D978B
000000
003900
ENDCHAR
STARTCHAR uni1EB9
ENCODING 7865
SWIDTH 464 0
DWIDTH 5 0
BBX 5 7 0 -2
BITMAP
177900
886920
A30000
790220
1BC800
000000
01B000
ENDCHAR
STARTCHAR uni1EBA
ENCODING 7866
SWIDTH 626 0
DWIDTH 6 0
BBX 6 10 0 0
BITMAP
004600
001720
000600
3D9789
0A4004
0A4060
0A97B0
0A4021
0A4007
3D978B
ENDCHAR
STARTCHAR uni1EBB
ENCODING 7867
SWIDTH 464 0
DWIDTH 5 0
BBX 5 8 0 0
BITMAP
027200
014600
006000
177900
886920
A30000
790220
1BC800
ENDCHAR
STARTCHAR uni1EBC
ENCODING 7868
SWIDTH 626 0
DWIDTH 6 0
BBX 6 8 0 0
BITMAP
019A60
3D9789
0A4004
0A4060
0A97B0
0A4021
0A4007
3D978B
ENDCHAR
STARTCHAR uni1EBD
ENCODING 7869
SWIDTH 464 0
DWIDTH 5 0
BBX 5 6 0 0
BITMAP
079700
177900
886920
A30000
790220
1BC800
ENDCHAR
STARTCHAR uni1EBE
ENCODING 7870
SWIDTH 626 0
DWIDTH 6 0
BBX 6 9 0 0
BITMAP
00363A
019880
3D9789
0A4004
0A4060
0A97B0
0A4021
0A4007
3D978B
ENDCHAR
STARTCHAR uni1EBF
ENCODING 7871
SWIDTH 464 0
DWIDTH 5 0
BBX 5 8 0 0
BITMAP
000380
04B600
030300
177900
886920
A30000
790220
1BC800
ENDCHAR
STARTCHAR uni1EC0
ENCODING 7872
SWIDTH 626 0
DWIDTH 6 0
BBX 6 9 0 0
BITMAP
0026A1
018742
3D9789
0A4004
0A4060
0A97B0
0A4021
0A4007
3D978B
ENDCHAR
STARTCHAR uni1EC1
ENCODING 7873
SWIDTH 464 0
DWIDTH 5 0
BBX 5 8 0 0
BITMAP
002A00
04B500
030300
177900
886920
A30000
790220
1BC800
ENDCHAR
STARTCHAR uni1EC2
ENCODING 7874
SWIDTH 626 0
DWIDTH 6 0
BBX 6 11 0 0
BITMAP
000262
000136
007A61
013130
3D9789
0A4004
0A4060
0A97B0
0A4021
0A4007
3D978B
ENDCHAR
STARTCHAR uni1EC3
ENCODING 7875
SWIDTH 464 0
DWIDTH 5 0
BBX 5 9 0 0
BITMAP
001640
000280
04B600
030300
177900
886920
A30000
790220
1BC800
ENDCHAR
STARTCHAR uni1EC4
ENCODING 7876
SWIDTH 626 0
DWIDTH 6 0
BBX 6 10 0 0
BITMAP
019330
021830
018830
3D9789
0A4004
0A4060
0A97B0
0A4021
0A4007
3D978B
ENDCHAR
STARTCHAR uni1EC5
ENCODING 7877
SWIDTH 464 0
DWIDTH 5 0
BBX 5 8 0 0
BITMAP
07A700
03D100
071600
177900
886920
A30000
790220
1BC800
ENDCHAR
STARTCHAR uni1EC6
ENCODING 7878
SWIDTH 626 0
DWIDTH 6 0
BBX 6 11 0 -2
BITMAP
003600
018640
3D9789
0A4004
0A4060
0A97B0
0A4021
0A4007
3D978B
000000
003900
ENDCHAR
STARTCHAR uni1EC7
ENCODING 7879
SWIDTH 464 0
DWIDTH 5 0
BBX 5 9 0 -2
BITMAP
017000
074600
177900
886920
A30000
790220
1BC800
000000
01B000
ENDCHAR
STARTCHAR uni1EC8
ENCODING 7880
SWIDTH 357 0
DWIDTH 4 0
BBX 4 10 0 0
BITMAP
0650
0190
0420
3D91
0A40
0A40
0A40
0A40
0A40
3D91
ENDCHAR
STARTCHAR uni1EC9
ENCODING 7881
SWIDTH 285 0
DWIDTH 3 0
BBX 3 8 0 0
BITMAP
3710
1630
0600
4C00
0C00
0C00
0C00
4E30
ENDCHAR
STARTCHAR uni1ECA
ENCODING 7882
SWIDTH 357 0
DWIDTH 4 0
BBX 4 9 0 -2
BITMAP
3D91
0A40
0A40
0A40
0A40
0A40
3D91
0000
0930
ENDCHAR
STARTCHAR uni1ECB
ENCODING 7883
SWIDTH 285 0
DWIDTH 3 0
BBX 3 9 0 -2
BITMAP
1D00
0100
4C00
0C00
0C00
0C00
4E30
0000
1C00
ENDCHAR
STARTCHAR uni1ECC
ENCODING 7884
SWIDTH 738 0
DWIDTH 7 0
BBX 7 9 0 -2
BITMAP
03978700
1D100960
5A0004B0
790003D0
5A0004B0
1D100950
03977600
00000000
000A2000
ENDCHAR
STARTCHAR uni1ECD
ENCODING 7885
SWIDTH 514 0
DWIDTH 5 0
BBX 5 7 0 -2
BITMAP
196920
760490
9402C0
760390
196820
000000
00B100
ENDCHAR
STARTCHAR uni1ECE
ENCODING 7886
SWIDTH 738 0
DWIDTH 7 0
BBX 7 10 0 0
BITMAP
00064000
00019000
00051000
03978700
1D100960
5A0004B0
790003D0
5A0004B0
1D100950
03977600
ENDCHAR
STARTCHAR uni1ECF
ENCODING 7887
SWIDTH 514 0
DWIDTH 5 0
BBX 5 8 0 0
BITMAP
017400
002800
005100
196920
760490
9402C0
760390
196820
ENDCHAR
STARTCHAR uni1ED0
ENCODING 7888
SWIDTH 738 0
DWIDTH 7 0
BBX 7 9 0 0
BITMAP
00062940
0068A300
03978700
1D100960
5A0004B0
790003D0
5A0004B0
1D100950
03977600
ENDCHAR
STARTCHAR uni1ED1
ENCODING 7889
SWIDTH 514 0
DWIDTH 5 0
BBX 5 8 0 0
BITMAP
0001B0
02B710
030300
196920
760490
9402C0
760390
196820
ENDCHAR
STARTCHAR uni1ED2
ENCODING 7890
SWIDTH 738 0
DWIDTH 7 0
BBX 7 9 0 0
BITMAP
00058500
00568200
03978700
1D100960
5A0004B0
790003D0
5A0004B0
1D100950
03977600
ENDCHAR
STARTCHAR uni1ED3
ENCODING 7891
SWIDTH 514 0
DWIDTH 5 0
BBX 5 8 0 0
BITMAP
000B00
02B620
030300
196920
760490
9402C0
760390
196820
ENDCHAR
STARTCHAR uni1ED4
ENCODING 7892
SWIDTH 738 0
DWIDTH 7 0
BBX 7 11 0 0
BITMAP
00005500
00002900
001B8400
00404000
03978700
1D100960
5A0004B0
790003D0
5A0004B0
1D100950
03977600
ENDCHAR
STARTCHAR uni1ED5
ENCODING 7893
SWIDTH 514 0
DWIDTH 5 0
BBX 5 9 0 0
BITMAP
000650
000290
02B800
030300
196920
760490
9402C0
760390
196820
ENDCHAR
STARTCHAR uni1ED6
ENCODING 7894
SWIDTH 738 0
DWIDTH 7 0
BBX 7 10 0 0
BITMAP
00581200
00256000
00477000
03978700
1D100960
5A0004B0
790003D0
5A0004B0
1D100950
03977600
ENDCHAR
STARTCHAR uni1ED7
ENCODING 7895
SWIDTH 514 0
DWIDTH 5 0
BBX 5 8 0 0
BITMAP
06A810
01D300
061700
196920
760490
9402C0
760390
196820
ENDCHAR
STARTCHAR uni1ED8
ENCODING 7896
SWIDTH 738 0
DWIDTH 7 0
BBX 7 11 0 -2
BITMAP
00062000
00558000
03978700
1D100960
5A0004B0
790003D0
5A0004B0
1D100950
03977600
00000000
000A2000
ENDCHAR
STARTCHAR uni1ED9
ENCODING 7897
SWIDTH 514 0
DWIDTH 5 0
BBX 5 9 0 -2
BITMAP
007100
054700
196920
760490
9402C0
760390
196820
000000
00B100
ENDCHAR
STARTCHAR uni1EDA
ENCODING 7898
SWIDTH 737 0
DWIDTH 7 0
BBX 8 9 0 0
BITMAP
00035050
001910B1
0397AD30
1D100A70
6A0004C0
790003D0
6A0004B0
1D100950
03977600
ENDCHAR
STARTCHAR uni1EDB
ENCODING 7899
SWIDTH 516 0
DWIDTH 5 0
BBX 5 7 0 0
BITMAP
003550
0081A0
196C40
760490
9402B0
760390
196820
ENDCHAR
STARTCHAR uni1EDC
ENCODING 7900
SWIDTH 737 0
DWIDTH 7 0
BBX 8 9 0 0
BITMAP
00260050
000740B1
0397AD30
1D100A70
6A0004C0
790003D0
6A0004B0
1D100950
03977600
ENDCHAR
STARTCHAR uni1EDD
ENCODING 7901
SWIDTH 516 0
DWIDTH 5 0
BBX 5 7 0 0
BITMAP
034050
0090A0
196C40
760490
9402B0
760390
196820
ENDCHAR
STARTCHAR uni1EDE
ENCODING 7902
SWIDTH 737 0
DWIDTH 7 0
BBX 8 10 0 0
BITMAP
00064000
00019050
000510B1
0397AD30
1D100A70
6A0004C0
790003D0
6A0004B0
1D100950
03977600
ENDCHAR
STARTCHAR uni1EDF
ENCODING 7903
SWIDTH 516 0
DWIDTH 5 0
BBX 5 8 0 0
BITMAP
017400
002850
0051A0
196C40
760490
9402B0
760390
196820
ENDCHAR
STARTCHAR uni1EE0
ENCODING 7904
SWIDTH 737 0
DWIDTH 7 0
BBX 8 9 0 0
BITMAP
00000050
006A91B1
0397AD30
1D100A70
6A0004C0
790003D0
6A0004B0
1D100950
03977600
ENDCHAR
STARTCHAR uni1EE1
ENCODING 7905
SWIDTH 516 0
DWIDTH 5 0
BBX 5 7 0 0
BITMAP
078460
036790
196C40
760490
9402B0
760390
196820
ENDCHAR
STARTCHAR uni1EE2
ENCODING 7906
SWIDTH 737 0
DWIDTH 7 0
BBX 8 11 0 -2
BITMAP
00000050
000000B1
0397AD30
1D100A70
6A0004C0
790003D0
6A0004B0
1D100950
03977600
00000000
000A2000
ENDCHAR
STARTCHAR uni1EE3
ENCODING 7907
SWIDTH 516 0
DWIDTH 5 0
BBX 5 9 0 -2
BITMAP
000050
0000A0
196C40
760490
9402B0
760390
196820
000000
00B100
ENDCHAR
STARTCHAR uni1EE4
ENCODING 7908
SWIDTH 752 0
DWIDTH 8 0
BBX 8 9 0 -2
BITMAP
4E8019B2
0C100360
0C100360
0C100360
0C200350
09600620
02BA9600
00000000
00093000
ENDCHAR
STARTCHAR uni1EE5
ENCODING 7909
SWIDTH 570 0
DWIDTH 6 0
BBX 6 7 0 -2
BITMAP
6B07A0
1B02B0
1B02B0
1C02B0
0A97C2
000000
00A300
ENDCHAR
STARTCHAR uni1EE6
ENCODING 7910
SWIDTH 752 0
DWIDTH 8 0
BBX 8 10 0 0
BITMAP
00055000
00019000
00024000
4E8019B2
0C100360
0C100360
0C100360
0C200350
09600620
02BA9600
ENDCHAR
STARTCHAR uni1EE7
ENCODING 7911
SWIDTH 570 0
DWIDTH 6 0
BBX 6 8 0 0
BITMAP
006500
001900
005200
6B07A0
1B02B0
1B02B0
1C02B0
0A97C2
ENDCHAR
STARTCHAR uni1EE8
ENCODING 7912
SWIDTH 762 0
DWIDTH 8 0
BBX 9 9 0 0
BITMAP
0001700500
0008400920
4E8019D600
0C10036000
0C10036000
0C10036000
0C20036000
0950073000
02BA970000
ENDCHAR
STARTCHAR uni1EE9
ENCODING 7913
SWIDTH 574 0
DWIDTH 6 0
BBX 6 7 0 0
BITMAP
002505
008209
6B07B1
1B02B0
1B02B0
1C02B0
0A97C2
ENDCHAR
STARTCHAR uni1EEA
ENCODING 7914
SWIDTH 762 0
DWIDTH 8 0
BBX 9 9 0 0
BITMAP
0007100500
0004800920
4E8019D600
0C10036000
0C10036000
0C10036000
0C20036000
0950073000
02BA970000
ENDCHAR
STARTCHAR uni1EEB
ENCODING 7915
SWIDTH 574 0
DWIDTH 6 0
BBX 6 7 0 0
BITMAP
025005
009109
6B07B1
1B02B0
1B02B0
1C02B0
0A97C2
ENDCHAR
STARTCHAR uni1EEC
ENCODING 7916
SWIDTH 762 0
DWIDTH 8 0
BBX 9 10 0 0
BITMAP
0005500000
0001900500
0002400920
4E8019D600
0C10036000
0C10036000
0C10036000
0C20036000
0950073000
02BA970000
ENDCHAR
STARTCHAR uni1EED
ENCODING 7917
SWIDTH 574 0
DWIDTH 6 0
BBX 6 8 0 0
BITMAP
006400
001905
005109
6B07B1
1B02B0
1B02B0
1C02B0
0A97C2
ENDCHAR
STARTCHAR uni1EEE
ENCODING 7918
SWIDTH 762 0
DWIDTH 8 0
BBX 9 9 0 0
BITMAP
0000000500
0039940920
4E8019D600
0C10036000
0C10036000
0C10036000
0C20036000
0950073000
02BA970000
ENDCHAR
STARTCHAR uni1EEF
ENCODING 7919
SWIDTH 574 0
DWIDTH 6 0
BBX 6 7 0 0
BITMAP
000005
059819
6B07B1
1B02B0
1B02B0
1C02B0
0A97C2
ENDCHAR
STARTCHAR uni1EF0
ENCODING 7920
SWIDTH 762 0
DWIDTH 8 0
BBX 9 11 0 -2
BITMAP
0000000500
0000000920
4E8019D600
0C10036000
0C10036000
0C10036000
0C20036000
0950073000
02BA970000
0000000000
0009300000
ENDCHAR
STARTCHAR uni1EF1
ENCODING 7921
SWIDTH 574 0
DWIDTH 6 0
BBX 6 9 0 -2
BITMAP
000005
000009
6B07B1
1B02B0
1B02B0
1C02B0
0A97C2
000000
00A200
ENDCHAR
STARTCHAR Ygrave
ENCODING 7922
SWIDTH 647 0
DWIDTH 6 0
BBX 7 9 0 0
BITMAP
00540000
00191000
8F404C30
0A606200
02D17000
008C1000
003B0000
003B0000
018E4000
ENDCHAR
STARTCHAR ygrave
ENCODING 7923
SWIDTH 483 0
DWIDTH 5 0
BBX 6 9 -1 -2
BITMAP
003400
000900
1AA068
02C071
00A470
003C30
000A00
002600
0B9000
ENDCHAR
STARTCHAR uni1EF4
ENCODING 7924
SWIDTH 647 0
DWIDTH 6 0
BBX 7 9 0 -2
BITMAP
8F404C30
0A606200
02D17000
008C1000
003B0000
003B0000
018E4000
00000000
003A0000
ENDCHAR
STARTCHAR uni1EF5
ENCODING 7925
SWIDTH 483 0
DWIDTH 5 0
BBX 6 7 -1 -2
BITMAP
1AA068
02C071
00A470
003C30
000A00
002600
0B92B0
ENDCHAR
STARTCHAR uni1EF6
ENCODING 7926
SWIDTH 647 0
DWIDTH 6 0
BBX 7 10 0 0
BITMAP
00262000
00145000
00060000
8F404C30
0A606200
02D17000
008C1000
003B0000
003B0000
018E4000
ENDCHAR
STARTCHAR uni1EF7
ENCODING 7927
SWIDTH 483 0
DWIDTH 5 0
BBX 6 10 -1 -2
BITMAP
001730
000280
000510
1AA068
02C071
00A470
003C30
000A00
002600
0B9000
ENDCHAR
STARTCHAR uni1EF8
ENCODING 7928
SWIDTH 647 0
DWIDTH 6 0
BBX 7 8 0 0
BITMAP
008A7000
8F404C30
0A606200
02D17000
008C1000
003B0000
003B0000
018E4000
ENDCHAR
STARTCHAR uni1EF9
ENCODING 7929
SWIDTH 483 0
DWIDTH 5 0
BBX 6 8 -1 -2
BITMAP
006980
1AA068
02C071
00A470
003C30
000A00
002600
0B9000
ENDCHAR
STARTCHAR uni2000
ENCODING 8192
SWIDTH 500 0
DWIDTH 5 0
BBX 1 1 0 0
BITMAP
00
ENDCHAR
STARTCHAR uni2001
ENCODING 8193
SWIDTH 1000 0
DWIDTH 10 0
BBX 1 1 0 0
BITMAP
00
ENDCHAR
STARTCHAR uni2002
ENCODING 8194
SWIDTH 500 0
DWIDTH 5 0
BBX 1 1 0 0
BITMAP
00
ENDCHAR
STARTCHAR uni2003
ENCODING 8195
SWIDTH 1000 0
DWIDTH 10 0
BBX 1 1 0 0
BITMAP
00
ENDCHAR
STARTCHAR uni2004
ENCODING 8196
SWIDTH 334 0
DWIDTH 3 0
BBX 1 1 0 0
BITMAP
00
ENDCHAR
STARTCHAR uni2005
ENCODING 8197
SWIDTH 250 0
DWIDTH 3 0
BBX 1 1 0 0
BITMAP
00
ENDCHAR
STARTCHAR uni2006
ENCODING 8198
SWIDTH 167 0
DWIDTH 2 0
BBX 1 1 0 0
BITMAP
00
ENDCHAR
STARTCHAR uni2007
ENCODING 8199
SWIDTH 560 0
DWIDTH 6 0
BBX 1 1 0 0
BITMAP
00
ENDCHAR
STARTCHAR uni2008
ENCODING 8200
SWIDTH 297 0
DWIDTH 3 0
BBX 1 1 0 0
BITMAP
00
ENDCHAR
STARTCHAR uni2009
ENCODING 8201
SWIDTH 125 0
DWIDTH 1 0
BBX 1 1 0 0
BITMAP
00
ENDCHAR
STARTCHAR uni200A
ENCODING 8202
SWIDTH 63 0
DWIDTH 1 0
BBX 1 1 0 0
BITMAP
00
ENDCHAR
STARTCHAR uni200B
ENCODING 8203
SWIDTH 0 0
DWIDTH 0 0
BBX 1 1 0 0
BITMAP
00
ENDCHAR
STARTCHAR uni200C
ENCODING 8204
SWIDTH 0 0
DWIDTH 0 0
BBX 2 11 -1 -3
BITMAP
11
22
22
22
22
22
22
22
22
22
22
ENDCHAR
STARTCHAR uni200D
ENCODING 8205
SWIDTH 0 0
DWIDTH 0 0
BBX 4 12 -2 -3
BITMAP
1331
0660
1331
0220
0220
0220
0220
0220
0220
0220
0220
0220
ENDCHAR
STARTCHAR uni2010
ENCODING 8208
SWIDTH 315 0
DWIDTH 3 0
BBX 3 1 0 2
BITMAP
5A70
ENDCHAR
STARTCHAR uni2011
ENCODING 8209
SWIDTH 315 0
DWIDTH 3 0
BBX 3 1 0 2
BITMAP
5A70
ENDCHAR
STARTCHAR figuredash
ENCODING 8210
SWIDTH 495 0
DWIDTH 5 0
BBX 5 1 0 2
BITMAP
699960
ENDCHAR
STARTCHAR endash
ENCODING 8211
SWIDTH 500 0
DWIDTH 5 0
BBX 5 1 0 2
BITMAP
699960
ENDCHAR
STARTCHAR emdash
ENCODING 8212
SWIDTH 1000 0
DWIDTH 10 0
BBX 10 1 0 2
BITMAP
6999999996
ENDCHAR
STARTCHAR uni2015
ENCODING 8213
SWIDTH 940 0
DWIDTH 9 0
BBX 10 1 0 2
BITMAP
9999999994
ENDCHAR
STARTCHAR uni2016
ENCODING 8214
SWIDTH 427 0
DWIDTH 4 0
BBX 3 9 1 -2
BITMAP
9530
9530
9530
9530
9530
9530
9530
9530
9530
ENDCHAR
STARTCHAR underscoredbl
ENCODING 8215
SWIDTH 512 0
DWIDTH 5 0
BBX 6 2 0 -3
BITMAP
888881
888881
ENDCHAR
STARTCHAR quoteleft
ENCODING 8216
SWIDTH 245 0
DWIDTH 2 0
BBX 2 4 0 4
BITMAP
02
35
5D
01
ENDCHAR
STARTCHAR quoteright
ENCODING 8217
SWIDTH 245 0
DWIDTH 2 0
BBX 2 3 0 4
BITMAP
6A
08
21
ENDCHAR
STARTCHAR quotesinglbase
ENCODING 8218
SWIDTH 243 0
DWIDTH 2 0
BBX 2 4 0 -2
BITMAP
01
6B
07
20
ENDCHAR
STARTCHAR quotereversed
ENCODING 8219
SWIDTH 243 0
DWIDTH 2 0
BBX 2 3 0 4
BITMAP
4C
44
03
ENDCHAR
STARTCHAR quotedblleft
ENCODING 8220
SWIDTH 435 0
DWIDTH 4 0
BBX 4 4 0 4
BITMAP
0202
3543
5D6B
0101
ENDCHAR
STARTCHAR quotedblright
ENCODING 8221
SWIDTH 434 0
DWIDTH 4 0
BBX 4 3 0 4
BITMAP
6A79
0817
2121
ENDCHAR
STARTCHAR quotedblbase
ENCODING 8222
SWIDTH 433 0
DWIDTH 4 0
BBX 4 4 0 -2
BITMAP
0100
6B7A
0716
2020
ENDCHAR
STARTCHAR uni201F
ENCODING 8223
SWIDTH 434 0
DWIDTH 4 0
BBX 4 3 0 4
BITMAP
4C5B
4553
0303
ENDCHAR
STARTCHAR dagger
ENCODING 8224
SWIDTH 512 0
DWIDTH 5 0
BBX 5 9 0 -2
BITMAP
00B000
005000
4B8A60
006000
00D000
00A000
006000
004000
003000
ENDCHAR
STARTCHAR daggerdbl
ENCODING 8225
SWIDTH 512 0
DWIDTH 5 0
BBX 5 9 0 -2
BITMAP
00B000
005000
4B8A60
006000
00C000
005000
495760
00A000
006000
ENDCHAR
STARTCHAR bullet
ENCODING 8226
SWIDTH 457 0
DWIDTH 5 0
BBX 3 3 1 1
BITMAP
4810
DF70
9E30
ENDCHAR
STARTCHAR twodotenleader
ENCODING 8229
SWIDTH 500 0
DWIDTH 5 0
BBX 5 2 0 0
BITMAP
110110
770770
ENDCHAR
STARTCHAR ellipsis
ENCODING 8230
SWIDTH 887 0
DWIDTH 9 0
BBX 7 2 1 0
BITMAP
20020020
D21D03B0
ENDCHAR
STARTCHAR uni202F
ENCODING 8239
SWIDTH 125 0
DWIDTH 1 0
BBX 1 1 0 0
BITMAP
00
ENDCHAR
STARTCHAR perthousand
ENCODING 8240
SWIDTH 1017 0
DWIDTH 10 0
BBX 10 7 0 0
BITMAP
1851170000
6438710000
8361400000
2635451263
0025905A05
0063715A05
0521950952
ENDCHAR
STARTCHAR uni2031
ENCODING 8241
SWIDTH 1342 0
DWIDTH 13 0
BBX 13 7 0 0
BITMAP
18511700000000
64387100000000
83614000000000
26354512630640
0025905A058250
0063715A05A050
05219509527530
ENDCHAR
STARTCHAR minute
ENCODING 8242
SWIDTH 296 0
DWIDTH 3 0
BBX 3 3 0 4
BITMAP
0930
0B00
3500
ENDCHAR
STARTCHAR second
ENCODING 8243
SWIDTH 436 0
DWIDTH 4 0
BBX 4 3 0 4
BITMAP
0969
0B83
3580
ENDCHAR
STARTCHAR uni2034
ENCODING 8244
SWIDTH 576 0
DWIDTH 6 0
BBX 5 3 0 4
BITMAP
0969B0
0B8590
358620
ENDCHAR
STARTCHAR uni2035
ENCODING 8245
SWIDTH 296 0
DWIDTH 3 0
BBX 3 3 0 4
BITMAP
3800
0B00
0620
ENDCHAR
STARTCHAR uni2036
ENCODING 8246
SWIDTH 436 0
DWIDTH 4 0
BBX 4 3 0 4
BITMAP
38B1
0B74
0637
ENDCHAR
STARTCHAR uni2037
ENCODING 8247
SWIDTH 576 0
DWIDTH 6 0
BBX 5 3 0 4
BITMAP
38B750
0B76A0
063770
ENDCHAR
STARTCHAR uni2038
ENCODING 8248
SWIDTH 523 0
DWIDTH 5 0
BBX 5 3 0 -2
BITMAP
00A200
071810
320150
ENDCHAR
STARTCHAR guilsinglleft
ENCODING 8249
SWIDTH 307 0
DWIDTH 3 0
BBX 3 5 0 0
BITMAP
0020
0810
7500
1900
0130
ENDCHAR
STARTCHAR guilsinglright
ENCODING 8250
SWIDTH 307 0
DWIDTH 3 0
BBX 3 5 0 0
BITMAP
2000
1800
0480
0910
3100
ENDCHAR
STARTCHAR uni203B
ENCODING 8251
SWIDTH 701 0
DWIDTH 7 0
BBX 7 6 0 0
BITMAP
370D1730
07414600
00939000
2C2E2C20
03A59300
291D1920
ENDCHAR
STARTCHAR exclamdbl
ENCODING 8252
SWIDTH 565 0
DWIDTH 6 0
BBX 5 7 0 0
BITMAP
1C03A0
1D04B0
0C03A0
090180
070070
020020
1D04A0
ENDCHAR
STARTCHAR uni203E
ENCODING 8254
SWIDTH 512 0
DWIDTH 5 0
BBX 6 1 0 8
BITMAP
777771
ENDCHAR
STARTCHAR uni2040
ENCODING 8256
SWIDTH 810 0
DWIDTH 8 0
BBX 8 3 0 5
BITMAP
018BA810
07200272
10000001
ENDCHAR
STARTCHAR uni2043
ENCODING 8259
SWIDTH 352 0
DWIDTH 4 0
BBX 3 2 0 2
BITMAP
5BB0
8FF0
ENDCHAR
STARTCHAR fraction
ENCODING 8260
SWIDTH 205 0
DWIDTH 2 0
BBX 6 7 -2 0
BITMAP
000062
000170
000710
003400
008000
062000
160000
ENDCHAR
STARTCHAR uni2047
ENCODING 8263
SWIDTH 822 0
DWIDTH 8 0
BBX 8 7 0 0
BITMAP
47853776
A31C840D
1039102A
00910082
01600070
01100020
06700590
ENDCHAR
STARTCHAR uni204B
ENCODING 8267
SWIDTH 605 0
DWIDTH 6 0
BBX 6 9 0 -2
BITMAP
2B9A91
076766
076767
076892
076800
076700
076700
096800
252520
ENDCHAR
STARTCHAR uni204C
ENCODING 8268
SWIDTH 479 0
DWIDTH 5 0
BBX 5 3 0 1
BITMAP
076610
2F6500
076610
ENDCHAR
STARTCHAR uni204D
ENCODING 8269
SWIDTH 479 0
DWIDTH 5 0
BBX 4 3 0 1
BITMAP
2675
059D
2675
ENDCHAR
STARTCHAR uni204E
ENCODING 8270
SWIDTH 410 0
DWIDTH 4 0
BBX 4 4 0 -2
BITMAP
0340
6897
4894
2452
ENDCHAR
STARTCHAR uni204F
ENCODING 8271
SWIDTH 245 0
DWIDTH 2 0
BBX 2 7 0 -2
BITMAP
4A
02
00
01
6C
43
02
ENDCHAR
STARTCHAR uni2050
ENCODING 8272
SWIDTH 809 0
DWIDTH 8 0
BBX 8 7 0 0
BITMAP
02888930
19000092
11000012
00000000
11000011
29000092
03888830
ENDCHAR
STARTCHAR uni2051
ENCODING 8273
SWIDTH 410 0
DWIDTH 4 0
BBX 4 8 0 -1
BITMAP
6897
3894
2353
0340
2453
4894
6887
0340
ENDCHAR
STARTCHAR uni2052
ENCODING 8274
SWIDTH 482 0
DWIDTH 5 0
BBX 5 10 0 -2
BITMAP
000410
3A0A00
011900
006500
00A100
01A000
056000
0A1000
0A0C10
460100
ENDCHAR
STARTCHAR uni2057
ENCODING 8279
SWIDTH 727 0
DWIDTH 7 0
BBX 7 3 0 4
BITMAP
0969B570
0B859920
35862800
ENDCHAR
STARTCHAR uni205F
ENCODING 8287
SWIDTH 222 0
DWIDTH 2 0
BBX 1 1 0 0
BITMAP
00
ENDCHAR
STARTCHAR uni2061
ENCODING 8289
SWIDTH 0 0
DWIDTH 0 0
BBX 1 1 0 0
BITMAP
00
ENDCHAR
STARTCHAR uni2062
ENCODING 8290
SWIDTH 0 0
DWIDTH 0 0
BBX 1 1 0 0
BITMAP
00
ENDCHAR
STARTCHAR uni2063
ENCODING 8291
SWIDTH 0 0
DWIDTH 0 0
BBX 1 1 0 0
BITMAP
00
ENDCHAR
STARTCHAR uni2064
ENCODING 8292
SWIDTH 0 0
DWIDTH 0 0
BBX 1 1 0 0
BITMAP
00
ENDCHAR
STARTCHAR zerosuperior
ENCODING 8304
SWIDTH 412 0
DWIDTH 4 0
BBX 4 5 0 3
BITMAP
2873
821A
A10B
821A
2873
ENDCHAR
STARTCHAR uni2071
ENCODING 8305
SWIDTH 245 0
DWIDTH 2 0
BBX 3 6 0 3
BITMAP
2900
0000
5900
2900
2900
5C10
ENDCHAR
STARTCHAR foursuperior
ENCODING 8308
SWIDTH 403 0
DWIDTH 4 0
BBX 4 5 0 3
BITMAP
00C1
06A1
43A1
9ADA
00A1
ENDCHAR
STARTCHAR fivesuperior
ENCODING 8309
SWIDTH 358 0
DWIDTH 4 0
BBX 4 5 0 3
BITMAP
3BB0
5B70
0092
0062
7760
ENDCHAR
STARTCHAR sixsuperior
ENCODING 8310
SWIDTH 390 0
DWIDTH 4 0
BBX 4 5 0 3
BITMAP
0641
5991
A248
9228
3872
ENDCHAR
STARTCHAR sevensuperior
ENCODING 8311
SWIDTH 364 0
DWIDTH 4 0
BBX 4 5 0 3
BITMAP
8BC6
2071
0080
0450
0900
ENDCHAR
STARTCHAR eightsuperior
ENCODING 8312
SWIDTH 374 0
DWIDTH 4 0
BBX 4 5 0 3
BITMAP
5682
8562
1CA0
9176
6673
ENDCHAR
STARTCHAR ninesuperior
ENCODING 8313
SWIDTH 390 0
DWIDTH 4 0
BBX 4 5 0 3
BITMAP
5772
A147
3998
00A4
2870
ENDCHAR
STARTCHAR uni207A
ENCODING 8314
SWIDTH 536 0
DWIDTH 5 0
BBX 5 5 0 3
BITMAP
004000
009000
49C980
009000
009000
ENDCHAR
STARTCHAR uni207B
ENCODING 8315
SWIDTH 536 0
DWIDTH 5 0
BBX 5 1 0 5
BITMAP
499980
ENDCHAR
STARTCHAR uni207C
ENCODING 8316
SWIDTH 534 0
DWIDTH 5 0
BBX 5 3 0 4
BITMAP
499980
000000
499980
ENDCHAR
STARTCHAR parenleftsuperior
ENCODING 8317
SWIDTH 268 0
DWIDTH 3 0
BBX 3 8 0 1
BITMAP
0010
0710
6300
A000
A000
8200
1700
0220
ENDCHAR
STARTCHAR parenrightsuperior
ENCODING 8318
SWIDTH 268 0
DWIDTH 3 0
BBX 3 8 0 1
BITMAP
1000
3500
0810
0550
0460
0630
1800
4000
ENDCHAR
STARTCHAR nsuperior
ENCODING 8319
SWIDTH 491 0
DWIDTH 5 0
BBX 5 4 0 3
BITMAP
5B8A00
290B10
290A10
5B2C40
ENDCHAR
STARTCHAR zeroinferior
ENCODING 8320
SWIDTH 412 0
DWIDTH 4 0
BBX 4 5 0 -2
BITMAP
2873
821A
A10B
821A
2873
ENDCHAR
STARTCHAR oneinferior
ENCODING 8321
SWIDTH 333 0
DWIDTH 3 0
BBX 3 5 0 -2
BITMAP
3C20
0920
0920
0920
3C70
ENDCHAR
STARTCHAR twoinferior
ENCODING 8322
SWIDTH 373 0
DWIDTH 4 0
BBX 4 5 0 -2
BITMAP
49B1
1084
0090
0712
9CB6
ENDCHAR
STARTCHAR threeinferior
ENCODING 8323
SWIDTH 374 0
DWIDTH 4 0
BBX 4 5 0 -2
BITMAP
49B0
1090
07A1
0075
6771
ENDCHAR
STARTCHAR fourinferior
ENCODING 8324
SWIDTH 403 0
DWIDTH 4 0
BBX 4 5 0 -2
BITMAP
00C1
06A1
43A1
9ADA
00A1
ENDCHAR
STARTCHAR fiveinferior
ENCODING 8325
SWIDTH 358 0
DWIDTH 4 0
BBX 4 5 0 -2
BITMAP
3BB0
5B70
0092
0062
7760
ENDCHAR
STARTCHAR sixinferior
ENCODING 8326
SWIDTH 390 0
DWIDTH 4 0
BBX 4 5 0 -2
BITMAP
0641
5991
A248
9228
3872
ENDCHAR
STARTCHAR seveninferior
ENCODING 8327
SWIDTH 364 0
DWIDTH 4 0
BBX 4 5 0 -2
BITMAP
8BC6
2071
0080
0450
0900
ENDCHAR
STARTCHAR eightinferior
ENCODING 8328
SWIDTH 374 0
DWIDTH 4 0
BBX 4 5 0 -2
BITMAP
5682
8562
1CA0
9176
6673
ENDCHAR
STARTCHAR nineinferior
ENCODING 8329
SWIDTH 390 0
DWIDTH 4 0
BBX 4 5 0 -2
BITMAP
5772
A147
3998
00A4
2870
ENDCHAR
STARTCHAR uni208A
ENCODING 8330
SWIDTH 536 0
DWIDTH 5 0
BBX 5 5 0 -2
BITMAP
004000
009000
49C980
009000
009000
ENDCHAR
STARTCHAR uni208B
ENCODING 8331
SWIDTH 536 0
DWIDTH 5 0
BBX 5 1 0 0
BITMAP
499980
ENDCHAR
STARTCHAR uni208C
ENCODING 8332
SWIDTH 534 0
DWIDTH 5 0
BBX 5 3 0 -1
BITMAP
499980
000000
499980
ENDCHAR
STARTCHAR parenleftinferior
ENCODING 8333
SWIDTH 268 0
DWIDTH 3 0
BBX 3 8 0 -4
BITMAP
0010
0710
6300
A000
A000
8200
1700
0220
ENDCHAR
STARTCHAR parenrightinferior
ENCODING 8334
SWIDTH 268 0
DWIDTH 3 0
BBX 3 8 0 -4
BITMAP
1000
3500
0810
0550
0460
0630
1800
4000
ENDCHAR
STARTCHAR uni20A3
ENCODING 8355
SWIDTH 495 0
DWIDTH 5 0
BBX 5 7 0 0
BITMAP
4B7880
0D0070
0D0020
5E7600
5E7600
0D0000
4F6000
ENDCHAR
STARTCHAR uni20A4
ENCODING 8356
SWIDTH 495 0
DWIDTH 5 0
BBX 5 7 0 0
BITMAP
017B50
063250
093000
3C9500
3BA500
4A5030
77BB30
ENDCHAR
STARTCHAR uni20A7
ENCODING 8359
SWIDTH 1193 0
DWIDTH 12 0
BBX 12 7 0 0
BITMAP
3A7750100000
0B30C3900000
0B30C3D53886
0B8730C06803
0B3000C01AC2
0B3000C04069
3D8100B87775
ENDCHAR
STARTCHAR uni20AB
ENCODING 8363
SWIDTH 495 0
DWIDTH 5 0
BBX 5 7 0 0
BITMAP
003D00
026D40
186E00
740C00
850C00
2B8B20
266610
ENDCHAR
STARTCHAR Euro
ENCODING 8364
SWIDTH 495 0
DWIDTH 5 0
BBX 5 7 0 0
BITMAP
058790
1B0070
8B6300
680000
9C7300
2C0020
07CA40
ENDCHAR
STARTCHAR uni20B9
ENCODING 8377
SWIDTH 495 0
DWIDTH 5 0
BBX 5 7 0 0
BITMAP
8FFF70
007800
8FFF70
8FC400
04D200
009C10
001CD0
ENDCHAR
STARTCHAR uni20BA
ENCODING 8378
SWIDTH 495 0
DWIDTH 5 0
BBX 5 7 0 0
BITMAP
5A5000
0E0000
0D6200
5E5200
6E2160
0D03A0
5E6920
ENDCHAR
STARTCHAR uni20BD
ENCODING 8381
SWIDTH 495 0
DWIDTH 5 0
BBX 5 7 0 0
BITMAP
4B7810
0D06A0
0D0580
5E6700
5E7500
0D0000
4F6000
ENDCHAR
STARTCHAR uni20D0
ENCODING 8400
SWIDTH 0 0
DWIDTH 0 0
BBX 5 2 -5 7
BITMAP
050000
6EDDA0
ENDCHAR
STARTCHAR uni20D1
ENCODING 8401
SWIDTH 0 0
DWIDTH 0 0
BBX 5 2 -5 7
BITMAP
000420
5DDDB0
ENDCHAR
STARTCHAR uni20D2
ENCODING 8402
SWIDTH 0 0
DWIDTH 0 0
BBX 1 9 -3 -2
BITMAP
80
80
80
80
80
80
80
80
40
ENDCHAR
STARTCHAR uni20D3
ENCODING 8403
SWIDTH 0 0
DWIDTH 0 0
BBX 1 7 -3 -2
BITMAP
40
80
80
80
80
80
80
ENDCHAR
STARTCHAR uni20D4
ENCODING 8404
SWIDTH 0 0
DWIDTH 0 0
BBX 6 3 -6 5
BITMAP
007EC2
238139
0C4005
ENDCHAR
STARTCHAR uni20D5
ENCODING 8405
SWIDTH 0 0
DWIDTH 0 0
BBX 6 3 -5 5
BITMAP
08EB10
481373
5002A5
ENDCHAR
STARTCHAR uni20D6
ENCODING 8406
SWIDTH 0 0
DWIDTH 0 0
BBX 5 3 -5 6
BITMAP
060000
7EDDA0
050000
ENDCHAR
STARTCHAR uni20D7
ENCODING 8407
SWIDTH 0 0
DWIDTH 0 0
BBX 5 3 -5 6
BITMAP
000330
5DDDC0
000320
ENDCHAR
STARTCHAR uni20D8
ENCODING 8408
SWIDTH 0 0
DWIDTH 0 0
BBX 4 3 -4 1
BITMAP
5EB0
A283
6EB0
ENDCHAR
STARTCHAR uni20D9
ENCODING 8409
SWIDTH 0 0
DWIDTH 0 0
BBX 4 3 -4 1
BITMAP
5E90
92A5
6EB1
ENDCHAR
STARTCHAR uni20DA
ENCODING 8410
SWIDTH 0 0
DWIDTH 0 0
BBX 4 3 -4 1
BITMAP
6EB1
A2A5
6E90
ENDCHAR
STARTCHAR uni20DB
ENCODING 8411
SWIDTH 0 0
DWIDTH 0 0
BBX 6 1 -5 5
BITMAP
A19192
ENDCHAR
STARTCHAR uni20DC
ENCODING 8412
SWIDTH 0 0
DWIDTH 0 0
BBX 8 1 -6 5
BITMAP
A1A19192
ENDCHAR
STARTCHAR uni20DD
ENCODING 8413
SWIDTH 0 0
DWIDTH 0 0
BBX 11 10 -8 -2
BITMAP
0006CFE92000
00BA3017D300
078000003C00
0B0000000750
290000000380
290000000380
0B0000000750
078000003C00
00BA3017D300
0006CFE92000
ENDCHAR
STARTCHAR uni20DE
ENCODING 8414
SWIDTH 0 0
DWIDTH 0 0
BBX 11 10 -8 -2
BITMAP
3EDDDDDDDD90
370000000190
370000000190
370000000190
370000000190
370000000190
370000000190
370000000190
370000000190
3EDDDDDDDD90
ENDCHAR
STARTCHAR uni20DF
ENCODING 8415
SWIDTH 0 0
DWIDTH 0 0
BBX 13 13 -9 -4
BITMAP
00000051000000
0000069B100000
00006803B10000
000780003B1000
0078000003B100
07800000003B10
2C000000000780
05900000004A00
0059000004A000
000590004A0000
00005904A00000
000005BA000000
00000030000000
ENDCHAR
STARTCHAR uni20E1
ENCODING 8417
SWIDTH 0 0
DWIDTH 0 0
BBX 6 3 -5 6
BITMAP
150240
9EDDE1
150240
ENDCHAR
STARTCHAR uni20E4
ENCODING 8420
SWIDTH 0 0
DWIDTH 0 0
BBX 15 13 -10 -2
BITMAP
0000000100000000
0000000C20000000
00000079B0000000
000002C095000000
00000A301C100000
0000490005900000
0000C10000A30000
00075000002B0000
002B000000067000
00A200000000B200
0580000000003A00
1B10000000000840
7EDDDDDDDDDDDDC0
ENDCHAR
STARTCHAR uni20E5
ENCODING 8421
SWIDTH 0 0
DWIDTH 0 0
BBX 5 9 -5 -2
BITMAP
130000
080000
071000
027000
008000
004400
000800
000720
000170
ENDCHAR
STARTCHAR uni20E6
ENCODING 8422
SWIDTH 0 0
DWIDTH 0 0
BBX 3 9 -4 -2
BITMAP
4040
7080
7080
7080
7080
7080
7080
7080
7080
ENDCHAR
STARTCHAR uni20E7
ENCODING 8423
SWIDTH 0 0
DWIDTH 0 0
BBX 10 10 -7 -2
BITMAP
4DDDDDDDE1
0000000091
0000000091
0000000091
0000000091
0000000091
0000000091
0000000091
0000000091
0000000040
ENDCHAR
STARTCHAR uni20E8
ENCODING 8424
SWIDTH 0 0
DWIDTH 0 0
BBX 6 1 -5 -2
BITMAP
A19192
ENDCHAR
STARTCHAR uni20E9
ENCODING 8425
SWIDTH 0 0
DWIDTH 0 0
BBX 6 2 -5 5
BITMAP
EDDDD6
700026
ENDCHAR
STARTCHAR uni20EA
ENCODING 8426
SWIDTH 0 0
DWIDTH 0 0
BBX 9 5 -7 0
BITMAP
0010000000
0440000000
4FEDDDDD50
0440000000
0010000000
ENDCHAR
STARTCHAR uni20EB
ENCODING 8427
SWIDTH 0 0
DWIDTH 0 0
BBX 7 10 -6 -2
BITMAP
00008080
00017350
00071800
00081700
00546200
00808000
02645000
08180000
08170000
63710000
ENDCHAR
STARTCHAR uni20EC
ENCODING 8428
SWIDTH 0 0
DWIDTH 0 0
BBX 5 2 -5 -3
BITMAP
5DDDC0
000420
ENDCHAR
STARTCHAR uni20ED
ENCODING 8429
SWIDTH 0 0
DWIDTH 0 0
BBX 5 2 -5 -3
BITMAP
6EDDA0
050000
ENDCHAR
STARTCHAR uni20EE
ENCODING 8430
SWIDTH 0 0
DWIDTH 0 0
BBX 5 3 -5 -3
BITMAP
050000
6EDDA0
060000
ENDCHAR
STARTCHAR uni20EF
ENCODING 8431
SWIDTH 0 0
DWIDTH 0 0
BBX 5 3 -5 -3
BITMAP
000320
5DDDC0
000330
ENDCHAR
STARTCHAR uni20F0
ENCODING 8432
SWIDTH 0 0
DWIDTH 0 0
BBX 3 3 -4 5
BITMAP
3730
4A80
3740
ENDCHAR
STARTCHAR uni2100
ENCODING 8448
SWIDTH 939 0
DWIDTH 9 0
BBX 9 7 0 0
BITMAP
2DD2003400
4584008000
0585062000
7565266EB0
5EBB81B180
000440C120
0007008E90
ENDCHAR
STARTCHAR uni2101
ENCODING 8449
SWIDTH 936 0
DWIDTH 9 0
BBX 9 7 0 0
BITMAP
2DD2003400
4584008000
0585062000
7565268E80
5EBB805010
0004401060
0007008EB0
ENDCHAR
STARTCHAR uni2102
ENCODING 8450
SWIDTH 695 0
DWIDTH 7 0
BBX 7 7 0 0
BITMAP
03BED600
1D512840
68100000
75100000
68100000
1D511840
03BED500
ENDCHAR
STARTCHAR uni2103
ENCODING 8451
SWIDTH 1028 0
DWIDTH 10 0
BBX 10 8 0 0
BITMAP
1771000000
63170787CA
6317690019
1781C40002
0000D20000
0000C40000
00007A0004
000008B992
ENDCHAR
STARTCHAR uni2104
ENCODING 8452
SWIDTH 646 0
DWIDTH 6 0
BBX 7 7 0 0
BITMAP
05A40000
29EA0000
A5D10000
B5D00000
4DE80120
03E00720
06A77A00
ENDCHAR
STARTCHAR uni2105
ENCODING 8453
SWIDTH 953 0
DWIDTH 10 0
BBX 10 7 0 0
BITMAP
1CE3008000
7555053000
9100170000
760172BE80
2DE65771C1
00080771C1
005201CE70
ENDCHAR
STARTCHAR uni2106
ENCODING 8454
SWIDTH 1072 0
DWIDTH 11 0
BBX 11 7 0 0
BITMAP
1BE400710000
664602500000
820008000000
771353743900
1CD370560B00
000710571B00
0035002E9C40
ENDCHAR
STARTCHAR uni2107
ENCODING 8455
SWIDTH 612 0
DWIDTH 6 0
BBX 6 7 0 0
BITMAP
09EE66
5D2047
3D2001
08FF00
9B2000
9B2069
1AEEA2
ENDCHAR
STARTCHAR uni2108
ENCODING 8456
SWIDTH 669 0
DWIDTH 7 0
BBX 7 7 0 0
BITMAP
67CEA100
66008B00
10510E10
006EDF20
00100E10
5512AA00
08EEA100
ENDCHAR
STARTCHAR uni2109
ENCODING 8457
SWIDTH 949 0
DWIDTH 9 0
BBX 10 8 0 0
BITMAP
1771000000
63177E77A5
63171D0013
17811D0060
00001E7970
00001D0020
00001D0000
00007E5000
ENDCHAR
STARTCHAR uni210A
ENCODING 8458
SWIDTH 657 0
DWIDTH 7 0
BBX 8 7 -1 -3
BITMAP
0002CE50
001B2670
01B70B20
28866E41
107E4C00
0571A700
04EE8000
ENDCHAR
STARTCHAR uni210B
ENCODING 8459
SWIDTH 951 0
DWIDTH 10 0
BBX 10 7 0 0
BITMAP
0156D202CA
0A03A00923
0A06704400
000996B000
000C00B000
404600E520
7640008800
ENDCHAR
STARTCHAR uni210C
ENCODING 8460
SWIDTH 728 0
DWIDTH 7 0
BBX 7 10 0 -3
BITMAP
00141300
019EC100
07403100
0996AE30
03F309A0
008804C0
2D920590
24300A20
01CD7300
03152000
ENDCHAR
STARTCHAR uni210D
ENCODING 8461
SWIDTH 715 0
DWIDTH 7 0
BBX 7 7 0 0
BITMAP
4D503D60
43503470
43503470
43EDE470
43503470
43503470
4D503D60
ENDCHAR
STARTCHAR uni210E
ENCODING 8462
SWIDTH 569 0
DWIDTH 6 0
BBX 6 7 0 0
BITMAP
04A000
066000
093AD0
0B83C0
1E31A0
4A0572
6507C1
ENDCHAR
STARTCHAR uni210F
ENCODING 8463
SWIDTH 569 0
DWIDTH 6 0
BBX 6 7 0 0
BITMAP
04A310
189300
3A3AD0
0B83C0
1E31A0
4A0572
6507C1
ENDCHAR
STARTCHAR uni2110
ENCODING 8464
SWIDTH 496 0
DWIDTH 5 0
BBX 6 7 0 0
BITMAP
02AEB1
0B3570
190840
000B10
001B00
619600
9E8000
ENDCHAR
STARTCHAR uni2111
ENCODING 8465
SWIDTH 673 0
DWIDTH 7 0
BBX 7 7 0 -1
BITMAP
06EC4220
1916EB00
2900AD10
0AB0D100
3E806800
25F36D00
009ED400
ENDCHAR
STARTCHAR uni2112
ENCODING 8466
SWIDTH 699 0
DWIDTH 7 0
BBX 6 7 0 0
BITMAP
001AE8
00883B
00D100
02C000
073002
6B9318
504CE5
ENDCHAR
STARTCHAR uni2113
ENCODING 8467
SWIDTH 529 0
DWIDTH 5 0
BBX 5 7 0 0
BITMAP
001BD0
009670
03A020
092000
4A0100
383600
1DA000
ENDCHAR
STARTCHAR uni2114
ENCODING 8468
SWIDTH 787 0
DWIDTH 8 0
BBX 8 7 0 0
BITMAP
3C1A4000
CFFFFF00
0C087DC1
0C0871B6
0C084067
0D0850B4
9E83DE80
ENDCHAR
STARTCHAR uni2115
ENCODING 8469
SWIDTH 692 0
DWIDTH 7 0
BBX 7 7 0 0
BITMAP
4D600330
45A20330
483A1330
42938330
421A4830
42039630
42007D30
ENDCHAR
STARTCHAR uni2116
ENCODING 8470
SWIDTH 1070 0
DWIDTH 11 0
BBX 11 7 0 0
BITMAP
0BF2004A4000
00DB00743000
008C5163EC10
0073D2693750
007079694740
21600C62A900
A80002548820
ENDCHAR
STARTCHAR uni2117
ENCODING 8471
SWIDTH 781 0
DWIDTH 8 0
BBX 8 7 0 0
BITMAP
02AEE910
0BFFE990
53376762
603FD224
53380062
0BFF3690
02AEE910
ENDCHAR
STARTCHAR uni2118
ENCODING 8472
SWIDTH 846 0
DWIDTH 8 0
BBX 9 8 0 -3
BITMAP
0374200000
2B006CFB00
680BC41D20
3999100D10
07C3A38800
0C1B7E9000
0C4A000000
0CD2000000
ENDCHAR
STARTCHAR uni2119
ENCODING 8473
SWIDTH 665 0
DWIDTH 7 0
BBX 7 7 0 0
BITMAP
4DDDC500
43507A10
43507430
43507910
43EDC500
43500000
4D500000
ENDCHAR
STARTCHAR uni211A
ENCODING 8474
SWIDTH 751 0
DWIDTH 8 0
BBX 7 8 0 -1
BITMAP
02BED700
1D512B70
691007A0
75100770
55100770
18100770
021C9710
00100AE0
ENDCHAR
STARTCHAR uni211B
ENCODING 8475
SWIDTH 789 0
DWIDTH 8 0
BBX 8 8 0 0
BITMAP
00002000
007DFE70
098683F1
0B0840B0
000B6620
001A7700
50632D51
86300770
ENDCHAR
STARTCHAR uni211C
ENCODING 8476
SWIDTH 778 0
DWIDTH 8 0
BBX 8 8 0 -1
BITMAP
3DE3AD20
878D2A80
3C4E0A40
0A6E7B00
153B1F10
03550F30
3DA00CA1
00100110
ENDCHAR
STARTCHAR uni211D
ENCODING 8477
SWIDTH 729 0
DWIDTH 7 0
BBX 7 7 0 0
BITMAP
4DDDC600
43507920
43506430
43507910
43EEE400
43557500
4D506D90
ENDCHAR
STARTCHAR uni211E
ENCODING 8478
SWIDTH 725 0
DWIDTH 7 0
BBX 7 8 0 -1
BITMAP
8EDCA100
0C30A800
0B32B500
0BFE4000
0B39A240
0C30BB00
9EE45EB0
00040000
ENDCHAR
STARTCHAR uni211F
ENCODING 8479
SWIDTH 659 0
DWIDTH 7 0
BBX 7 11 0 -3
BITMAP
00373000
10016000
0A35E300
0A49A700
0A48B300
0ABE3000
0AA8B000
0B51D800
8EE34E90
06220000
04730000
ENDCHAR
STARTCHAR uni2120
ENCODING 8480
SWIDTH 937 0
DWIDTH 9 0
BBX 9 5 0 2
BITMAP
0045E207E0
5280C80C70
3A407C2970
1091689470
7DD6E47AE0
ENDCHAR
STARTCHAR uni2121
ENCODING 8481
SWIDTH 1200 0
DWIDTH 12 0
BBX 12 4 0 2
BITMAP
9AA98B897C10
04603EE12800
046038272816
0CD0AEEBAEE8
ENDCHAR
STARTCHAR trademark
ENCODING 8482
SWIDTH 881 0
DWIDTH 9 0
BBX 9 4 0 3
BITMAP
CFFAF40D80
47349B5D10
07306BA910
0EA3E66E80
ENDCHAR
STARTCHAR uni2123
ENCODING 8483
SWIDTH 680 0
DWIDTH 7 0
BBX 8 11 -1 -3
BITMAP
00037300
00011700
1FF919FD
04F16192
00B57170
004E3720
000D4800
0039D200
00606000
00632000
00482000
ENDCHAR
STARTCHAR uni2124
ENCODING 8484
SWIDTH 648 0
DWIDTH 6 0
BBX 7 7 0 0
BITMAP
5DDDED50
00035810
00166200
00754000
07460000
53700000
CDDDDD30
ENDCHAR
STARTCHAR uni2125
ENCODING 8485
SWIDTH 434 0
DWIDTH 4 0
BBX 4 9 0 -3
BITMAP
77B8
1560
3FFB
0191
0693
001D
001E
427A
7EB1
ENDCHAR
STARTCHAR uni2126
ENCODING 8486
SWIDTH 763 0
DWIDTH 8 0
BBX 8 7 0 0
BITMAP
03BEE910
1E812CA0
6D0003F0
6C0002F0
1D200790
32926603
ADD38DD5
ENDCHAR
STARTCHAR uni2127
ENCODING 8487
SWIDTH 763 0
DWIDTH 8 0
BBX 8 7 0 0
BITMAP
ADD38DE5
32826713
1D200890
6C0002F0
6D0003F0
1E712C90
03CFE910
ENDCHAR
STARTCHAR uni2128
ENCODING 8488
SWIDTH 641 0
DWIDTH 6 0
BBX 6 9 0 -2
BITMAP
01BEB1
0721B9
02005A
0041A5
005FB0
003189
3E603E
26D16C
01BFC2
ENDCHAR
STARTCHAR uni2129
ENCODING 8489
SWIDTH 368 0
DWIDTH 4 0
BBX 3 6 0 -1
BITMAP
4E70
48C0
07C0
07C0
07C0
0360
ENDCHAR
STARTCHAR uni212A
ENCODING 8490
SWIDTH 702 0
DWIDTH 7 0
BBX 7 7 0 0
BITMAP
3D919B30
0A418000
0A480000
0AC50000
0A5C4000
0A42D400
3D919E60
ENDCHAR
STARTCHAR uni212B
ENCODING 8491
SWIDTH 722 0
DWIDTH 7 0
BBX 8 9 0 0
BITMAP
003D4000
00617000
001C2000
003C6000
0083D000
0260C500
09DDEC00
2A001E50
DE207EE2
ENDCHAR
STARTCHAR uni212C
ENCODING 8492
SWIDTH 754 0
DWIDTH 8 0
BBX 7 8 0 0
BITMAP
00002000
019EFFA0
0C6962D0
180B3440
000EFE70
003904C0
02710670
7EDDB600
ENDCHAR
STARTCHAR uni212D
ENCODING 8493
SWIDTH 639 0
DWIDTH 6 0
BBX 6 7 0 0
BITMAP
08D8B5
3D1A83
782B00
880950
6B05B0
1E8F95
04DE80
ENDCHAR
STARTCHAR estimated
ENCODING 8494
SWIDTH 863 0
DWIDTH 9 0
BBX 9 7 0 -1
BITMAP
019EFC4000
1C62029500
7C00003E00
9FFFFFFF30
7C00000000
1B51028300
019EEC5000
ENDCHAR
STARTCHAR uni212F
ENCODING 8495
SWIDTH 527 0
DWIDTH 5 0
BBX 5 5 0 0
BITMAP
019E60
099440
1E1000
7B1560
0BE800
ENDCHAR
STARTCHAR uni2130
ENCODING 8496
SWIDTH 572 0
DWIDTH 6 0
BBX 6 7 0 0
BITMAP
01AED4
06A167
03A100
04BF20
6A2000
981390
3CFC40
ENDCHAR
STARTCHAR uni2131
ENCODING 8497
SWIDTH 713 0
DWIDTH 7 0
BBX 8 8 0 0
BITMAP
00002202
018DFFF5
0A71C000
0802A000
0039A600
00093000
40280000
86400000
ENDCHAR
STARTCHAR uni2132
ENCODING 8498
SWIDTH 588 0
DWIDTH 6 0
BBX 6 7 0 0
BITMAP
002892
000680
070680
0EDE80
210680
800680
887892
ENDCHAR
STARTCHAR uni2133
ENCODING 8499
SWIDTH 1038 0
DWIDTH 10 0
BBX 11 7 0 0
BITMAP
03DD20008E90
061DA00BE350
0008E086C000
0034D4948000
0071BC185000
7290A80A4300
DC20A209D200
ENDCHAR
STARTCHAR uni2134
ENCODING 8500
SWIDTH 691 0
DWIDTH 7 0
BBX 8 5 -1 0
BITMAP
0002CE40
002C37F9
02C80580
36591C30
001CE500
ENDCHAR
STARTCHAR uni2135
ENCODING 8501
SWIDTH 698 0
DWIDTH 7 0
BBX 7 7 0 0
BITMAP
74006500
4E402E30
09E50860
4B4EA300
4C03E600
08702D40
5E700260
ENDCHAR
STARTCHAR uni2136
ENCODING 8502
SWIDTH 654 0
DWIDTH 7 0
BBX 6 8 0 -1
BITMAP
160000
2EEFC2
001187
000038
000035
000042
1BEEEA
122220
ENDCHAR
STARTCHAR uni2137
ENCODING 8503
SWIDTH 517 0
DWIDTH 5 0
BBX 5 7 0 0
BITMAP
082000
06EA00
000A00
000700
000A00
007B70
3E8190
ENDCHAR
STARTCHAR uni2138
ENCODING 8504
SWIDTH 613 0
DWIDTH 6 0
BBX 5 8 0 -1
BITMAP
540000
4EFFD0
000080
000570
000780
0006B0
000680
000100
ENDCHAR
STARTCHAR uni2139
ENCODING 8505
SWIDTH 361 0
DWIDTH 4 0
BBX 4 7 0 0
BITMAP
1E80
1B70
6C80
1FA0
1FA0
2FB0
BEE6
ENDCHAR
STARTCHAR uni213A
ENCODING 8506
SWIDTH 907 0
DWIDTH 9 0
BBX 9 7 0 0
BITMAP
0000000030
04CFE91070
2B3114A3A0
7100005E40
7100005400
2B3114B000
04CEEA2000
ENDCHAR
STARTCHAR uni213B
ENCODING 8507
SWIDTH 1216 0
DWIDTH 12 0
BBX 13 4 0 2
BITMAP
6B790B11A96800
1EE354900A8000
1923DDE345B400
9E38A0CEE4AE10
ENDCHAR
STARTCHAR uni213C
ENCODING 8508
SWIDTH 689 0
DWIDTH 7 0
BBX 7 5 0 0
BITMAP
BFFFFF40
07777000
07777000
07777240
0DA39D20
ENDCHAR
STARTCHAR uni213D
ENCODING 8509
SWIDTH 552 0
DWIDTH 6 0
BBX 6 8 0 -3
BITMAP
140012
964081
187640
037A00
008710
007940
008C40
00AD10
ENDCHAR
STARTCHAR uni213E
ENCODING 8510
SWIDTH 550 0
DWIDTH 6 0
BBX 6 7 0 0
BITMAP
4DDDD6
435000
435000
435000
435000
435000
4D5000
ENDCHAR
STARTCHAR uni213F
ENCODING 8511
SWIDTH 714 0
DWIDTH 7 0
BBX 7 7 0 0
BITMAP
4DDDDD60
43503460
43503460
43503460
43503460
43503460
4D503D60
ENDCHAR
STARTCHAR uni2140
ENCODING 8512
SWIDTH 945 0
DWIDTH 9 0
BBX 9 11 0 -3
BITMAP
5DDEDDDB00
190A000000
0654600000
0091920000
0028190000
0009182000
0028190000
0091920000
0644600000
191A000000
5DDEDDDDD0
ENDCHAR
STARTCHAR uni2141
ENCODING 8513
SWIDTH 711 0
DWIDTH 7 0
BBX 7 7 0 0
BITMAP
19EFC400
5B115E40
590005A0
5F9002C0
000005A0
29214D30
06DFC300
ENDCHAR
STARTCHAR uni2142
ENCODING 8514
SWIDTH 572 0
DWIDTH 6 0
BBX 5 7 0 0
BITMAP
ADDDD0
0000D0
0000D0
0000D0
0000D0
0000D0
0000C0
ENDCHAR
STARTCHAR uni2143
ENCODING 8515
SWIDTH 572 0
DWIDTH 6 0
BBX 5 8 0 0
BITMAP
000010
0000D0
0000D0
0000D0
0000D0
0000D0
0000D0
ADDDD0
ENDCHAR
STARTCHAR uni2144
ENCODING 8516
SWIDTH 645 0
DWIDTH 6 0
BBX 7 7 0 0
BITMAP
004A0000
004A0000
004A0000
008D1000
03C69000
0C30B400
78002C10
ENDCHAR
STARTCHAR uni2145
ENCODING 8517
SWIDTH 717 0
DWIDTH 7 0
BBX 7 7 0 0
BITMAP
08EDD800
08700970
07700780
35600870
65303560
67008810
BEDD8100
ENDCHAR
STARTCHAR uni2146
ENCODING 8518
SWIDTH 607 0
DWIDTH 6 0
BBX 7 7 0 0
BITMAP
00006F40
00009510
0AEA9600
6A466700
86055600
872A6300
3DCCE000
ENDCHAR
STARTCHAR uni2147
ENCODING 8519
SWIDTH 520 0
DWIDTH 5 0
BBX 5 5 0 0
BITMAP
07EC20
582670
7AFFB0
891430
2CE900
ENDCHAR
STARTCHAR uni2148
ENCODING 8520
SWIDTH 285 0
DWIDTH 3 0
BBX 3 7 0 0
BITMAP
08D0
0AB0
1D70
4550
6620
6800
BA00
ENDCHAR
STARTCHAR uni2149
ENCODING 8521
SWIDTH 284 0
DWIDTH 3 0
BBX 5 9 -2 -2
BITMAP
0009F0
000BC0
001F70
005540
008510
009500
009600
037500
6E6000
ENDCHAR
STARTCHAR uni214A
ENCODING 8522
SWIDTH 680 0
DWIDTH 7 0
BBX 7 8 0 0
BITMAP
00100000
00A00000
8DEDD600
82A01B10
51A00B10
00BDD700
00A00000
00ADD900
ENDCHAR
STARTCHAR uni214B
ENCODING 8523
SWIDTH 736 0
DWIDTH 7 0
BBX 8 7 0 0
BITMAP
3EB2BEA0
318D22E1
007960B0
0650C720
5FD6D900
000A1C00
000BE700
ENDCHAR
STARTCHAR uni214C
ENCODING 8524
SWIDTH 794 0
DWIDTH 8 0
BBX 8 7 0 0
BITMAP
4E80AEB1
82D561C7
26EF8296
2AC64AA0
03EFB460
00C52020
00AD0000
ENDCHAR
STARTCHAR uni214D
ENCODING 8525
SWIDTH 1010 0
DWIDTH 10 0
BBX 10 7 0 0
BITMAP
0050000710
05B1003500
0757008000
4FFE162BD6
C62E960400
0000700104
0004401BE8
ENDCHAR
STARTCHAR uni214E
ENCODING 8526
SWIDTH 473 0
DWIDTH 5 0
BBX 4 6 0 0
BITMAP
0016
002C
002C
2DDC
002C
6DDB
ENDCHAR
STARTCHAR uni214F
ENCODING 8527
SWIDTH 1161 0
DWIDTH 12 0
BBX 12 5 0 0
BITMAP
03E62D81DA00
082A73A54A00
072754745700
03D61C81B900
CD8DEACEBBE6
ENDCHAR
STARTCHAR onethird
ENCODING 8531
SWIDTH 899 0
DWIDTH 9 0
BBX 9 7 0 0
BITMAP
2C00035000
0B00080000
0B00537A10
0B01721740
0407104A10
0035000380
0080038630
ENDCHAR
STARTCHAR twothirds
ENCODING 8532
SWIDTH 948 0
DWIDTH 9 0
BBX 9 7 0 0
BITMAP
38B2007000
0092044000
0532074960
7AA46110A0
0002601960
00080000B0
0053008570
ENDCHAR
STARTCHAR uni2155
ENCODING 8533
SWIDTH 867 0
DWIDTH 9 0
BBX 9 7 0 0
BITMAP
2C00035000
0B00080000
0B0053AA10
0B01723000
294714A900
0035000630
0080057710
ENDCHAR
STARTCHAR uni2156
ENCODING 8534
SWIDTH 916 0
DWIDTH 9 0
BBX 9 7 0 0
BITMAP
38B2007000
0082044000
0233076A60
4AA4616000
0002609A40
0008000090
0053009550
ENDCHAR
STARTCHAR uni2157
ENCODING 8535
SWIDTH 896 0
DWIDTH 9 0
BBX 9 7 0 0
BITMAP
38B0017000
0180071000
05A1258A40
1073805000
564530BA20
0017000280
0071028630
ENDCHAR
STARTCHAR uni2158
ENCODING 8536
SWIDTH 929 0
DWIDTH 9 0
BBX 9 7 0 0
BITMAP
02C0007100
16A0035000
79D6084A70
00A0625000
0041608A50
00070000A0
0044008660
ENDCHAR
STARTCHAR uni2159
ENCODING 8537
SWIDTH 871 0
DWIDTH 9 0
BBX 9 7 0 0
BITMAP
3D00035000
0B00080000
0B00530300
0B01739200
28471A7910
00350B0650
0080056820
ENDCHAR
STARTCHAR uni215A
ENCODING 8538
SWIDTH 871 0
DWIDTH 9 0
BBX 9 7 0 0
BITMAP
3AA0026000
5A70080000
0091533600
2071749000
55271A7910
00350A0650
0080046820
ENDCHAR
STARTCHAR oneeighth
ENCODING 8539
SWIDTH 887 0
DWIDTH 9 0
BBX 9 7 0 0
BITMAP
3C00035000
0B00080000
0B00535500
0B01774440
294713A710
0035044840
0080056640
ENDCHAR
STARTCHAR threeeighths
ENCODING 8540
SWIDTH 911 0
DWIDTH 9 0
BBX 9 7 0 0
BITMAP
38B0017000
0180071000
05A1255510
0073837180
564531B730
0017025670
0071037570
ENDCHAR
STARTCHAR fiveeighths
ENCODING 8541
SWIDTH 891 0
DWIDTH 9 0
BBX 9 7 0 0
BITMAP
3AA0026000
5A70080000
0091545500
1071764450
664712B710
0035044850
0080056650
ENDCHAR
STARTCHAR seveneighths
ENCODING 8542
SWIDTH 847 0
DWIDTH 8 0
BBX 8 7 0 0
BITMAP
8AC20700
10704400
05307444
09061B09
112606D4
00800A4C
05300948
ENDCHAR
STARTCHAR uni2190
ENCODING 8592
SWIDTH 948 0
DWIDTH 9 0
BBX 9 5 0 0
BITMAP
0012000000
0270000000
1EEDDDDDA0
0270000000
0012000000
ENDCHAR
STARTCHAR uni2191
ENCODING 8593
SWIDTH 523 0
DWIDTH 5 0
BBX 5 9 0 -2
BITMAP
003000
01E300
08D910
21A030
00A000
00A000
00A000
00A000
00A000
ENDCHAR
STARTCHAR uni2192
ENCODING 8594
SWIDTH 948 0
DWIDTH 9 0
BBX 9 5 0 0
BITMAP
0000003000
0000002600
4DDDDDDF70
0000003600
0000003000
ENDCHAR
STARTCHAR uni2193
ENCODING 8595
SWIDTH 523 0
DWIDTH 5 0
BBX 5 9 0 -2
BITMAP
005000
00A000
00A000
00A000
00A000
00A000
21A030
06D710
00A100
ENDCHAR
STARTCHAR uni2194
ENCODING 8596
SWIDTH 948 0
DWIDTH 9 0
BBX 9 5 0 0
BITMAP
0030003000
0540001710
5FEDDDDFC0
0540000710
0030003000
ENDCHAR
STARTCHAR uni2195
ENCODING 8597
SWIDTH 523 0
DWIDTH 5 0
BBX 5 10 0 -2
BITMAP
009100
04F800
25B440
00A000
00A000
00A000
00A000
21A020
06D710
00A100
ENDCHAR
STARTCHAR uni2196
ENCODING 8598
SWIDTH 948 0
DWIDTH 9 0
BBX 9 10 0 -2
BITMAP
1300000000
2FFC000000
0E70000000
0585000000
0209500000
0000940000
00000A4000
000000A300
0000001B30
0000000150
ENDCHAR
STARTCHAR uni2197
ENCODING 8599
SWIDTH 948 0
DWIDTH 9 0
BBX 9 10 0 -2
BITMAP
0000000130
000005EF90
0000001D60
000001B250
00001B2020
0001A30000
000A300000
00A4000000
0950000000
1500000000
ENDCHAR
STARTCHAR uni2198
ENCODING 8600
SWIDTH 948 0
DWIDTH 9 0
BBX 9 10 0 -3
BITMAP
0100000000
1B10000000
0290000000
0028000000
0002600000
0000250000
0000023050
0000001360
000005EF80
0000000130
ENDCHAR
STARTCHAR uni2199
ENCODING 8601
SWIDTH 948 0
DWIDTH 9 0
BBX 9 10 0 -3
BITMAP
0000000010
0000000670
0000004700
0000036000
0000260000
0001500000
0514000000
0640000000
1FFB000000
1310000000
ENDCHAR
STARTCHAR uni219A
ENCODING 8602
SWIDTH 948 0
DWIDTH 9 0
BBX 9 5 0 0
BITMAP
0021006000
0370027000
2ECAADBA90
0260450000
0011300000
ENDCHAR
STARTCHAR uni219B
ENCODING 8603
SWIDTH 948 0
DWIDTH 9 0
BBX 9 5 0 0
BITMAP
0000514000
0001802700
4AADBAAE80
0036003500
0030001000
ENDCHAR
STARTCHAR uni219C
ENCODING 8604
SWIDTH 948 0
DWIDTH 9 0
BBX 9 4 0 1
BITMAP
1334000000
0EA129EC20
076DE81480
0400000000
ENDCHAR
STARTCHAR uni219D
ENCODING 8605
SWIDTH 948 0
DWIDTH 9 0
BBX 9 4 0 1
BITMAP
0000024330
08EC415F60
2914CEA620
0000000400
ENDCHAR
STARTCHAR uni219E
ENCODING 8606
SWIDTH 948 0
DWIDTH 9 0
BBX 9 5 0 0
BITMAP
0012120000
0271700000
1EEEEDDDA0
0271800000
0012120000
ENDCHAR
STARTCHAR uni219F
ENCODING 8607
SWIDTH 523 0
DWIDTH 5 0
BBX 5 9 0 -2
BITMAP
003000
01E300
05C910
21C120
06D810
21A030
00A000
00A000
00A000
ENDCHAR
STARTCHAR uni21A0
ENCODING 8608
SWIDTH 948 0
DWIDTH 9 0
BBX 9 5 0 0
BITMAP
0000303000
0000463600
4DDDEFDF70
0000462600
0000303000
ENDCHAR
STARTCHAR uni21A1
ENCODING 8609
SWIDTH 523 0
DWIDTH 5 0
BBX 5 9 0 -2
BITMAP
005000
00A000
00A000
00A000
25B440
04F800
22B130
05D700
00A100
ENDCHAR
STARTCHAR uni21A2
ENCODING 8610
SWIDTH 948 0
DWIDTH 9 0
BBX 9 5 0 0
BITMAP
0012000030
0270000820
1EEDDDEA00
0270000720
0012000030
ENDCHAR
STARTCHAR uni21A3
ENCODING 8611
SWIDTH 948 0
DWIDTH 9 0
BBX 9 5 0 0
BITMAP
1200003000
0730003600
03FDDDDF70
0730002600
1200003000
ENDCHAR
STARTCHAR uni21A4
ENCODING 8612
SWIDTH 948 0
DWIDTH 9 0
BBX 9 5 0 0
BITMAP
0012000040
0270000080
1DEDDDDDB0
0170000080
0011000030
ENDCHAR
STARTCHAR uni21A5
ENCODING 8613
SWIDTH 523 0
DWIDTH 5 0
BBX 5 9 0 -2
BITMAP
003000
01E400
05B920
10A020
00A000
00A000
00A000
00A000
5DED80
ENDCHAR
STARTCHAR uni21A6
ENCODING 8614
SWIDTH 948 0
DWIDTH 9 0
BBX 9 5 0 0
BITMAP
2200003000
4400003600
4EDDDDDF70
4400003500
2100002000
ENDCHAR
STARTCHAR uni21A7
ENCODING 8615
SWIDTH 523 0
DWIDTH 5 0
BBX 5 9 0 -2
BITMAP
5DED80
00A000
00A000
00A000
00A000
00A000
23A130
05E800
009100
ENDCHAR
STARTCHAR uni21A8
ENCODING 8616
SWIDTH 523 0
DWIDTH 5 0
BBX 5 9 0 -2
BITMAP
006000
02E500
14B730
10A010
00A000
10A010
16C620
01D300
389850
ENDCHAR
STARTCHAR uni21A9
ENCODING 8617
SWIDTH 948 0
DWIDTH 9 0
BBX 9 6 0 0
BITMAP
000000CC20
0022000290
02700002A0
1EEDDDDC20
0270000000
0012000000
ENDCHAR
STARTCHAR uni21AA
ENCODING 8618
SWIDTH 948 0
DWIDTH 9 0
BBX 9 6 0 0
BITMAP
08D5000000
3800003000
3900002600
08DDDDDF70
0000003600
0000003000
ENDCHAR
STARTCHAR uni21AB
ENCODING 8619
SWIDTH 948 0
DWIDTH 9 0
BBX 9 6 0 0
BITMAP
000001BC20
0022074290
02700912A0
1EEDDEDC20
0160091000
0011081000
ENDCHAR
STARTCHAR uni21AC
ENCODING 8620
SWIDTH 948 0
DWIDTH 9 0
BBX 9 6 0 0
BITMAP
08D5000000
380B003000
3909102600
08DEDDDF70
0009103500
0008102000
ENDCHAR
STARTCHAR uni21AD
ENCODING 8621
SWIDTH 1229 0
DWIDTH 12 0
BBX 12 5 0 0
BITMAP
003000000300
036008C00260
3FFC3A668FF7
0354E30C8260
003000000300
ENDCHAR
STARTCHAR uni21AE
ENCODING 8622
SWIDTH 948 0
DWIDTH 9 0
BBX 9 5 0 0
BITMAP
0040053000
0550261810
4FBACBADB0
0351801600
0011101000
ENDCHAR
STARTCHAR uni21AF
ENCODING 8623
SWIDTH 523 0
DWIDTH 5 0
BBX 5 9 0 -2
BITMAP
000120
000B30
008600
048000
1DDE40
102900
42A100
2D6200
2A5200
ENDCHAR
STARTCHAR uni21B0
ENCODING 8624
SWIDTH 474 0
DWIDTH 5 0
BBX 5 9 0 -2
BITMAP
003000
054000
6FED50
054550
003550
000550
000550
000550
000550
ENDCHAR
STARTCHAR uni21B1
ENCODING 8625
SWIDTH 474 0
DWIDTH 5 0
BBX 5 9 0 -2
BITMAP
012000
006200
8DEE30
916300
922000
910000
910000
910000
810000
ENDCHAR
STARTCHAR uni21B2
ENCODING 8626
SWIDTH 474 0
DWIDTH 5 0
BBX 5 9 0 -2
BITMAP
000640
000640
000640
000640
003640
064640
7FDE40
063000
003000
ENDCHAR
STARTCHAR uni21B3
ENCODING 8627
SWIDTH 474 0
DWIDTH 5 0
BBX 5 10 0 -2
BITMAP
100000
910000
910000
910000
910000
922000
917200
8DEE30
006300
012000
ENDCHAR
STARTCHAR uni21B4
ENCODING 8628
SWIDTH 948 0
DWIDTH 9 0
BBX 9 9 0 -2
BITMAP
4DDDDDE100
0000009100
0000009100
0000009100
0000009100
0000009100
000017A640
000001D600
0000002000
ENDCHAR
STARTCHAR uni21B5
ENCODING 8629
SWIDTH 948 0
DWIDTH 9 0
BBX 9 10 0 -2
BITMAP
0000000010
00000000A0
00000000A0
00000000A0
00000000A0
00120000A0
02700000A0
1EEDDDDDB0
0270000000
0012000000
ENDCHAR
STARTCHAR uni21B6
ENCODING 8630
SWIDTH 948 0
DWIDTH 9 0
BBX 9 6 0 0
BITMAP
0003CFC300
003C414C30
00B20002A0
32B41000B0
08E4000000
0190000000
ENDCHAR
STARTCHAR uni21B7
ENCODING 8631
SWIDTH 948 0
DWIDTH 9 0
BBX 9 6 0 0
BITMAP
019EE80000
0B71289000
4800009300
7300045640
000001BD20
0000003700
ENDCHAR
STARTCHAR uni21B8
ENCODING 8632
SWIDTH 948 0
DWIDTH 9 0
BBX 9 10 0 -2
BITMAP
5DDDDDDDA0
4FFB000000
1E60000000
0595000000
0209500000
0000950000
0000095000
0000009500
0000000950
0000000040
ENDCHAR
STARTCHAR uni21B9
ENCODING 8633
SWIDTH 948 0
DWIDTH 9 0
BBX 9 8 0 -2
BITMAP
3103000000
6281000000
6AFDDDDDC0
6253001020
1001006180
5DDDDDEEA0
0000007280
0000002030
ENDCHAR
STARTCHAR uni21BA
ENCODING 8634
SWIDTH 997 0
DWIDTH 10 0
BBX 8 9 1 -1
BITMAP
00000001
00405A61
09602B90
65000655
A0000109
B000000B
85000068
1D6117D1
01AEEA10
ENDCHAR
STARTCHAR uni21BB
ENCODING 8635
SWIDTH 997 0
DWIDTH 10 0
BBX 8 9 1 -1
BITMAP
10000000
16A50400
09B20790
64600065
9010000A
B000000B
85000058
1D6117C1
01AEEA10
ENDCHAR
STARTCHAR uni21BC
ENCODING 8636
SWIDTH 978 0
DWIDTH 10 0
BBX 10 3 0 2
BITMAP
0015000000
0190000000
2CEDDDDDD3
ENDCHAR
STARTCHAR uni21BD
ENCODING 8637
SWIDTH 978 0
DWIDTH 10 0
BBX 10 3 0 0
BITMAP
1CEDDDDDD3
0190000000
0015000000
ENDCHAR
STARTCHAR uni21BE
ENCODING 8638
SWIDTH 523 0
DWIDTH 5 0
BBX 3 9 2 -2
BITMAP
1000
8000
B710
A020
A000
A000
A000
A000
A000
ENDCHAR
STARTCHAR uni21BF
ENCODING 8639
SWIDTH 523 0
DWIDTH 5 0
BBX 3 9 0 -2
BITMAP
0010
0090
06D0
11A0
00A0
00A0
00A0
00A0
00A0
ENDCHAR
STARTCHAR uni21C0
ENCODING 8640
SWIDTH 978 0
DWIDTH 10 0
BBX 9 3 0 2
BITMAP
0000006000
0000001800
6DDDDDDE90
ENDCHAR
STARTCHAR uni21C1
ENCODING 8641
SWIDTH 978 0
DWIDTH 10 0
BBX 9 3 0 0
BITMAP
6DDDDDDEA0
0000001900
0000006000
ENDCHAR
STARTCHAR uni21C2
ENCODING 8642
SWIDTH 523 0
DWIDTH 5 0
BBX 3 9 2 -2
BITMAP
5000
A000
A000
A000
A000
A000
A420
B400
3000
ENDCHAR
STARTCHAR uni21C3
ENCODING 8643
SWIDTH 523 0
DWIDTH 5 0
BBX 3 9 0 -2
BITMAP
0050
00A0
00A0
00A0
00A0
00A0
15B0
02D0
0030
ENDCHAR
STARTCHAR uni21C4
ENCODING 8644
SWIDTH 948 0
DWIDTH 9 0
BBX 9 8 0 -2
BITMAP
0000003000
0000003600
2DDDDDDF60
0001003400
0161001000
1DEDDDDD90
0270000000
0012000000
ENDCHAR
STARTCHAR uni21C5
ENCODING 8645
SWIDTH 791 0
DWIDTH 8 0
BBX 8 9 0 -2
BITMAP
00300500
04D10A00
24D80A00
20A11A00
00A00A00
00A00A00
00A21A02
00A06D71
00A00A10
ENDCHAR
STARTCHAR uni21C6
ENCODING 8646
SWIDTH 948 0
DWIDTH 9 0
BBX 9 8 0 -2
BITMAP
0012000000
0270000000
1DEDDDDD90
0161001000
0001003400
2DDDDDDF60
0000003600
0000002000
ENDCHAR
STARTCHAR uni21C7
ENCODING 8647
SWIDTH 948 0
DWIDTH 9 0
BBX 9 8 0 -2
BITMAP
0012000000
0270000000
1DEDDDDDA0
0161000000
0161000000
1DEDDDDDA0
0270000000
0012000000
ENDCHAR
STARTCHAR uni21C8
ENCODING 8648
SWIDTH 791 0
DWIDTH 8 0
BBX 8 9 0 -2
BITMAP
00300300
04D01E30
19D67D81
21A21A02
00A00A00
00A00A00
00A00A00
00A00A00
00A00A00
ENDCHAR
STARTCHAR uni21C9
ENCODING 8649
SWIDTH 948 0
DWIDTH 9 0
BBX 9 8 0 -2
BITMAP
0000002000
0000003600
4DDDDDDF60
0000004400
0000004400
4DDDDDDF60
0000003600
0000003000
ENDCHAR
STARTCHAR uni21CA
ENCODING 8650
SWIDTH 791 0
DWIDTH 8 0
BBX 8 9 0 -2
BITMAP
00500500
00A00A00
00A00A00
00A00A00
00A00A00
00A00A00
21A21A02
18D56D70
02900A10
ENDCHAR
STARTCHAR uni21CB
ENCODING 8651
SWIDTH 948 0
DWIDTH 9 0
BBX 9 7 0 -1
BITMAP
0012000000
0060000000
19EDDDDDA0
0000000000
4DDDDDDD40
0000004300
0000002000
ENDCHAR
STARTCHAR uni21CC
ENCODING 8652
SWIDTH 948 0
DWIDTH 9 0
BBX 9 7 0 -1
BITMAP
0000002000
0000004300
4DDDDDDD30
0000000000
09EDDDDDA0
0060000000
0012000000
ENDCHAR
STARTCHAR uni21CD
ENCODING 8653
SWIDTH 948 0
DWIDTH 9 0
BBX 9 7 0 -1
BITMAP
0001300220
0019000800
03DEDDDEC0
2D10007100
03CEDDEDC0
0018172000
0000240000
ENDCHAR
STARTCHAR uni21CE
ENCODING 8654
SWIDTH 948 0
DWIDTH 9 0
BBX 10 6 0 -1
BITMAP
0044267100
07EDEEEC20
88007101D1
09EDEDED30
0083809200
0002312000
ENDCHAR
STARTCHAR uni21CF
ENCODING 8655
SWIDTH 948 0
DWIDTH 9 0
BBX 9 7 0 -1
BITMAP
0002230000
0008055000
5DDEDDE800
0071000790
5DEDDDE800
0720055000
0400020000
ENDCHAR
STARTCHAR uni21D0
ENCODING 8656
SWIDTH 887 0
DWIDTH 9 0
BBX 9 7 0 -1
BITMAP
0001300000
0029000000
03DEDDDDC0
2D10000000
04DEDDDDC0
0029000000
0001300000
ENDCHAR
STARTCHAR uni21D1
ENCODING 8657
SWIDTH 720 0
DWIDTH 7 0
BBX 7 8 0 -1
BITMAP
001B2000
00929100
07D0B900
22A0A140
00A0A000
00A0A000
00A0A000
00A0A000
ENDCHAR
STARTCHAR uni21D2
ENCODING 8658
SWIDTH 887 0
DWIDTH 9 0
BBX 9 7 0 -1
BITMAP
0000300000
0000191000
DDDDDEC200
0000002D10
DDDDDEC300
0000191000
0000300000
ENDCHAR
STARTCHAR uni21D3
ENCODING 8659
SWIDTH 720 0
DWIDTH 7 0
BBX 7 10 0 -2
BITMAP
00303000
00A0A000
00A0A000
00A0A000
00A0A000
33A0A140
07D0B900
00A2A100
001D3000
00010000
ENDCHAR
STARTCHAR uni21D4
ENCODING 8660
SWIDTH 948 0
DWIDTH 9 0
BBX 10 7 0 -1
BITMAP
0001001000
0063008100
08EDDDED30
88000001D1
08EDDDEC30
0063008100
0001001000
ENDCHAR
STARTCHAR uni21D5
ENCODING 8661
SWIDTH 720 0
DWIDTH 7 0
BBX 7 11 0 -3
BITMAP
000A1000
00759000
04D0B700
26B0A440
00A0A000
00A0A000
34A0A240
07D0BA00
0092A100
001D3000
00010000
ENDCHAR
STARTCHAR uni21D6
ENCODING 8662
SWIDTH 948 0
DWIDTH 9 0
BBX 9 10 0 -2
BITMAP
3642100000
5CDFF60000
361B100000
1E31A10000
0AC32A1000
052C22A100
0002C22A10
00002B2290
000002B200
0000002200
ENDCHAR
STARTCHAR uni21D7
ENCODING 8663
SWIDTH 948 0
DWIDTH 9 0
BBX 9 10 0 -2
BITMAP
0000012460
0000CFFAC0
0000076080
0000660A90
0006709870
0067097050
0670970000
3808700000
0087000000
0030000000
ENDCHAR
STARTCHAR uni21D8
ENCODING 8664
SWIDTH 948 0
DWIDTH 9 0
BBX 9 9 0 -2
BITMAP
0092000000
231A100000
1A31910000
0094181020
0008417060
0000751780
0000075080
0000EFFAC0
0000023560
ENDCHAR
STARTCHAR uni21D9
ENCODING 8665
SWIDTH 948 0
DWIDTH 9 0
BBX 9 9 0 -2
BITMAP
0000007400
0000066050
0000560940
0204509300
0635093000
1B40920000
261A100000
5BCFF60000
3642100000
ENDCHAR
STARTCHAR uni21DA
ENCODING 8666
SWIDTH 872 0
DWIDTH 9 0
BBX 9 9 0 -2
BITMAP
0000200000
0006000000
006EDDDD90
0650000000
5FDDDDDD90
0750000000
006EDDDD90
0006000000
0001200000
ENDCHAR
STARTCHAR uni21DB
ENCODING 8667
SWIDTH 872 0
DWIDTH 9 0
BBX 9 9 0 -2
BITMAP
0000300000
0000240000
DDDDDD3000
0000008300
DDDDDDEE10
0000008300
DDDDDD3000
0000240000
0000200000
ENDCHAR
STARTCHAR uni21DC
ENCODING 8668
SWIDTH 948 0
DWIDTH 9 0
BBX 9 5 0 0
BITMAP
0021000000
0360090000
2EED878CC0
0363908400
0021000000
ENDCHAR
STARTCHAR uni21DD
ENCODING 8669
SWIDTH 948 0
DWIDTH 9 0
BBX 9 5 0 0
BITMAP
0000003000
0006402700
5D79A8DF90
00A1392700
0000003000
ENDCHAR
STARTCHAR uni21DE
ENCODING 8670
SWIDTH 523 0
DWIDTH 5 0
BBX 5 9 0 -2
BITMAP
00B100
06D710
21A030
00A000
5DED80
5DED80
00A000
00A000
004000
ENDCHAR
STARTCHAR uni21DF
ENCODING 8671
SWIDTH 523 0
DWIDTH 5 0
BBX 5 9 0 -2
BITMAP
001000
00A000
00A000
5DED80
5DED80
00A000
22A130
06E800
009100
ENDCHAR
STARTCHAR uni21E0
ENCODING 8672
SWIDTH 948 0
DWIDTH 9 0
BBX 9 5 0 0
BITMAP
0021000000
0360000000
2EE996D5C0
0360000000
0021000000
ENDCHAR
STARTCHAR uni21E1
ENCODING 8673
SWIDTH 523 0
DWIDTH 5 0
BBX 5 10 0 -2
BITMAP
002000
01D300
05CA20
107020
00A000
001000
00A000
001000
00A000
001000
ENDCHAR
STARTCHAR uni21E2
ENCODING 8674
SWIDTH 948 0
DWIDTH 9 0
BBX 9 5 0 0
BITMAP
0000003000
0000002700
5996D5DF90
0000002700
0000003000
ENDCHAR
STARTCHAR uni21E3
ENCODING 8675
SWIDTH 523 0
DWIDTH 5 0
BBX 5 9 0 -2
BITMAP
00A000
001000
00A000
001000
00A000
004000
24A230
04F700
005000
ENDCHAR
STARTCHAR uni21E4
ENCODING 8676
SWIDTH 948 0
DWIDTH 9 0
BBX 9 5 0 0
BITMAP
3103000000
6272000000
6AFDDDDDC0
6262000000
2102000000
ENDCHAR
STARTCHAR uni21E5
ENCODING 8677
SWIDTH 948 0
DWIDTH 9 0
BBX 9 5 0 0
BITMAP
0000012040
0000007280
5DDDDDEEA0
0000006280
0000011030
ENDCHAR
STARTCHAR uni21E6
ENCODING 8678
SWIDTH 948 0
DWIDTH 9 0
BBX 9 7 0 -1
BITMAP
0001400000
0029800000
0380DDDDC0
2D00000080
0480DDDDC0
0029800000
0001400000
ENDCHAR
STARTCHAR uni21E7
ENCODING 8679
SWIDTH 720 0
DWIDTH 7 0
BBX 7 8 0 -2
BITMAP
000B2000
00627000
04201600
3DA08E60
00808000
00808000
00808000
00BDD000
ENDCHAR
STARTCHAR uni21E8
ENCODING 8680
SWIDTH 948 0
DWIDTH 9 0
BBX 9 7 0 -1
BITMAP
0000140000
00001C6000
5DDDD64800
6200000690
5DDDD64800
00001B6000
0000140000
ENDCHAR
STARTCHAR uni21E9
ENCODING 8681
SWIDTH 720 0
DWIDTH 7 0
BBX 7 9 0 -2
BITMAP
00BDD000
00808000
00808000
00808000
3DA08E60
05201600
00727000
001D3000
00010000
ENDCHAR
STARTCHAR uni21EA
ENCODING 8682
SWIDTH 720 0
DWIDTH 7 0
BBX 7 9 0 -2
BITMAP
000B2000
00627000
04201600
3DA08E60
00808000
00808000
00BDD000
00BDD000
00BDD000
ENDCHAR
STARTCHAR uni21F4
ENCODING 8692
SWIDTH 948 0
DWIDTH 9 0
BBX 9 5 0 0
BITMAP
0000002000
003DD33500
4DEEEEDF70
003DD34500
0000002000
ENDCHAR
STARTCHAR uni21F5
ENCODING 8693
SWIDTH 791 0
DWIDTH 8 0
BBX 8 9 0 -2
BITMAP
00500300
00A01E30
00A05B91
00A20A03
00A00A00
00A00A00
31A11A00
18D60A00
02A00A00
ENDCHAR
STARTCHAR uni21F6
ENCODING 8694
SWIDTH 948 0
DWIDTH 9 0
BBX 9 11 0 -3
BITMAP
0000003000
0000002600
5DDDDDDF80
0000003500
0000003500
5DDDDDDF80
0000003500
0000003500
5DDDDDDF80
0000002700
0000003000
ENDCHAR
STARTCHAR uni21F7
ENCODING 8695
SWIDTH 948 0
DWIDTH 9 0
BBX 9 5 0 0
BITMAP
0021040000
0260080000
2EEDDEDDC0
0260080000
0011030000
ENDCHAR
STARTCHAR uni21F8
ENCODING 8696
SWIDTH 948 0
DWIDTH 9 0
BBX 9 5 0 0
BITMAP
0002203000
0004402600
6DDEEDDF80
0004403500
0001202000
ENDCHAR
STARTCHAR uni21F9
ENCODING 8697
SWIDTH 948 0
DWIDTH 9 0
BBX 9 5 0 0
BITMAP
0030403000
0350801700
3FEDEDDFA0
0350801600
0020302000
ENDCHAR
STARTCHAR uni21FA
ENCODING 8698
SWIDTH 948 0
DWIDTH 9 0
BBX 9 5 0 0
BITMAP
0021224000
0260448000
2EEDEEEDC0
0260448000
0011213000
ENDCHAR
STARTCHAR uni21FB
ENCODING 8699
SWIDTH 948 0
DWIDTH 9 0
BBX 9 5 0 0
BITMAP
0014403000
0017802600
5DDEEDDF80
0017802600
0003302000
ENDCHAR
STARTCHAR uni21FC
ENCODING 8700
SWIDTH 948 0
DWIDTH 9 0
BBX 9 5 0 0
BITMAP
0031343000
0443581710
5FEDEEDFB0
0443581610
0021232000
ENDCHAR
STARTCHAR uni21FD
ENCODING 8701
SWIDTH 948 0
DWIDTH 9 0
BBX 9 5 0 0
BITMAP
0013000000
02B5000000
2D4EDDDDC0
02A5000000
0013000000
ENDCHAR
STARTCHAR uni21FE
ENCODING 8702
SWIDTH 948 0
DWIDTH 9 0
BBX 9 5 0 0
BITMAP
0000004000
000000B600
5DDDDD9780
000000B600
0000004000
ENDCHAR
STARTCHAR uni21FF
ENCODING 8703
SWIDTH 948 0
DWIDTH 9 0
BBX 10 5 0 0
BITMAP
0040003000
06C0007910
798DDDE3C1
06C0007A10
0040003000
ENDCHAR
STARTCHAR uni2200
ENCODING 8704
SWIDTH 573 0
DWIDTH 6 0
BBX 6 7 0 0
BITMAP
600015
940084
3EDDD0
0B0380
065920
01AA00
009500
ENDCHAR
STARTCHAR uni2201
ENCODING 8705
SWIDTH 474 0
DWIDTH 5 0
BBX 5 8 0 0
BITMAP
1CF900
670A10
640510
640000
640000
640510
671A10
1CFA00
ENDCHAR
STARTCHAR partialdiff
ENCODING 8706
SWIDTH 478 0
DWIDTH 5 0
BBX 5 7 0 0
BITMAP
08E600
011A10
0AEA30
561A40
700530
661900
1BE600
ENDCHAR
STARTCHAR uni2203
ENCODING 8707
SWIDTH 573 0
DWIDTH 6 0
BBX 5 7 0 0
BITMAP
3DDDE0
0000A0
0000A0
2DDDE0
0000A0
0000A0
3DDDE0
ENDCHAR
STARTCHAR uni2204
ENCODING 8708
SWIDTH 573 0
DWIDTH 6 0
BBX 5 10 0 -1
BITMAP
000010
000540
3DDEE0
0008A0
0054A0
2DEDE0
0180A0
0630A0
3EDDE0
170000
ENDCHAR
STARTCHAR uni2205
ENCODING 8709
SWIDTH 780 0
DWIDTH 8 0
BBX 8 7 0 -1
BITMAP
01AED590
0C612A70
58005181
74042074
353300B2
098128A0
287EE800
ENDCHAR
STARTCHAR uni2206
ENCODING 8710
SWIDTH 748 0
DWIDTH 7 0
BBX 7 7 0 0
BITMAP
00091000
001C7000
0061D000
00509500
04102B00
05000A30
2DDDDE90
ENDCHAR
STARTCHAR uni2207
ENCODING 8711
SWIDTH 748 0
DWIDTH 7 0
BBX 7 8 0 -1
BITMAP
2EDDDD90
0B200130
05800500
00D10500
00864100
002C6000
000B4000
00020000
ENDCHAR
STARTCHAR uni2208
ENCODING 8712
SWIDTH 720 0
DWIDTH 7 0
BBX 7 6 0 0
BITMAP
02BDDD60
0C400000
3A000000
3EDDDD60
0A200000
02BDDD60
ENDCHAR
STARTCHAR uni2209
ENCODING 8713
SWIDTH 720 0
DWIDTH 7 0
BBX 7 10 0 -2
BITMAP
00000100
00001900
02BDED60
0C409000
3A055000
3EDEDD60
0A640000
02EDDD60
06400000
04000000
ENDCHAR
STARTCHAR uni220A
ENCODING 8714
SWIDTH 497 0
DWIDTH 5 0
BBX 5 4 0 0
BITMAP
07DD40
4EDD40
4A0000
07DD40
ENDCHAR
STARTCHAR uni220B
ENCODING 8715
SWIDTH 720 0
DWIDTH 7 0
BBX 7 6 0 0
BITMAP
3DDDC400
00002D10
00000760
3DDDDE60
00001A10
3DDDC400
ENDCHAR
STARTCHAR uni220C
ENCODING 8716
SWIDTH 720 0
DWIDTH 7 0
BBX 7 10 0 -2
BITMAP
00000100
00000900
3DDDD600
0000BD10
00046860
3DDEDE60
00551A20
3DEDC400
05400000
04000000
ENDCHAR
STARTCHAR uni220D
ENCODING 8717
SWIDTH 497 0
DWIDTH 5 0
BBX 5 4 0 0
BITMAP
5DD700
5DDE30
000A30
5DD700
ENDCHAR
STARTCHAR uni220E
ENCODING 8718
SWIDTH 558 0
DWIDTH 6 0
BBX 5 7 0 0
BITMAP
388870
6FFFE0
6FFFE0
6FFFE0
6FFFE0
6FFFE0
6FFFE0
ENDCHAR
STARTCHAR uni220F
ENCODING 8719
SWIDTH 1135 0
DWIDTH 11 0
BBX 11 11 0 -3
BITMAP
3BEDCCCCED70
00D50000F300
00C50000F200
00C50000F200
00C50000F200
00C50000F200
00C50000F200
00C50000F200
00C50001F200
01E80003F500
5EEEB06EEE90
ENDCHAR
STARTCHAR uni2210
ENCODING 8720
SWIDTH 1135 0
DWIDTH 11 0
BBX 11 11 0 -3
BITMAP
27BA5038B940
00D60002F300
00C50000F200
00C50000F200
00C50000F200
00C50000F200
00C50000F200
00C50000F200
00C50000F200
00D50000F300
28A98888A940
ENDCHAR
STARTCHAR uni2211
ENCODING 8721
SWIDTH 936 0
DWIDTH 9 0
BBX 9 11 0 -2
BITMAP
3EEDDDEE30
08B0001A30
00C8000340
002E400000
0005E20000
0000B40000
0003800000
001A000010
0092000170
0650001A40
3FFFFFFF10
ENDCHAR
STARTCHAR uni2212
ENCODING 8722
SWIDTH 720 0
DWIDTH 7 0
BBX 7 1 0 2
BITMAP
5DDDDD80
ENDCHAR
STARTCHAR uni2213
ENCODING 8723
SWIDTH 720 0
DWIDTH 7 0
BBX 7 6 0 -1
BITMAP
5DDDDD80
00070000
000A0000
5DDEDD80
000A0000
000A0000
ENDCHAR
STARTCHAR uni2214
ENCODING 8724
SWIDTH 720 0
DWIDTH 7 0
BBX 7 8 0 -1
BITMAP
000D2000
00040000
000A0000
000A0000
5DDEDD80
000A0000
000A0000
00040000
ENDCHAR
STARTCHAR uni2215
ENCODING 8725
SWIDTH 535 0
DWIDTH 5 0
BBX 5 10 0 -2
BITMAP
000050
000480
000920
001A00
006500
00B000
038000
083000
0B0000
560000
ENDCHAR
STARTCHAR uni2216
ENCODING 8726
SWIDTH 535 0
DWIDTH 5 0
BBX 5 10 0 -2
BITMAP
320000
290000
0A1000
065000
01A000
009200
003800
000B00
000650
0001A0
ENDCHAR
STARTCHAR uni2217
ENCODING 8727
SWIDTH 536 0
DWIDTH 5 0
BBX 5 5 0 0
BITMAP
004000
248140
168620
2A6660
009000
ENDCHAR
STARTCHAR uni2218
ENCODING 8728
SWIDTH 436 0
DWIDTH 4 0
BBX 4 4 0 1
BITMAP
1BD4
662A
762B
1CE5
ENDCHAR
STARTCHAR uni2219
ENCODING 8729
SWIDTH 457 0
DWIDTH 5 0
BBX 3 3 1 1
BITMAP
9E30
DF70
9E30
ENDCHAR
STARTCHAR uni221A
ENCODING 8730
SWIDTH 794 0
DWIDTH 8 0
BBX 9 12 0 -3
BITMAP
0000006D40
000000A000
000000A000
0000046000
0000072000
08100A0000
5A70190000
02D0450000
00B4810000
004A900000
000D800000
0007300000
ENDCHAR
STARTCHAR uni221B
ENCODING 8731
SWIDTH 794 0
DWIDTH 8 0
BBX 9 13 0 -3
BITMAP
0530000000
34B0006D40
078000A000
02A200A000
5A90046000
0000072000
08100A0000
5A70190000
02D0450000
00B4810000
004A900000
000D800000
0007300000
ENDCHAR
STARTCHAR uni221C
ENCODING 8732
SWIDTH 794 0
DWIDTH 8 0
BBX 9 13 0 -3
BITMAP
0090000000
05C0006D40
34A000A000
79D700A000
0070046000
0000072000
08100A0000
5A70190000
02D0450000
00B4810000
004A900000
000D800000
0007300000
ENDCHAR
STARTCHAR uni221D
ENCODING 8733
SWIDTH 720 0
DWIDTH 7 0
BBX 7 4 0 0
BITMAP
0AEA1890
5519C510
6713C910
1BE919A0
ENDCHAR
STARTCHAR uni221E
ENCODING 8734
SWIDTH 953 0
DWIDTH 10 0
BBX 9 4 0 0
BITMAP
07EC25EC30
2917D713A0
3A12AD3290
09EC27EC20
ENDCHAR
STARTCHAR uni221F
ENCODING 8735
SWIDTH 720 0
DWIDTH 7 0
BBX 7 6 0 0
BITMAP
64000000
64000000
64000000
64000000
64000000
5DDDDD80
ENDCHAR
STARTCHAR uni2220
ENCODING 8736
SWIDTH 720 0
DWIDTH 7 0
BBX 7 6 0 0
BITMAP
00000540
00005900
00049000
00490000
03900000
2DDDDDA0
ENDCHAR
STARTCHAR uni2221
ENCODING 8737
SWIDTH 720 0
DWIDTH 7 0
BBX 7 7 0 -1
BITMAP
00000540
00046900
0008D000
00498400
04901900
3DDDDEA0
00000600
ENDCHAR
STARTCHAR uni2222
ENCODING 8738
SWIDTH 720 0
DWIDTH 7 0
BBX 7 6 0 0
BITMAP
00000100
00006C60
016B7B00
1BC20A00
0039AB00
00004B60
ENDCHAR
STARTCHAR uni2223
ENCODING 8739
SWIDTH 272 0
DWIDTH 3 0
BBX 1 9 1 -2
BITMAP
A0
A0
A0
A0
A0
A0
A0
A0
A0
ENDCHAR
STARTCHAR uni2224
ENCODING 8740
SWIDTH 413 0
DWIDTH 4 0
BBX 4 9 0 -2
BITMAP
0460
0460
0460
0475
18B3
6760
0460
0460
0460
ENDCHAR
STARTCHAR uni2225
ENCODING 8741
SWIDTH 535 0
DWIDTH 5 0
BBX 3 9 1 -2
BITMAP
A0A0
A0A0
A0A0
A0A0
A0A0
A0A0
A0A0
A0A0
A0A0
ENDCHAR
STARTCHAR uni2226
ENCODING 8742
SWIDTH 623 0
DWIDTH 6 0
BBX 6 9 0 -2
BITMAP
047370
047370
047370
0473C8
04CB70
6B7370
147370
047370
047370
ENDCHAR
STARTCHAR uni2227
ENCODING 8743
SWIDTH 636 0
DWIDTH 6 0
BBX 6 6 0 0
BITMAP
002700
009B00
01A560
0830B0
1A0065
74000B
ENDCHAR
STARTCHAR uni2228
ENCODING 8744
SWIDTH 636 0
DWIDTH 6 0
BBX 6 6 0 0
BITMAP
74000B
1A0065
0830B0
019560
008B00
002700
ENDCHAR
STARTCHAR uni2229
ENCODING 8745
SWIDTH 636 0
DWIDTH 6 0
BBX 6 6 0 0
BITMAP
06DE91
3C2188
74000B
83000A
83000A
73000A
ENDCHAR
STARTCHAR uni222A
ENCODING 8746
SWIDTH 636 0
DWIDTH 6 0
BBX 6 6 0 0
BITMAP
83000A
83000A
83000A
74000B
3C2188
06DEA1
ENDCHAR
STARTCHAR uni222B
ENCODING 8747
SWIDTH 684 0
DWIDTH 7 0
BBX 7 10 0 -3
BITMAP
00003730
00029650
00085000
000D2000
001E0000
004B0000
00780000
00A30000
83B00000
47200000
ENDCHAR
STARTCHAR uni222C
ENCODING 8748
SWIDTH 1016 0
DWIDTH 10 0
BBX 10 10 0 -3
BITMAP
0000373176
0002965A29
0008503A00
000D208700
001E00B400
004B00E100
007802D000
00A3058000
83B37A2000
4722740000
ENDCHAR
STARTCHAR uni222D
ENCODING 8749
SWIDTH 1348 0
DWIDTH 13 0
BBX 14 10 0 -3
BITMAP
00003731760671
0002965A2965A1
0008503A00D000
000D208703C000
001E00B4079000
004B00E1096000
007802D00C2000
00A305801C0000
83B37A2A560000
47227407600000
ENDCHAR
STARTCHAR uni222E
ENCODING 8750
SWIDTH 684 0
DWIDTH 7 0
BBX 7 10 0 -3
BITMAP
00004730
00049650
006C7000
071E4500
073D0700
076A3400
01BA4000
00B10000
84900000
47100000
ENDCHAR
STARTCHAR uni222F
ENCODING 8751
SWIDTH 1016 0
DWIDTH 10 0
BBX 10 10 0 -3
BITMAP
0000473266
0002865B29
0009869A00
032E10A960
063D00D370
088A01E380
00A968D700
00B2067000
83937A1000
4712740000
ENDCHAR
STARTCHAR uni2230
ENCODING 8752
SWIDTH 1348 0
DWIDTH 13 0
BBX 14 10 0 -3
BITMAP
00004732760671
0002865B2984A1
0009859B67E000
022E10A605C720
073D00D3088070
089A00E00B6830
009968D67E8200
00B106602C0000
83A37A1A650000
47127307600000
ENDCHAR
STARTCHAR uni2231
ENCODING 8753
SWIDTH 684 0
DWIDTH 7 0
BBX 7 10 0 -3
BITMAP
00004730
00029650
00085000
000D3000
027E6410
064B2A00
00780000
00A30000
73B00000
47200000
ENDCHAR
STARTCHAR uni2232
ENCODING 8754
SWIDTH 684 0
DWIDTH 7 0
BBX 7 10 0 -3
BITMAP
00004730
00029650
016B8000
081C4720
161E2B00
163C0700
08793500
01C85000
73B00000
47200000
ENDCHAR
STARTCHAR uni2233
ENCODING 8755
SWIDTH 684 0
DWIDTH 7 0
BBX 7 10 0 -3
BITMAP
00004730
00039650
006C8000
071E5810
062D1600
076A3500
01BA4000
00B10000
84900000
47100000
ENDCHAR
STARTCHAR uni2234
ENCODING 8756
SWIDTH 635 0
DWIDTH 6 0
BBX 6 6 0 -1
BITMAP
005A00
000100
000000
000000
78003C
110001
ENDCHAR
STARTCHAR uni2235
ENCODING 8757
SWIDTH 635 0
DWIDTH 6 0
BBX 6 6 0 -1
BITMAP
78003C
110001
000000
000000
005A00
000100
ENDCHAR
STARTCHAR uni2236
ENCODING 8758
SWIDTH 523 0
DWIDTH 5 0
BBX 2 6 2 -1
BITMAP
D2
10
00
00
D2
10
ENDCHAR
STARTCHAR uni2237
ENCODING 8759
SWIDTH 720 0
DWIDTH 7 0
BBX 6 6 1 -1
BITMAP
D200D2
100010
000000
000000
D200D2
100010
ENDCHAR
STARTCHAR uni2238
ENCODING 8760
SWIDTH 720 0
DWIDTH 7 0
BBX 7 3 0 2
BITMAP
000D2000
00010000
5DDDDD80
ENDCHAR
STARTCHAR uni2239
ENCODING 8761
SWIDTH 720 0
DWIDTH 7 0
BBX 7 6 0 -1
BITMAP
00000870
00000100
5DDD9000
00000000
00000870
00000100
ENDCHAR
STARTCHAR uni223A
ENCODING 8762
SWIDTH 720 0
DWIDTH 7 0
BBX 7 6 0 -1
BITMAP
4B000860
01000100
5DDDDD80
00000000
4B000860
01000100
ENDCHAR
STARTCHAR uni223B
ENCODING 8763
SWIDTH 720 0
DWIDTH 7 0
BBX 7 6 0 -1
BITMAP
000B3000
08D40040
263D6340
4002CB00
000C3000
00010000
ENDCHAR
STARTCHAR uni223C
ENCODING 8764
SWIDTH 720 0
DWIDTH 7 0
BBX 7 2 0 1
BITMAP
0AE93260
4417DC10
ENDCHAR
STARTCHAR uni223D
ENCODING 8765
SWIDTH 720 0
DWIDTH 7 0
BBX 7 2 0 1
BITMAP
4417DC10
0AE93260
ENDCHAR
STARTCHAR uni223E
ENCODING 8766
SWIDTH 720 0
DWIDTH 7 0
BBX 7 3 0 1
BITMAP
1CD30A40
532B3160
1C01BE40
ENDCHAR
STARTCHAR uni223F
ENCODING 8767
SWIDTH 720 0
DWIDTH 7 0
BBX 7 5 0 0
BITMAP
0AE40000
383B0000
320B0040
00085560
0002DC10
ENDCHAR
STARTCHAR uni2240
ENCODING 8768
SWIDTH 293 0
DWIDTH 3 0
BBX 3 6 0 0
BITMAP
4810
0560
0920
3800
7300
1730
ENDCHAR
STARTCHAR uni2241
ENCODING 8769
SWIDTH 720 0
DWIDTH 7 0
BBX 7 4 0 0
BITMAP
00005000
0AE75260
4528CC10
00400000
ENDCHAR
STARTCHAR uni2242
ENCODING 8770
SWIDTH 720 0
DWIDTH 7 0
BBX 7 4 0 1
BITMAP
6FFFFF90
00000000
0AE93260
4417DC10
ENDCHAR
STARTCHAR uni2243
ENCODING 8771
SWIDTH 720 0
DWIDTH 7 0
BBX 7 4 0 0
BITMAP
0AD82260
33048700
00000000
5DDDDD80
ENDCHAR
STARTCHAR uni2244
ENCODING 8772
SWIDTH 720 0
DWIDTH 7 0
BBX 7 6 0 -1
BITMAP
00008000
0AC56150
4209BB10
00170000
5DEDDD80
00700000
ENDCHAR
STARTCHAR uni2245
ENCODING 8773
SWIDTH 720 0
DWIDTH 7 0
BBX 7 6 0 0
BITMAP
08C40040
253D5240
4002BA00
5DDDDD80
00000000
5DDDDD80
ENDCHAR
STARTCHAR uni2246
ENCODING 8774
SWIDTH 720 0
DWIDTH 7 0
BBX 7 8 0 -1
BITMAP
08C40040
253D5240
4002BA00
00007100
5DDDED80
00081000
5DEEDD80
00700000
ENDCHAR
STARTCHAR uni2247
ENCODING 8775
SWIDTH 720 0
DWIDTH 7 0
BBX 7 9 0 -2
BITMAP
00001700
09D77260
4406EB10
00053000
5DDEDD80
00270000
5DEDDD80
00800000
03500000
ENDCHAR
STARTCHAR uni2248
ENCODING 8776
SWIDTH 720 0
DWIDTH 7 0
BBX 7 5 0 0
BITMAP
09E40050
362A5320
30003210
0AE93260
4417DC10
ENDCHAR
STARTCHAR uni2249
ENCODING 8777
SWIDTH 720 0
DWIDTH 7 0
BBX 7 7 0 -1
BITMAP
00003100
08D39040
263D9340
4008CB00
0ADA1150
4364DC10
00400000
ENDCHAR
STARTCHAR uni224A
ENCODING 8778
SWIDTH 720 0
DWIDTH 7 0
BBX 7 6 0 -1
BITMAP
0AD82250
32047600
09C30050
44161010
00000000
5DDDDD80
ENDCHAR
STARTCHAR uni224B
ENCODING 8779
SWIDTH 720 0
DWIDTH 7 0
BBX 7 6 0 0
BITMAP
0BE93250
4328DD10
0BEA3250
4328ED10
0BE93250
4328DD10
ENDCHAR
STARTCHAR uni224C
ENCODING 8780
SWIDTH 720 0
DWIDTH 7 0
BBX 7 6 0 0
BITMAP
4002BA00
252D5240
07C40040
5DDDDD80
00000000
5DDDDD80
ENDCHAR
STARTCHAR uni224D
ENCODING 8781
SWIDTH 720 0
DWIDTH 7 0
BBX 7 7 0 -1
BITMAP
10000010
28202750
04BED500
00000000
03BEC500
28202740
10000010
ENDCHAR
STARTCHAR uni224E
ENCODING 8782
SWIDTH 720 0
DWIDTH 7 0
BBX 7 5 0 0
BITMAP
006E9000
6FD1BF90
00000000
6FE1BF90
006E9000
ENDCHAR
STARTCHAR uni224F
ENCODING 8783
SWIDTH 720 0
DWIDTH 7 0
BBX 7 4 0 1
BITMAP
005D9000
5DC0AD80
00000000
5DDDDD80
ENDCHAR
STARTCHAR uni2250
ENCODING 8784
SWIDTH 720 0
DWIDTH 7 0
BBX 7 5 0 1
BITMAP
000D2000
00010000
5DDDDD80
00000000
5DDDDD80
ENDCHAR
STARTCHAR uni2251
ENCODING 8785
SWIDTH 720 0
DWIDTH 7 0
BBX 7 8 0 -2
BITMAP
000D2000
00010000
5DDDDD80
00000000
5DDDDD80
00000000
000D2000
00010000
ENDCHAR
STARTCHAR uni2252
ENCODING 8786
SWIDTH 720 0
DWIDTH 7 0
BBX 7 8 0 -2
BITMAP
4B000000
01000000
5DDDDD80
00000000
5DDDDD80
00000000
00000870
00000110
ENDCHAR
STARTCHAR uni2253
ENCODING 8787
SWIDTH 720 0
DWIDTH 7 0
BBX 7 8 0 -2
BITMAP
00000870
00000110
5DDDDD80
00000000
5DDDDD80
00000000
4B000000
01000000
ENDCHAR
STARTCHAR uni2254
ENCODING 8788
SWIDTH 844 0
DWIDTH 8 0
BBX 8 4 0 0
BITMAP
593DDDDC
01000000
693DDDDC
01000000
ENDCHAR
STARTCHAR uni2255
ENCODING 8789
SWIDTH 844 0
DWIDTH 8 0
BBX 8 4 0 0
BITMAP
7DDDD93B
00000001
7DDDD93B
00000001
ENDCHAR
STARTCHAR uni2256
ENCODING 8790
SWIDTH 720 0
DWIDTH 7 0
BBX 7 4 0 1
BITMAP
4ABDBA60
00748000
00748000
4ABCBA60
ENDCHAR
STARTCHAR uni2257
ENCODING 8791
SWIDTH 720 0
DWIDTH 7 0
BBX 7 7 0 1
BITMAP
004E6000
00829000
004E6000
00000000
5DDDDD80
00000000
5DDDDD80
ENDCHAR
STARTCHAR uni2258
ENCODING 8792
SWIDTH 720 0
DWIDTH 7 0
BBX 7 6 0 1
BITMAP
019DB300
06201610
00000000
5DDDDD80
00000000
5DDDDD80
ENDCHAR
STARTCHAR uni2259
ENCODING 8793
SWIDTH 720 0
DWIDTH 7 0
BBX 7 8 0 1
BITMAP
00010000
000C2000
0075A000
02907400
03200400
5DDDDD80
00000000
5DDDDD80
ENDCHAR
STARTCHAR uni225A
ENCODING 8794
SWIDTH 720 0
DWIDTH 7 0
BBX 7 8 0 1
BITMAP
04201500
01A08200
00778000
000A1000
00000000
5DDDDD80
00000000
5DDDDD80
ENDCHAR
STARTCHAR uni225B
ENCODING 8795
SWIDTH 720 0
DWIDTH 7 0
BBX 7 7 0 1
BITMAP
00040000
006E8000
003F7000
00112000
5DDDDD80
00000000
5DDDDD80
ENDCHAR
ENDFONT
